solid OBJECT
  facet normal -1 0 0
    outer loop
      vertex -9 -8.508000373840332 9.4075422286987305
      vertex -9 -4.6586556434631348 9.4075422286987305
      vertex -9 -4.6586556434631348 6
    endloop
  endfacet
  facet normal -1 0 0
    outer loop
      vertex -9 -8.508000373840332 9.4075422286987305
      vertex -9 -4.6586556434631348 6
      vertex -9 -8.508000373840332 6
    endloop
  endfacet
  facet normal -0 1 -0
    outer loop
      vertex -9 -4.6586556434631348 9.4075422286987305
      vertex 9 -4.6586556434631348 9.4075422286987305
      vertex 9 -4.6586556434631348 6
    endloop
  endfacet
  facet normal -0 1 -0
    outer loop
      vertex -9 -4.6586556434631348 9.4075422286987305
      vertex 9 -4.6586556434631348 6
      vertex -9 -4.6586556434631348 6
    endloop
  endfacet
  facet normal 1 0 -0
    outer loop
      vertex 9 -4.6586556434631348 9.4075422286987305
      vertex 9 -8.508000373840332 9.4075422286987305
      vertex 9 -8.508000373840332 6
    endloop
  endfacet
  facet normal 1 0 -0
    outer loop
      vertex 9 -4.6586556434631348 9.4075422286987305
      vertex 9 -8.508000373840332 6
      vertex 9 -4.6586556434631348 6
    endloop
  endfacet
  facet normal -0 -1 0
    outer loop
      vertex 9 -8.508000373840332 9.4075422286987305
      vertex -9 -8.508000373840332 9.4075422286987305
      vertex -9 -8.508000373840332 6
    endloop
  endfacet
  facet normal -0 -1 0
    outer loop
      vertex 9 -8.508000373840332 9.4075422286987305
      vertex -9 -8.508000373840332 6
      vertex 9 -8.508000373840332 6
    endloop
  endfacet
  facet normal -0 -0 1
    outer loop
      vertex -9 -4.6586556434631348 9.4075422286987305
      vertex -9 -8.508000373840332 9.4075422286987305
      vertex 9 -8.508000373840332 9.4075422286987305
    endloop
  endfacet
  facet normal 0 0 1
    outer loop
      vertex 9 -8.508000373840332 9.4075422286987305
      vertex 9 -4.6586556434631348 9.4075422286987305
      vertex -9 -4.6586556434631348 9.4075422286987305
    endloop
  endfacet
  facet normal 0 0 -1
    outer loop
      vertex -9 -4.6586556434631348 6
      vertex 9 -8.508000373840332 6
      vertex -9 -8.508000373840332 6
    endloop
  endfacet
  facet normal -0 -0 -1
    outer loop
      vertex 9 -8.508000373840332 6
      vertex -9 -4.6586556434631348 6
      vertex 9 -4.6586556434631348 6
    endloop
  endfacet
  facet normal -1 0 0
    outer loop
      vertex -9 -8.508000373840332 -6
      vertex -9 -4.6586556434631348 -6
      vertex -9 -4.6586556434631348 -9.4075422286987305
    endloop
  endfacet
  facet normal -1 0 0
    outer loop
      vertex -9 -8.508000373840332 -6
      vertex -9 -4.6586556434631348 -9.4075422286987305
      vertex -9 -8.508000373840332 -9.4075422286987305
    endloop
  endfacet
  facet normal -0 1 -0
    outer loop
      vertex -9 -4.6586556434631348 -6
      vertex 9 -4.6586556434631348 -6
      vertex 9 -4.6586556434631348 -9.4075422286987305
    endloop
  endfacet
  facet normal -0 1 -0
    outer loop
      vertex -9 -4.6586556434631348 -6
      vertex 9 -4.6586556434631348 -9.4075422286987305
      vertex -9 -4.6586556434631348 -9.4075422286987305
    endloop
  endfacet
  facet normal 1 0 -0
    outer loop
      vertex 9 -4.6586556434631348 -6
      vertex 9 -8.508000373840332 -6
      vertex 9 -8.508000373840332 -9.4075422286987305
    endloop
  endfacet
  facet normal 1 0 -0
    outer loop
      vertex 9 -4.6586556434631348 -6
      vertex 9 -8.508000373840332 -9.4075422286987305
      vertex 9 -4.6586556434631348 -9.4075422286987305
    endloop
  endfacet
  facet normal -0 -1 0
    outer loop
      vertex 9 -8.508000373840332 -6
      vertex -9 -8.508000373840332 -6
      vertex -9 -8.508000373840332 -9.4075422286987305
    endloop
  endfacet
  facet normal -0 -1 0
    outer loop
      vertex 9 -8.508000373840332 -6
      vertex -9 -8.508000373840332 -9.4075422286987305
      vertex 9 -8.508000373840332 -9.4075422286987305
    endloop
  endfacet
  facet normal -0 -0 1
    outer loop
      vertex -9 -4.6586556434631348 -6
      vertex -9 -8.508000373840332 -6
      vertex 9 -8.508000373840332 -6
    endloop
  endfacet
  facet normal 0 0 1
    outer loop
      vertex 9 -8.508000373840332 -6
      vertex 9 -4.6586556434631348 -6
      vertex -9 -4.6586556434631348 -6
    endloop
  endfacet
  facet normal 0 0 -1
    outer loop
      vertex -9 -4.6586556434631348 -9.4075422286987305
      vertex 9 -8.508000373840332 -9.4075422286987305
      vertex -9 -8.508000373840332 -9.4075422286987305
    endloop
  endfacet
  facet normal -0 -0 -1
    outer loop
      vertex 9 -8.508000373840332 -9.4075422286987305
      vertex -9 -4.6586556434631348 -9.4075422286987305
      vertex 9 -4.6586556434631348 -9.4075422286987305
    endloop
  endfacet
  facet normal 0.96592581878207384 0 0.25881907311900398
    outer loop
      vertex 0.25 -3.7579998970031738 0
      vertex 0.21650634706020355 -3.7579998970031738 0.125
      vertex 0.21650634706020355 -8.508000373840332 0.125
    endloop
  endfacet
  facet normal 0.96592581878207384 -0 0.25881907311900398
    outer loop
      vertex 0.25 -3.7579998970031738 0
      vertex 0.21650634706020355 -8.508000373840332 0.125
      vertex 0.25 -8.508000373840332 0
    endloop
  endfacet
  facet normal 0.70710678118654746 0 0.70710678118654746
    outer loop
      vertex 0.21650634706020355 -3.7579998970031738 0.125
      vertex 0.125 -3.7579998970031738 0.21650634706020355
      vertex 0.125 -8.508000373840332 0.21650634706020355
    endloop
  endfacet
  facet normal 0.70710678118654746 0 0.70710678118654746
    outer loop
      vertex 0.21650634706020355 -3.7579998970031738 0.125
      vertex 0.125 -8.508000373840332 0.21650634706020355
      vertex 0.21650634706020355 -8.508000373840332 0.125
    endloop
  endfacet
  facet normal 0.25881907311900387 0 0.96592581878207384
    outer loop
      vertex 0.125 -3.7579998970031738 0.21650634706020355
      vertex -5.7019988225558653e-17 -3.7579998970031738 0.25
      vertex -5.7019988225558653e-17 -8.508000373840332 0.25
    endloop
  endfacet
  facet normal 0.25881907311900387 0 0.96592581878207384
    outer loop
      vertex 0.125 -3.7579998970031738 0.21650634706020355
      vertex -5.7019988225558653e-17 -8.508000373840332 0.25
      vertex 0.125 -8.508000373840332 0.21650634706020355
    endloop
  endfacet
  facet normal -0.25881907311900409 0 0.96592581878207384
    outer loop
      vertex -5.7019988225558653e-17 -3.7579998970031738 0.25
      vertex -0.125 -3.7579998970031738 0.21650634706020355
      vertex -0.125 -8.508000373840332 0.21650634706020355
    endloop
  endfacet
  facet normal -0.25881907311900409 0 0.96592581878207384
    outer loop
      vertex -5.7019988225558653e-17 -3.7579998970031738 0.25
      vertex -0.125 -8.508000373840332 0.21650634706020355
      vertex -5.7019988225558653e-17 -8.508000373840332 0.25
    endloop
  endfacet
  facet normal -0.70710678118654746 -0 0.70710678118654746
    outer loop
      vertex -0.125 -3.7579998970031738 0.21650634706020355
      vertex -0.21650634706020355 -3.7579998970031738 0.125
      vertex -0.21650634706020355 -8.508000373840332 0.125
    endloop
  endfacet
  facet normal -0.70710678118654746 0 0.70710678118654746
    outer loop
      vertex -0.125 -3.7579998970031738 0.21650634706020355
      vertex -0.21650634706020355 -8.508000373840332 0.125
      vertex -0.125 -8.508000373840332 0.21650634706020355
    endloop
  endfacet
  facet normal -0.96592581878207384 -0 0.25881907311900398
    outer loop
      vertex -0.21650634706020355 -3.7579998970031738 0.125
      vertex -0.25 -3.7579998970031738 0
      vertex -0.25 -8.508000373840332 0
    endloop
  endfacet
  facet normal -0.96592581878207384 0 0.25881907311900398
    outer loop
      vertex -0.21650634706020355 -3.7579998970031738 0.125
      vertex -0.25 -8.508000373840332 0
      vertex -0.21650634706020355 -8.508000373840332 0.125
    endloop
  endfacet
  facet normal -0.96592581878207384 -0 -0.25881907311900398
    outer loop
      vertex -0.25 -3.7579998970031738 0
      vertex -0.21650634706020355 -3.7579998970031738 -0.125
      vertex -0.21650634706020355 -8.508000373840332 -0.125
    endloop
  endfacet
  facet normal -0.96592581878207384 0 -0.25881907311900398
    outer loop
      vertex -0.25 -3.7579998970031738 0
      vertex -0.21650634706020355 -8.508000373840332 -0.125
      vertex -0.25 -8.508000373840332 0
    endloop
  endfacet
  facet normal -0.70710678118654746 -0 -0.70710678118654746
    outer loop
      vertex -0.21650634706020355 -3.7579998970031738 -0.125
      vertex -0.125 -3.7579998970031738 -0.21650634706020355
      vertex -0.125 -8.508000373840332 -0.21650634706020355
    endloop
  endfacet
  facet normal -0.70710678118654746 0 -0.70710678118654746
    outer loop
      vertex -0.21650634706020355 -3.7579998970031738 -0.125
      vertex -0.125 -8.508000373840332 -0.21650634706020355
      vertex -0.21650634706020355 -8.508000373840332 -0.125
    endloop
  endfacet
  facet normal -0.25881907311900409 -0 -0.96592581878207384
    outer loop
      vertex -0.125 -3.7579998970031738 -0.21650634706020355
      vertex -5.7019988225558653e-17 -3.7579998970031738 -0.25
      vertex -5.7019988225558653e-17 -8.508000373840332 -0.25
    endloop
  endfacet
  facet normal -0.25881907311900409 0 -0.96592581878207384
    outer loop
      vertex -0.125 -3.7579998970031738 -0.21650634706020355
      vertex -5.7019988225558653e-17 -8.508000373840332 -0.25
      vertex -0.125 -8.508000373840332 -0.21650634706020355
    endloop
  endfacet
  facet normal 0.25881907311900387 -0 -0.96592581878207384
    outer loop
      vertex -5.7019988225558653e-17 -3.7579998970031738 -0.25
      vertex 0.125 -3.7579998970031738 -0.21650634706020355
      vertex 0.125 -8.508000373840332 -0.21650634706020355
    endloop
  endfacet
  facet normal 0.25881907311900387 0 -0.96592581878207384
    outer loop
      vertex -5.7019988225558653e-17 -3.7579998970031738 -0.25
      vertex 0.125 -8.508000373840332 -0.21650634706020355
      vertex -5.7019988225558653e-17 -8.508000373840332 -0.25
    endloop
  endfacet
  facet normal 0.70710678118654746 0 -0.70710678118654746
    outer loop
      vertex 0.125 -3.7579998970031738 -0.21650634706020355
      vertex 0.21650634706020355 -3.7579998970031738 -0.125
      vertex 0.21650634706020355 -8.508000373840332 -0.125
    endloop
  endfacet
  facet normal 0.70710678118654746 0 -0.70710678118654746
    outer loop
      vertex 0.125 -3.7579998970031738 -0.21650634706020355
      vertex 0.21650634706020355 -8.508000373840332 -0.125
      vertex 0.125 -8.508000373840332 -0.21650634706020355
    endloop
  endfacet
  facet normal 0.96592581878207384 0 -0.25881907311900398
    outer loop
      vertex 0.21650634706020355 -3.7579998970031738 -0.125
      vertex 0.25 -3.7579998970031738 0
      vertex 0.25 -8.508000373840332 0
    endloop
  endfacet
  facet normal 0.96592581878207384 0 -0.25881907311900398
    outer loop
      vertex 0.21650634706020355 -3.7579998970031738 -0.125
      vertex 0.25 -8.508000373840332 0
      vertex 0.21650634706020355 -8.508000373840332 -0.125
    endloop
  endfacet
  facet normal 0 1 0
    outer loop
      vertex -5.7019988225558653e-17 -3.7579998970031738 -0.25
      vertex -0.125 -3.7579998970031738 -0.21650634706020355
      vertex -0.21650634706020355 -3.7579998970031738 -0.125
    endloop
  endfacet
  facet normal -0 1 0
    outer loop
      vertex -0.125 -3.7579998970031738 0.21650634706020355
      vertex -5.7019988225558653e-17 -3.7579998970031738 -0.25
      vertex -0.21650634706020355 -3.7579998970031738 -0.125
    endloop
  endfacet
  facet normal -0 1 0
    outer loop
      vertex -0.21650634706020355 -3.7579998970031738 0.125
      vertex -0.125 -3.7579998970031738 0.21650634706020355
      vertex -0.25 -3.7579998970031738 0
    endloop
  endfacet
  facet normal 0 1 0
    outer loop
      vertex -0.21650634706020355 -3.7579998970031738 -0.125
      vertex -0.25 -3.7579998970031738 0
      vertex -0.125 -3.7579998970031738 0.21650634706020355
    endloop
  endfacet
  facet normal -0 1 -0
    outer loop
      vertex -0.125 -3.7579998970031738 0.21650634706020355
      vertex 0.21650634706020355 -3.7579998970031738 -0.125
      vertex -5.7019988225558653e-17 -3.7579998970031738 -0.25
    endloop
  endfacet
  facet normal -0 1 -0
    outer loop
      vertex -0.125 -3.7579998970031738 0.21650634706020355
      vertex 0.25 -3.7579998970031738 0
      vertex 0.21650634706020355 -3.7579998970031738 -0.125
    endloop
  endfacet
  facet normal 0 1 -0
    outer loop
      vertex -0.125 -3.7579998970031738 0.21650634706020355
      vertex 0.125 -3.7579998970031738 0.21650634706020355
      vertex 0.25 -3.7579998970031738 0
    endloop
  endfacet
  facet normal 0 1 -0
    outer loop
      vertex -0.125 -3.7579998970031738 0.21650634706020355
      vertex -5.7019988225558653e-17 -3.7579998970031738 0.25
      vertex 0.125 -3.7579998970031738 0.21650634706020355
    endloop
  endfacet
  facet normal -0 1 -0
    outer loop
      vertex 0.21650634706020355 -3.7579998970031738 0.125
      vertex 0.25 -3.7579998970031738 0
      vertex 0.125 -3.7579998970031738 0.21650634706020355
    endloop
  endfacet
  facet normal -0 1 0
    outer loop
      vertex 0.125 -3.7579998970031738 -0.21650634706020355
      vertex -5.7019988225558653e-17 -3.7579998970031738 -0.25
      vertex 0.21650634706020355 -3.7579998970031738 -0.125
    endloop
  endfacet
  facet normal 0 -1 0
    outer loop
      vertex -5.7019988225558653e-17 -8.508000373840332 -0.25
      vertex -0.21650634706020355 -8.508000373840332 -0.125
      vertex -0.125 -8.508000373840332 -0.21650634706020355
    endloop
  endfacet
  facet normal -0 -1 0
    outer loop
      vertex -0.125 -8.508000373840332 0.21650634706020355
      vertex -0.21650634706020355 -8.508000373840332 -0.125
      vertex -5.7019988225558653e-17 -8.508000373840332 -0.25
    endloop
  endfacet
  facet normal -0 -1 0
    outer loop
      vertex -0.21650634706020355 -8.508000373840332 0.125
      vertex -0.25 -8.508000373840332 0
      vertex -0.125 -8.508000373840332 0.21650634706020355
    endloop
  endfacet
  facet normal 0 -1 0
    outer loop
      vertex -0.21650634706020355 -8.508000373840332 -0.125
      vertex -0.125 -8.508000373840332 0.21650634706020355
      vertex -0.25 -8.508000373840332 0
    endloop
  endfacet
  facet normal -0 -1 -0
    outer loop
      vertex -0.125 -8.508000373840332 0.21650634706020355
      vertex -5.7019988225558653e-17 -8.508000373840332 -0.25
      vertex 0.21650634706020355 -8.508000373840332 -0.125
    endloop
  endfacet
  facet normal -0 -1 -0
    outer loop
      vertex -0.125 -8.508000373840332 0.21650634706020355
      vertex 0.21650634706020355 -8.508000373840332 -0.125
      vertex 0.25 -8.508000373840332 0
    endloop
  endfacet
  facet normal 0 -1 -0
    outer loop
      vertex -0.125 -8.508000373840332 0.21650634706020355
      vertex 0.25 -8.508000373840332 0
      vertex 0.125 -8.508000373840332 0.21650634706020355
    endloop
  endfacet
  facet normal 0 -1 -0
    outer loop
      vertex -0.125 -8.508000373840332 0.21650634706020355
      vertex 0.125 -8.508000373840332 0.21650634706020355
      vertex -5.7019988225558653e-17 -8.508000373840332 0.25
    endloop
  endfacet
  facet normal -0 -1 -0
    outer loop
      vertex 0.21650634706020355 -8.508000373840332 0.125
      vertex 0.125 -8.508000373840332 0.21650634706020355
      vertex 0.25 -8.508000373840332 0
    endloop
  endfacet
  facet normal 0 -1 -0
    outer loop
      vertex 0.125 -8.508000373840332 -0.21650634706020355
      vertex 0.21650634706020355 -8.508000373840332 -0.125
      vertex -5.7019988225558653e-17 -8.508000373840332 -0.25
    endloop
  endfacet
  facet normal 0.98078525137900419 0.19509046793070989 -0
    outer loop
      vertex 0.5 -3.5079998970031738 -1
      vertex 0.46193975210189819 -3.3166582584381104 -1
      vertex 0.46193975210189819 -3.3166582584381104 1
    endloop
  endfacet
  facet normal 0.98078525137900419 0.19509046793070989 0
    outer loop
      vertex 0.5 -3.5079998970031738 -1
      vertex 0.46193975210189819 -3.3166582584381104 1
      vertex 0.5 -3.5079998970031738 1
    endloop
  endfacet
  facet normal 0.8314696032632134 0.5555702465479182 -0
    outer loop
      vertex 0.46193975210189819 -3.3166582584381104 -1
      vertex 0.35355338454246521 -3.1544466018676758 -1
      vertex 0.35355338454246521 -3.1544466018676758 1
    endloop
  endfacet
  facet normal 0.8314696032632134 0.5555702465479182 0
    outer loop
      vertex 0.46193975210189819 -3.3166582584381104 -1
      vertex 0.35355338454246521 -3.1544466018676758 1
      vertex 0.46193975210189819 -3.3166582584381104 1
    endloop
  endfacet
  facet normal 0.55556989443289406 0.83146983853885092 -0
    outer loop
      vertex 0.35355338454246521 -3.1544466018676758 -1
      vertex 0.19134171307086945 -3.04606032371521 -1
      vertex 0.19134171307086945 -3.04606032371521 1
    endloop
  endfacet
  facet normal 0.55556989443289406 0.83146983853885092 0
    outer loop
      vertex 0.35355338454246521 -3.1544466018676758 -1
      vertex 0.19134171307086945 -3.04606032371521 1
      vertex 0.35355338454246521 -3.1544466018676758 1
    endloop
  endfacet
  facet normal 0.19509127654131883 0.98078509053588225 -0
    outer loop
      vertex 0.19134171307086945 -3.04606032371521 -1
      vertex 0 -3.0079998970031738 -1
      vertex 0 -3.0079998970031738 1
    endloop
  endfacet
  facet normal 0.19509127654131883 0.98078509053588225 0
    outer loop
      vertex 0.19134171307086945 -3.04606032371521 -1
      vertex 0 -3.0079998970031738 1
      vertex 0.19134171307086945 -3.04606032371521 1
    endloop
  endfacet
  facet normal -0.19509127654131883 0.98078509053588225 -0
    outer loop
      vertex 0 -3.0079998970031738 -1
      vertex -0.19134171307086945 -3.04606032371521 -1
      vertex -0.19134171307086945 -3.04606032371521 1
    endloop
  endfacet
  facet normal -0.19509127654131883 0.98078509053588225 0
    outer loop
      vertex 0 -3.0079998970031738 -1
      vertex -0.19134171307086945 -3.04606032371521 1
      vertex 0 -3.0079998970031738 1
    endloop
  endfacet
  facet normal -0.55556989443289406 0.83146983853885092 -0
    outer loop
      vertex -0.19134171307086945 -3.04606032371521 -1
      vertex -0.35355338454246521 -3.1544466018676758 -1
      vertex -0.35355338454246521 -3.1544466018676758 1
    endloop
  endfacet
  facet normal -0.55556989443289406 0.83146983853885092 0
    outer loop
      vertex -0.19134171307086945 -3.04606032371521 -1
      vertex -0.35355338454246521 -3.1544466018676758 1
      vertex -0.19134171307086945 -3.04606032371521 1
    endloop
  endfacet
  facet normal -0.8314696032632134 0.5555702465479182 0
    outer loop
      vertex -0.35355338454246521 -3.1544466018676758 -1
      vertex -0.46193975210189819 -3.3166582584381104 -1
      vertex -0.46193975210189819 -3.3166582584381104 1
    endloop
  endfacet
  facet normal -0.8314696032632134 0.5555702465479182 0
    outer loop
      vertex -0.35355338454246521 -3.1544466018676758 -1
      vertex -0.46193975210189819 -3.3166582584381104 1
      vertex -0.35355338454246521 -3.1544466018676758 1
    endloop
  endfacet
  facet normal -0.98078525137900419 0.19509046793070989 0
    outer loop
      vertex -0.46193975210189819 -3.3166582584381104 -1
      vertex -0.5 -3.5079998970031738 -1
      vertex -0.5 -3.5079998970031738 1
    endloop
  endfacet
  facet normal -0.98078525137900419 0.19509046793070989 0
    outer loop
      vertex -0.46193975210189819 -3.3166582584381104 -1
      vertex -0.5 -3.5079998970031738 1
      vertex -0.46193975210189819 -3.3166582584381104 1
    endloop
  endfacet
  facet normal -0.98078529789216518 -0.19509023409329579 0
    outer loop
      vertex -0.5 -3.5079998970031738 -1
      vertex -0.46193975210189819 -3.6993417739868164 -1
      vertex -0.46193975210189819 -3.6993417739868164 1
    endloop
  endfacet
  facet normal -0.98078529789216518 -0.19509023409329579 -0
    outer loop
      vertex -0.5 -3.5079998970031738 -1
      vertex -0.46193975210189819 -3.6993417739868164 1
      vertex -0.5 -3.5079998970031738 1
    endloop
  endfacet
  facet normal -0.8314696032632134 -0.5555702465479182 0
    outer loop
      vertex -0.46193975210189819 -3.6993417739868164 -1
      vertex -0.35355338454246521 -3.861553430557251 -1
      vertex -0.35355338454246521 -3.861553430557251 1
    endloop
  endfacet
  facet normal -0.8314696032632134 -0.5555702465479182 0
    outer loop
      vertex -0.46193975210189819 -3.6993417739868164 -1
      vertex -0.35355338454246521 -3.861553430557251 1
      vertex -0.46193975210189819 -3.6993417739868164 1
    endloop
  endfacet
  facet normal -0.55556989443289406 -0.83146983853885092 0
    outer loop
      vertex -0.35355338454246521 -3.861553430557251 -1
      vertex -0.19134171307086945 -3.9699397087097168 -1
      vertex -0.19134171307086945 -3.9699397087097168 1
    endloop
  endfacet
  facet normal -0.55556989443289406 -0.83146983853885092 0
    outer loop
      vertex -0.35355338454246521 -3.861553430557251 -1
      vertex -0.19134171307086945 -3.9699397087097168 1
      vertex -0.35355338454246521 -3.861553430557251 1
    endloop
  endfacet
  facet normal -0.19509010096140059 -0.98078532437372379 0
    outer loop
      vertex -0.19134171307086945 -3.9699397087097168 -1
      vertex 0 -4.0079998970031738 -1
      vertex 0 -4.0079998970031738 1
    endloop
  endfacet
  facet normal -0.19509010096140059 -0.98078532437372379 -0
    outer loop
      vertex -0.19134171307086945 -3.9699397087097168 -1
      vertex 0 -4.0079998970031738 1
      vertex -0.19134171307086945 -3.9699397087097168 1
    endloop
  endfacet
  facet normal 0.19509010096140059 -0.98078532437372379 0
    outer loop
      vertex 0 -4.0079998970031738 -1
      vertex 0.19134171307086945 -3.9699397087097168 -1
      vertex 0.19134171307086945 -3.9699397087097168 1
    endloop
  endfacet
  facet normal 0.19509010096140059 -0.98078532437372379 0
    outer loop
      vertex 0 -4.0079998970031738 -1
      vertex 0.19134171307086945 -3.9699397087097168 1
      vertex 0 -4.0079998970031738 1
    endloop
  endfacet
  facet normal 0.55556989443289406 -0.83146983853885092 0
    outer loop
      vertex 0.19134171307086945 -3.9699397087097168 -1
      vertex 0.35355338454246521 -3.861553430557251 -1
      vertex 0.35355338454246521 -3.861553430557251 1
    endloop
  endfacet
  facet normal 0.55556989443289406 -0.83146983853885092 0
    outer loop
      vertex 0.19134171307086945 -3.9699397087097168 -1
      vertex 0.35355338454246521 -3.861553430557251 1
      vertex 0.19134171307086945 -3.9699397087097168 1
    endloop
  endfacet
  facet normal 0.8314696032632134 -0.5555702465479182 -0
    outer loop
      vertex 0.35355338454246521 -3.861553430557251 -1
      vertex 0.46193975210189819 -3.6993417739868164 -1
      vertex 0.46193975210189819 -3.6993417739868164 1
    endloop
  endfacet
  facet normal 0.8314696032632134 -0.5555702465479182 0
    outer loop
      vertex 0.35355338454246521 -3.861553430557251 -1
      vertex 0.46193975210189819 -3.6993417739868164 1
      vertex 0.35355338454246521 -3.861553430557251 1
    endloop
  endfacet
  facet normal 0.98078529789216518 -0.19509023409329579 0
    outer loop
      vertex 0.46193975210189819 -3.6993417739868164 -1
      vertex 0.5 -3.5079998970031738 -1
      vertex 0.5 -3.5079998970031738 1
    endloop
  endfacet
  facet normal 0.98078529789216518 -0.19509023409329579 0
    outer loop
      vertex 0.46193975210189819 -3.6993417739868164 -1
      vertex 0.5 -3.5079998970031738 1
      vertex 0.46193975210189819 -3.6993417739868164 1
    endloop
  endfacet
  facet normal 0 -0 -1
    outer loop
      vertex -0.19134171307086945 -3.9699397087097168 -1
      vertex -0.35355338454246521 -3.861553430557251 -1
      vertex -0.46193975210189819 -3.6993417739868164 -1
    endloop
  endfacet
  facet normal 0 0 -1
    outer loop
      vertex -0.5 -3.5079998970031738 -1
      vertex -0.19134171307086945 -3.9699397087097168 -1
      vertex -0.46193975210189819 -3.6993417739868164 -1
    endloop
  endfacet
  facet normal 0 0 -1
    outer loop
      vertex -0.5 -3.5079998970031738 -1
      vertex 0.19134171307086945 -3.9699397087097168 -1
      vertex -0.19134171307086945 -3.9699397087097168 -1
    endloop
  endfacet
  facet normal 0 -0 -1
    outer loop
      vertex -0.35355338454246521 -3.1544466018676758 -1
      vertex -0.5 -3.5079998970031738 -1
      vertex -0.46193975210189819 -3.3166582584381104 -1
    endloop
  endfacet
  facet normal -0 0 -1
    outer loop
      vertex -0.5 -3.5079998970031738 -1
      vertex -0.35355338454246521 -3.1544466018676758 -1
      vertex -0.19134171307086945 -3.04606032371521 -1
    endloop
  endfacet
  facet normal -0 -0 -1
    outer loop
      vertex 0.19134171307086945 -3.9699397087097168 -1
      vertex -0.5 -3.5079998970031738 -1
      vertex -0.19134171307086945 -3.04606032371521 -1
    endloop
  endfacet
  facet normal 0 -0 -1
    outer loop
      vertex 0.19134171307086945 -3.9699397087097168 -1
      vertex 0 -4.0079998970031738 -1
      vertex -0.19134171307086945 -3.9699397087097168 -1
    endloop
  endfacet
  facet normal -0 0 -1
    outer loop
      vertex 0.35355338454246521 -3.861553430557251 -1
      vertex 0.19134171307086945 -3.9699397087097168 -1
      vertex 0.46193975210189819 -3.3166582584381104 -1
    endloop
  endfacet
  facet normal 0 0 -1
    outer loop
      vertex 0.35355338454246521 -3.861553430557251 -1
      vertex 0.5 -3.5079998970031738 -1
      vertex 0.46193975210189819 -3.6993417739868164 -1
    endloop
  endfacet
  facet normal 0 0 -1
    outer loop
      vertex 0.5 -3.5079998970031738 -1
      vertex 0.35355338454246521 -3.861553430557251 -1
      vertex 0.46193975210189819 -3.3166582584381104 -1
    endloop
  endfacet
  facet normal -0 -0 -1
    outer loop
      vertex 0.19134171307086945 -3.04606032371521 -1
      vertex -0.19134171307086945 -3.04606032371521 -1
      vertex 0 -3.0079998970031738 -1
    endloop
  endfacet
  facet normal 0 0 -1
    outer loop
      vertex 0.19134171307086945 -3.04606032371521 -1
      vertex 0.35355338454246521 -3.1544466018676758 -1
      vertex 0.46193975210189819 -3.3166582584381104 -1
    endloop
  endfacet
  facet normal 0 0 -1
    outer loop
      vertex -0.19134171307086945 -3.04606032371521 -1
      vertex 0.19134171307086945 -3.04606032371521 -1
      vertex 0.46193975210189819 -3.3166582584381104 -1
    endloop
  endfacet
  facet normal -0 0 -1
    outer loop
      vertex 0.19134171307086945 -3.9699397087097168 -1
      vertex -0.19134171307086945 -3.04606032371521 -1
      vertex 0.46193975210189819 -3.3166582584381104 -1
    endloop
  endfacet
  facet normal 0 -0 1
    outer loop
      vertex -0.19134171307086945 -3.9699397087097168 1
      vertex -0.46193975210189819 -3.6993417739868164 1
      vertex -0.35355338454246521 -3.861553430557251 1
    endloop
  endfacet
  facet normal 0 0 1
    outer loop
      vertex -0.5 -3.5079998970031738 1
      vertex -0.46193975210189819 -3.6993417739868164 1
      vertex -0.19134171307086945 -3.9699397087097168 1
    endloop
  endfacet
  facet normal 0 0 1
    outer loop
      vertex -0.5 -3.5079998970031738 1
      vertex -0.19134171307086945 -3.9699397087097168 1
      vertex 0.19134171307086945 -3.9699397087097168 1
    endloop
  endfacet
  facet normal 0 -0 1
    outer loop
      vertex -0.35355338454246521 -3.1544466018676758 1
      vertex -0.46193975210189819 -3.3166582584381104 1
      vertex -0.5 -3.5079998970031738 1
    endloop
  endfacet
  facet normal -0 0 1
    outer loop
      vertex -0.5 -3.5079998970031738 1
      vertex -0.19134171307086945 -3.04606032371521 1
      vertex -0.35355338454246521 -3.1544466018676758 1
    endloop
  endfacet
  facet normal -0 -0 1
    outer loop
      vertex 0.19134171307086945 -3.9699397087097168 1
      vertex -0.19134171307086945 -3.04606032371521 1
      vertex -0.5 -3.5079998970031738 1
    endloop
  endfacet
  facet normal 0 -0 1
    outer loop
      vertex 0.19134171307086945 -3.9699397087097168 1
      vertex -0.19134171307086945 -3.9699397087097168 1
      vertex 0 -4.0079998970031738 1
    endloop
  endfacet
  facet normal -0 0 1
    outer loop
      vertex 0.35355338454246521 -3.861553430557251 1
      vertex 0.46193975210189819 -3.3166582584381104 1
      vertex 0.19134171307086945 -3.9699397087097168 1
    endloop
  endfacet
  facet normal 0 0 1
    outer loop
      vertex 0.35355338454246521 -3.861553430557251 1
      vertex 0.46193975210189819 -3.6993417739868164 1
      vertex 0.5 -3.5079998970031738 1
    endloop
  endfacet
  facet normal 0 0 1
    outer loop
      vertex 0.5 -3.5079998970031738 1
      vertex 0.46193975210189819 -3.3166582584381104 1
      vertex 0.35355338454246521 -3.861553430557251 1
    endloop
  endfacet
  facet normal -0 -0 1
    outer loop
      vertex 0.19134171307086945 -3.04606032371521 1
      vertex 0 -3.0079998970031738 1
      vertex -0.19134171307086945 -3.04606032371521 1
    endloop
  endfacet
  facet normal 0 0 1
    outer loop
      vertex 0.19134171307086945 -3.04606032371521 1
      vertex 0.46193975210189819 -3.3166582584381104 1
      vertex 0.35355338454246521 -3.1544466018676758 1
    endloop
  endfacet
  facet normal 0 0 1
    outer loop
      vertex -0.19134171307086945 -3.04606032371521 1
      vertex 0.46193975210189819 -3.3166582584381104 1
      vertex 0.19134171307086945 -3.04606032371521 1
    endloop
  endfacet
  facet normal -0 0 1
    outer loop
      vertex 0.19134171307086945 -3.9699397087097168 1
      vertex 0.46193975210189819 -3.3166582584381104 1
      vertex -0.19134171307086945 -3.04606032371521 1
    endloop
  endfacet
  facet normal 0.99068592560895696 0.1361667977163456 -0
    outer loop
      vertex 1 -2.0079998970031738 -0.25
      vertex 0.9629172682762146 -1.7382032871246338 -0.25
      vertex 0.9629172682762146 -1.7382032871246338 0.25
    endloop
  endfacet
  facet normal 0.99068592560895696 0.1361667977163456 0
    outer loop
      vertex 1 -2.0079998970031738 -0.25
      vertex 0.9629172682762146 -1.7382032871246338 0.25
      vertex 1 -2.0079998970031738 0.25
    endloop
  endfacet
  facet normal 0.91721135368529783 0.39840096971616856 -0
    outer loop
      vertex 0.9629172682762146 -1.7382032871246338 -0.25
      vertex 0.85441941022872925 -1.4884160757064819 -0.25
      vertex 0.85441941022872925 -1.4884160757064819 0.25
    endloop
  endfacet
  facet normal 0.91721135368529783 0.39840096971616856 0
    outer loop
      vertex 0.9629172682762146 -1.7382032871246338 -0.25
      vertex 0.85441941022872925 -1.4884160757064819 0.25
      vertex 0.9629172682762146 -1.7382032871246338 0.25
    endloop
  endfacet
  facet normal 0.77571144806635417 0.63108775090220204 -0
    outer loop
      vertex 0.85441941022872925 -1.4884160757064819 -0.25
      vertex 0.68255317211151123 -1.2771639823913574 -0.25
      vertex 0.68255317211151123 -1.2771639823913574 0.25
    endloop
  endfacet
  facet normal 0.77571144806635417 0.63108775090220204 0
    outer loop
      vertex 0.85441941022872925 -1.4884160757064819 -0.25
      vertex 0.68255317211151123 -1.2771639823913574 0.25
      vertex 0.85441941022872925 -1.4884160757064819 0.25
    endloop
  endfacet
  facet normal 0.57668008695997619 0.81697005900083897 -0
    outer loop
      vertex 0.68255317211151123 -1.2771639823913574 -0.25
      vertex 0.46006503701210022 -1.120114803314209 -0.25
      vertex 0.46006503701210022 -1.120114803314209 0.25
    endloop
  endfacet
  facet normal 0.57668008695997619 0.81697005900083897 0
    outer loop
      vertex 0.68255317211151123 -1.2771639823913574 -0.25
      vertex 0.46006503701210022 -1.120114803314209 0.25
      vertex 0.68255317211151123 -1.2771639823913574 0.25
    endloop
  endfacet
  facet normal 0.33487978383970307 0.94226086110772622 -0
    outer loop
      vertex 0.46006503701210022 -1.120114803314209 -0.25
      vertex 0.20345601439476013 -1.0289158821105957 -0.25
      vertex 0.20345601439476013 -1.0289158821105957 0.25
    endloop
  endfacet
  facet normal 0.33487978383970307 0.94226086110772622 0
    outer loop
      vertex 0.46006503701210022 -1.120114803314209 -0.25
      vertex 0.20345601439476013 -1.0289158821105957 0.25
      vertex 0.46006503701210022 -1.120114803314209 0.25
    endloop
  endfacet
  facet normal 0.068242147531482181 0.99766878737399201 -0
    outer loop
      vertex 0.20345601439476013 -1.0289158821105957 -0.25
      vertex -0.06824241578578949 -1.0103312730789185 -0.25
      vertex -0.06824241578578949 -1.0103312730789185 0.25
    endloop
  endfacet
  facet normal 0.068242147531482181 0.99766878737399201 0
    outer loop
      vertex 0.20345601439476013 -1.0289158821105957 -0.25
      vertex -0.06824241578578949 -1.0103312730789185 0.25
      vertex 0.20345601439476013 -1.0289158821105957 0.25
    endloop
  endfacet
  facet normal -0.20345572104013157 0.97908414836317326 -0
    outer loop
      vertex -0.06824241578578949 -1.0103312730789185 -0.25
      vertex -0.33487960696220398 -1.0657390356063843 -0.25
      vertex -0.33487960696220398 -1.0657390356063843 0.25
    endloop
  endfacet
  facet normal -0.20345572104013157 0.97908414836317326 0
    outer loop
      vertex -0.06824241578578949 -1.0103312730789185 -0.25
      vertex -0.33487960696220398 -1.0657390356063843 0.25
      vertex -0.06824241578578949 -1.0103312730789185 0.25
    endloop
  endfacet
  facet normal -0.46006529067309865 0.88788508733837712 0
    outer loop
      vertex -0.33487960696220398 -1.0657390356063843 -0.25
      vertex -0.57668030261993408 -1.1910301446914673 -0.25
      vertex -0.57668030261993408 -1.1910301446914673 0.25
    endloop
  endfacet
  facet normal -0.46006529067309865 0.88788508733837712 0
    outer loop
      vertex -0.33487960696220398 -1.0657390356063843 -0.25
      vertex -0.57668030261993408 -1.1910301446914673 0.25
      vertex -0.33487960696220398 -1.0657390356063843 0.25
    endloop
  endfacet
  facet normal -0.68255290670620683 0.7308361851652585 -0
    outer loop
      vertex -0.57668030261993408 -1.1910301446914673 -0.25
      vertex -0.7757112979888916 -1.376911997795105 -0.25
      vertex -0.7757112979888916 -1.376911997795105 0.25
    endloop
  endfacet
  facet normal -0.68255290670620683 0.7308361851652585 0
    outer loop
      vertex -0.57668030261993408 -1.1910301446914673 -0.25
      vertex -0.7757112979888916 -1.376911997795105 0.25
      vertex -0.57668030261993408 -1.1910301446914673 0.25
    endloop
  endfacet
  facet normal -0.85441945094527949 0.51958387373586479 0
    outer loop
      vertex -0.7757112979888916 -1.376911997795105 -0.25
      vertex -0.91721129417419434 -1.6095988750457764 -0.25
      vertex -0.91721129417419434 -1.6095988750457764 0.25
    endloop
  endfacet
  facet normal -0.85441945094527949 0.51958387373586479 0
    outer loop
      vertex -0.7757112979888916 -1.376911997795105 -0.25
      vertex -0.91721129417419434 -1.6095988750457764 0.25
      vertex -0.7757112979888916 -1.376911997795105 0.25
    endloop
  endfacet
  facet normal -0.96291728862238535 0.26979676660796714 0
    outer loop
      vertex -0.91721129417419434 -1.6095988750457764 -0.25
      vertex -0.99068593978881836 -1.871833324432373 -0.25
      vertex -0.99068593978881836 -1.871833324432373 0.25
    endloop
  endfacet
  facet normal -0.96291728862238535 0.26979676660796714 0
    outer loop
      vertex -0.91721129417419434 -1.6095988750457764 -0.25
      vertex -0.99068593978881836 -1.871833324432373 0.25
      vertex -0.91721129417419434 -1.6095988750457764 0.25
    endloop
  endfacet
  facet normal -1 0 0
    outer loop
      vertex -0.99068593978881836 -1.871833324432373 -0.25
      vertex -0.99068593978881836 -2.1441667079925537 -0.25
      vertex -0.99068593978881836 -2.1441667079925537 0.25
    endloop
  endfacet
  facet normal -1 -0 0
    outer loop
      vertex -0.99068593978881836 -1.871833324432373 -0.25
      vertex -0.99068593978881836 -2.1441667079925537 0.25
      vertex -0.99068593978881836 -1.871833324432373 0.25
    endloop
  endfacet
  facet normal -0.96291728862238535 -0.26979676660796714 0
    outer loop
      vertex -0.99068593978881836 -2.1441667079925537 -0.25
      vertex -0.91721129417419434 -2.4064011573791504 -0.25
      vertex -0.91721129417419434 -2.4064011573791504 0.25
    endloop
  endfacet
  facet normal -0.96291728862238535 -0.26979676660796714 0
    outer loop
      vertex -0.99068593978881836 -2.1441667079925537 -0.25
      vertex -0.91721129417419434 -2.4064011573791504 0.25
      vertex -0.99068593978881836 -2.1441667079925537 0.25
    endloop
  endfacet
  facet normal -0.8544193327715599 -0.51958406806425694 0
    outer loop
      vertex -0.91721129417419434 -2.4064011573791504 -0.25
      vertex -0.7757112979888916 -2.6390879154205322 -0.25
      vertex -0.7757112979888916 -2.6390879154205322 0.25
    endloop
  endfacet
  facet normal -0.8544193327715599 -0.51958406806425694 -0
    outer loop
      vertex -0.91721129417419434 -2.4064011573791504 -0.25
      vertex -0.7757112979888916 -2.6390879154205322 0.25
      vertex -0.91721129417419434 -2.4064011573791504 0.25
    endloop
  endfacet
  facet normal -0.68255337431117546 -0.73083574845270705 0
    outer loop
      vertex -0.7757112979888916 -2.6390879154205322 -0.25
      vertex -0.57668030261993408 -2.824970006942749 -0.25
      vertex -0.57668030261993408 -2.824970006942749 0.25
    endloop
  endfacet
  facet normal -0.68255337431117546 -0.73083574845270705 0
    outer loop
      vertex -0.7757112979888916 -2.6390879154205322 -0.25
      vertex -0.57668030261993408 -2.824970006942749 0.25
      vertex -0.7757112979888916 -2.6390879154205322 0.25
    endloop
  endfacet
  facet normal -0.46006460050783526 -0.88788544495310096 0
    outer loop
      vertex -0.57668030261993408 -2.824970006942749 -0.25
      vertex -0.33487960696220398 -2.9502608776092529 -0.25
      vertex -0.33487960696220398 -2.9502608776092529 0.25
    endloop
  endfacet
  facet normal -0.46006460050783526 -0.88788544495310096 0
    outer loop
      vertex -0.57668030261993408 -2.824970006942749 -0.25
      vertex -0.33487960696220398 -2.9502608776092529 0.25
      vertex -0.57668030261993408 -2.824970006942749 0.25
    endloop
  endfacet
  facet normal -0.20345656026686826 -0.97908397396973768 0
    outer loop
      vertex -0.33487960696220398 -2.9502608776092529 -0.25
      vertex -0.06824241578578949 -3.0056688785552979 -0.25
      vertex -0.06824241578578949 -3.0056688785552979 0.25
    endloop
  endfacet
  facet normal -0.20345656026686826 -0.97908397396973768 0
    outer loop
      vertex -0.33487960696220398 -2.9502608776092529 -0.25
      vertex -0.06824241578578949 -3.0056688785552979 0.25
      vertex -0.33487960696220398 -2.9502608776092529 0.25
    endloop
  endfacet
  facet normal 0.06824258322601158 -0.9976687575716906 0
    outer loop
      vertex -0.06824241578578949 -3.0056688785552979 -0.25
      vertex 0.20345601439476013 -2.9870841503143311 -0.25
      vertex 0.20345601439476013 -2.9870841503143311 0.25
    endloop
  endfacet
  facet normal 0.06824258322601158 -0.9976687575716906 0
    outer loop
      vertex -0.06824241578578949 -3.0056688785552979 -0.25
      vertex 0.20345601439476013 -2.9870841503143311 0.25
      vertex -0.06824241578578949 -3.0056688785552979 0.25
    endloop
  endfacet
  facet normal 0.33487978383970307 -0.94226086110772622 0
    outer loop
      vertex 0.20345601439476013 -2.9870841503143311 -0.25
      vertex 0.46006503701210022 -2.8958852291107178 -0.25
      vertex 0.46006503701210022 -2.8958852291107178 0.25
    endloop
  endfacet
  facet normal 0.33487978383970307 -0.94226086110772622 0
    outer loop
      vertex 0.20345601439476013 -2.9870841503143311 -0.25
      vertex 0.46006503701210022 -2.8958852291107178 0.25
      vertex 0.20345601439476013 -2.9870841503143311 0.25
    endloop
  endfacet
  facet normal 0.57668008695997619 -0.81697005900083897 0
    outer loop
      vertex 0.46006503701210022 -2.8958852291107178 -0.25
      vertex 0.68255317211151123 -2.7388360500335693 -0.25
      vertex 0.68255317211151123 -2.7388360500335693 0.25
    endloop
  endfacet
  facet normal 0.57668008695997619 -0.81697005900083897 0
    outer loop
      vertex 0.46006503701210022 -2.8958852291107178 -0.25
      vertex 0.68255317211151123 -2.7388360500335693 0.25
      vertex 0.46006503701210022 -2.8958852291107178 0.25
    endloop
  endfacet
  facet normal 0.77571162240294933 -0.63108753661356987 -0
    outer loop
      vertex 0.68255317211151123 -2.7388360500335693 -0.25
      vertex 0.85441941022872925 -2.5275838375091553 -0.25
      vertex 0.85441941022872925 -2.5275838375091553 0.25
    endloop
  endfacet
  facet normal 0.77571162240294933 -0.63108753661356987 0
    outer loop
      vertex 0.68255317211151123 -2.7388360500335693 -0.25
      vertex 0.85441941022872925 -2.5275838375091553 0.25
      vertex 0.68255317211151123 -2.7388360500335693 0.25
    endloop
  endfacet
  facet normal 0.91721128420681008 -0.39840112967170954 -0
    outer loop
      vertex 0.85441941022872925 -2.5275838375091553 -0.25
      vertex 0.9629172682762146 -2.277796745300293 -0.25
      vertex 0.9629172682762146 -2.277796745300293 0.25
    endloop
  endfacet
  facet normal 0.91721128420681008 -0.39840112967170954 0
    outer loop
      vertex 0.85441941022872925 -2.5275838375091553 -0.25
      vertex 0.9629172682762146 -2.277796745300293 0.25
      vertex 0.85441941022872925 -2.5275838375091553 0.25
    endloop
  endfacet
  facet normal 0.99068594184131009 -0.13616667961728462 0
    outer loop
      vertex 0.9629172682762146 -2.277796745300293 -0.25
      vertex 1 -2.0079998970031738 -0.25
      vertex 1 -2.0079998970031738 0.25
    endloop
  endfacet
  facet normal 0.99068594184131009 -0.13616667961728462 0
    outer loop
      vertex 0.9629172682762146 -2.277796745300293 -0.25
      vertex 1 -2.0079998970031738 0.25
      vertex 0.9629172682762146 -2.277796745300293 0.25
    endloop
  endfacet
  facet normal -0 -0 -1
    outer loop
      vertex -0.7757112979888916 -2.6390879154205322 -0.25
      vertex -0.91721129417419434 -2.4064011573791504 -0.25
      vertex -0.99068593978881836 -2.1441667079925537 -0.25
    endloop
  endfacet
  facet normal 0 0 -1
    outer loop
      vertex -0.7757112979888916 -2.6390879154205322 -0.25
      vertex -0.06824241578578949 -3.0056688785552979 -0.25
      vertex -0.33487960696220398 -2.9502608776092529 -0.25
    endloop
  endfacet
  facet normal 0 -0 -1
    outer loop
      vertex -0.57668030261993408 -2.824970006942749 -0.25
      vertex -0.7757112979888916 -2.6390879154205322 -0.25
      vertex -0.33487960696220398 -2.9502608776092529 -0.25
    endloop
  endfacet
  facet normal -0 0 -1
    outer loop
      vertex -0.7757112979888916 -2.6390879154205322 -0.25
      vertex -0.91721129417419434 -1.6095988750457764 -0.25
      vertex -0.06824241578578949 -1.0103312730789185 -0.25
    endloop
  endfacet
  facet normal -0 0 -1
    outer loop
      vertex -0.99068593978881836 -1.871833324432373 -0.25
      vertex -0.91721129417419434 -1.6095988750457764 -0.25
      vertex -0.99068593978881836 -2.1441667079925537 -0.25
    endloop
  endfacet
  facet normal 0 0 -1
    outer loop
      vertex -0.91721129417419434 -1.6095988750457764 -0.25
      vertex -0.7757112979888916 -2.6390879154205322 -0.25
      vertex -0.99068593978881836 -2.1441667079925537 -0.25
    endloop
  endfacet
  facet normal 0 -0 -1
    outer loop
      vertex -0.7757112979888916 -1.376911997795105 -0.25
      vertex -0.57668030261993408 -1.1910301446914673 -0.25
      vertex -0.91721129417419434 -1.6095988750457764 -0.25
    endloop
  endfacet
  facet normal 0 -0 -1
    outer loop
      vertex -0.06824241578578949 -1.0103312730789185 -0.25
      vertex -0.57668030261993408 -1.1910301446914673 -0.25
      vertex -0.33487960696220398 -1.0657390356063843 -0.25
    endloop
  endfacet
  facet normal 0 -0 -1
    outer loop
      vertex -0.06824241578578949 -1.0103312730789185 -0.25
      vertex -0.91721129417419434 -1.6095988750457764 -0.25
      vertex -0.57668030261993408 -1.1910301446914673 -0.25
    endloop
  endfacet
  facet normal -0 -0 -1
    outer loop
      vertex -0.06824241578578949 -3.0056688785552979 -0.25
      vertex -0.7757112979888916 -2.6390879154205322 -0.25
      vertex -0.06824241578578949 -1.0103312730789185 -0.25
    endloop
  endfacet
  facet normal 0 -0 -1
    outer loop
      vertex -0.06824241578578949 -3.0056688785552979 -0.25
      vertex 0.68255317211151123 -2.7388360500335693 -0.25
      vertex 0.46006503701210022 -2.8958852291107178 -0.25
    endloop
  endfacet
  facet normal 0 -0 -1
    outer loop
      vertex 0.9629172682762146 -2.277796745300293 -0.25
      vertex 0.68255317211151123 -2.7388360500335693 -0.25
      vertex -0.06824241578578949 -3.0056688785552979 -0.25
    endloop
  endfacet
  facet normal -0 0 -1
    outer loop
      vertex -0.06824241578578949 -3.0056688785552979 -0.25
      vertex -0.06824241578578949 -1.0103312730789185 -0.25
      vertex 0.9629172682762146 -2.277796745300293 -0.25
    endloop
  endfacet
  facet normal 0 0 -1
    outer loop
      vertex 0.85441941022872925 -2.5275838375091553 -0.25
      vertex 0.68255317211151123 -2.7388360500335693 -0.25
      vertex 0.9629172682762146 -2.277796745300293 -0.25
    endloop
  endfacet
  facet normal 0 0 -1
    outer loop
      vertex 0.9629172682762146 -2.277796745300293 -0.25
      vertex 0.68255317211151123 -1.2771639823913574 -0.25
      vertex 1 -2.0079998970031738 -0.25
    endloop
  endfacet
  facet normal 0 0 -1
    outer loop
      vertex 0.46006503701210022 -1.120114803314209 -0.25
      vertex 0.68255317211151123 -1.2771639823913574 -0.25
      vertex 0.20345601439476013 -1.0289158821105957 -0.25
    endloop
  endfacet
  facet normal 0 0 -1
    outer loop
      vertex -0.06824241578578949 -1.0103312730789185 -0.25
      vertex 0.20345601439476013 -1.0289158821105957 -0.25
      vertex 0.68255317211151123 -1.2771639823913574 -0.25
    endloop
  endfacet
  facet normal -0 0 -1
    outer loop
      vertex -0.06824241578578949 -1.0103312730789185 -0.25
      vertex 0.68255317211151123 -1.2771639823913574 -0.25
      vertex 0.9629172682762146 -2.277796745300293 -0.25
    endloop
  endfacet
  facet normal -0 0 -1
    outer loop
      vertex 0.68255317211151123 -1.2771639823913574 -0.25
      vertex 0.85441941022872925 -1.4884160757064819 -0.25
      vertex 1 -2.0079998970031738 -0.25
    endloop
  endfacet
  facet normal -0 0 -1
    outer loop
      vertex 0.85441941022872925 -1.4884160757064819 -0.25
      vertex 0.9629172682762146 -1.7382032871246338 -0.25
      vertex 1 -2.0079998970031738 -0.25
    endloop
  endfacet
  facet normal 0 0 -1
    outer loop
      vertex 0.20345601439476013 -2.9870841503143311 -0.25
      vertex -0.06824241578578949 -3.0056688785552979 -0.25
      vertex 0.46006503701210022 -2.8958852291107178 -0.25
    endloop
  endfacet
  facet normal -0 -0 1
    outer loop
      vertex -0.7757112979888916 -2.6390879154205322 0.25
      vertex -0.99068593978881836 -2.1441667079925537 0.25
      vertex -0.91721129417419434 -2.4064011573791504 0.25
    endloop
  endfacet
  facet normal 0 0 1
    outer loop
      vertex -0.7757112979888916 -2.6390879154205322 0.25
      vertex -0.33487960696220398 -2.9502608776092529 0.25
      vertex -0.06824241578578949 -3.0056688785552979 0.25
    endloop
  endfacet
  facet normal 0 0 1
    outer loop
      vertex -0.57668030261993408 -2.824970006942749 0.25
      vertex -0.33487960696220398 -2.9502608776092529 0.25
      vertex -0.7757112979888916 -2.6390879154205322 0.25
    endloop
  endfacet
  facet normal -0 0 1
    outer loop
      vertex -0.7757112979888916 -2.6390879154205322 0.25
      vertex -0.06824241578578949 -1.0103312730789185 0.25
      vertex -0.91721129417419434 -1.6095988750457764 0.25
    endloop
  endfacet
  facet normal 0 -0 1
    outer loop
      vertex -0.99068593978881836 -1.871833324432373 0.25
      vertex -0.99068593978881836 -2.1441667079925537 0.25
      vertex -0.91721129417419434 -1.6095988750457764 0.25
    endloop
  endfacet
  facet normal 0 0 1
    outer loop
      vertex -0.91721129417419434 -1.6095988750457764 0.25
      vertex -0.99068593978881836 -2.1441667079925537 0.25
      vertex -0.7757112979888916 -2.6390879154205322 0.25
    endloop
  endfacet
  facet normal 0 -0 1
    outer loop
      vertex -0.7757112979888916 -1.376911997795105 0.25
      vertex -0.91721129417419434 -1.6095988750457764 0.25
      vertex -0.57668030261993408 -1.1910301446914673 0.25
    endloop
  endfacet
  facet normal 0 -0 1
    outer loop
      vertex -0.06824241578578949 -1.0103312730789185 0.25
      vertex -0.33487960696220398 -1.0657390356063843 0.25
      vertex -0.57668030261993408 -1.1910301446914673 0.25
    endloop
  endfacet
  facet normal 0 -0 1
    outer loop
      vertex -0.06824241578578949 -1.0103312730789185 0.25
      vertex -0.57668030261993408 -1.1910301446914673 0.25
      vertex -0.91721129417419434 -1.6095988750457764 0.25
    endloop
  endfacet
  facet normal -0 -0 1
    outer loop
      vertex -0.06824241578578949 -3.0056688785552979 0.25
      vertex -0.06824241578578949 -1.0103312730789185 0.25
      vertex -0.7757112979888916 -2.6390879154205322 0.25
    endloop
  endfacet
  facet normal 0 -0 1
    outer loop
      vertex -0.06824241578578949 -3.0056688785552979 0.25
      vertex 0.46006503701210022 -2.8958852291107178 0.25
      vertex 0.68255317211151123 -2.7388360500335693 0.25
    endloop
  endfacet
  facet normal 0 -0 1
    outer loop
      vertex 0.9629172682762146 -2.277796745300293 0.25
      vertex -0.06824241578578949 -3.0056688785552979 0.25
      vertex 0.68255317211151123 -2.7388360500335693 0.25
    endloop
  endfacet
  facet normal -0 0 1
    outer loop
      vertex -0.06824241578578949 -3.0056688785552979 0.25
      vertex 0.9629172682762146 -2.277796745300293 0.25
      vertex -0.06824241578578949 -1.0103312730789185 0.25
    endloop
  endfacet
  facet normal 0 0 1
    outer loop
      vertex 0.85441941022872925 -2.5275838375091553 0.25
      vertex 0.9629172682762146 -2.277796745300293 0.25
      vertex 0.68255317211151123 -2.7388360500335693 0.25
    endloop
  endfacet
  facet normal 0 0 1
    outer loop
      vertex 0.9629172682762146 -2.277796745300293 0.25
      vertex 1 -2.0079998970031738 0.25
      vertex 0.68255317211151123 -1.2771639823913574 0.25
    endloop
  endfacet
  facet normal -0 -0 1
    outer loop
      vertex 0.46006503701210022 -1.120114803314209 0.25
      vertex 0.20345601439476013 -1.0289158821105957 0.25
      vertex 0.68255317211151123 -1.2771639823913574 0.25
    endloop
  endfacet
  facet normal 0 0 1
    outer loop
      vertex -0.06824241578578949 -1.0103312730789185 0.25
      vertex 0.68255317211151123 -1.2771639823913574 0.25
      vertex 0.20345601439476013 -1.0289158821105957 0.25
    endloop
  endfacet
  facet normal -0 0 1
    outer loop
      vertex -0.06824241578578949 -1.0103312730789185 0.25
      vertex 0.9629172682762146 -2.277796745300293 0.25
      vertex 0.68255317211151123 -1.2771639823913574 0.25
    endloop
  endfacet
  facet normal -0 0 1
    outer loop
      vertex 0.68255317211151123 -1.2771639823913574 0.25
      vertex 1 -2.0079998970031738 0.25
      vertex 0.85441941022872925 -1.4884160757064819 0.25
    endloop
  endfacet
  facet normal -0 0 1
    outer loop
      vertex 0.85441941022872925 -1.4884160757064819 0.25
      vertex 1 -2.0079998970031738 0.25
      vertex 0.9629172682762146 -1.7382032871246338 0.25
    endloop
  endfacet
  facet normal 0 0 1
    outer loop
      vertex 0.20345601439476013 -2.9870841503143311 0.25
      vertex 0.46006503701210022 -2.8958852291107178 0.25
      vertex -0.06824241578578949 -3.0056688785552979 0.25
    endloop
  endfacet
endsolid OBJECT
