solid OBJECT
  facet normal -1 -0 0
    outer loop
      vertex -1 0.49200001358985901 6
      vertex -1 0.49200001358985901 5.5
      vertex -1 -8.508000373840332 5.5
    endloop
  endfacet
  facet normal -1 0 -0
    outer loop
      vertex -1 0.49200001358985901 6
      vertex -1 -8.508000373840332 5.5
      vertex -1 -8.508000373840332 6
    endloop
  endfacet
  facet normal -0 -0 -1
    outer loop
      vertex -1 0.49200001358985901 5.5
      vertex 1 0.49200001358985901 5.5
      vertex 1 -8.508000373840332 5.5
    endloop
  endfacet
  facet normal 0 0 -1
    outer loop
      vertex -1 0.49200001358985901 5.5
      vertex 1 -8.508000373840332 5.5
      vertex -1 -8.508000373840332 5.5
    endloop
  endfacet
  facet normal 1 0 0
    outer loop
      vertex 1 0.49200001358985901 5.5
      vertex 1 0.49200001358985901 6
      vertex 1 -8.508000373840332 6
    endloop
  endfacet
  facet normal 1 0 -0
    outer loop
      vertex 1 0.49200001358985901 5.5
      vertex 1 -8.508000373840332 6
      vertex 1 -8.508000373840332 5.5
    endloop
  endfacet
  facet normal -0 0 1
    outer loop
      vertex 1 0.49200001358985901 6
      vertex -1 0.49200001358985901 6
      vertex -1 -8.508000373840332 6
    endloop
  endfacet
  facet normal 0 0 1
    outer loop
      vertex 1 0.49200001358985901 6
      vertex -1 -8.508000373840332 6
      vertex 1 -8.508000373840332 6
    endloop
  endfacet
  facet normal -0 1 -0
    outer loop
      vertex -1 0.49200001358985901 6
      vertex 1 0.49200001358985901 6
      vertex 1 0.49200001358985901 5.5
    endloop
  endfacet
  facet normal 0 1 0
    outer loop
      vertex 1 0.49200001358985901 5.5
      vertex -1 0.49200001358985901 5.5
      vertex -1 0.49200001358985901 6
    endloop
  endfacet
  facet normal 0 -1 -0
    outer loop
      vertex -1 -8.508000373840332 6
      vertex 1 -8.508000373840332 5.5
      vertex 1 -8.508000373840332 6
    endloop
  endfacet
  facet normal 0 -1 0
    outer loop
      vertex 1 -8.508000373840332 5.5
      vertex -1 -8.508000373840332 6
      vertex -1 -8.508000373840332 5.5
    endloop
  endfacet
  facet normal -0 -0 -1
    outer loop
      vertex -1 0.49200001358985901 -6
      vertex 1 0.49200001358985901 -6
      vertex 1 -8.508000373840332 -6
    endloop
  endfacet
  facet normal 0 0 -1
    outer loop
      vertex -1 0.49200001358985901 -6
      vertex 1 -8.508000373840332 -6
      vertex -1 -8.508000373840332 -6
    endloop
  endfacet
  facet normal 1 0 0
    outer loop
      vertex 1 0.49200001358985901 -6
      vertex 1 0.49200001358985901 -5.5
      vertex 1 -8.508000373840332 -5.5
    endloop
  endfacet
  facet normal 1 0 -0
    outer loop
      vertex 1 0.49200001358985901 -6
      vertex 1 -8.508000373840332 -5.5
      vertex 1 -8.508000373840332 -6
    endloop
  endfacet
  facet normal -0 0 1
    outer loop
      vertex 1 0.49200001358985901 -5.5
      vertex -1 0.49200001358985901 -5.5
      vertex -1 -8.508000373840332 -5.5
    endloop
  endfacet
  facet normal 0 0 1
    outer loop
      vertex 1 0.49200001358985901 -5.5
      vertex -1 -8.508000373840332 -5.5
      vertex 1 -8.508000373840332 -5.5
    endloop
  endfacet
  facet normal -1 -0 0
    outer loop
      vertex -1 0.49200001358985901 -5.5
      vertex -1 0.49200001358985901 -6
      vertex -1 -8.508000373840332 -6
    endloop
  endfacet
  facet normal -1 0 -0
    outer loop
      vertex -1 0.49200001358985901 -5.5
      vertex -1 -8.508000373840332 -6
      vertex -1 -8.508000373840332 -5.5
    endloop
  endfacet
  facet normal 0 1 0
    outer loop
      vertex 1 0.49200001358985901 -6
      vertex -1 0.49200001358985901 -6
      vertex -1 0.49200001358985901 -5.5
    endloop
  endfacet
  facet normal -0 1 -0
    outer loop
      vertex -1 0.49200001358985901 -5.5
      vertex 1 0.49200001358985901 -5.5
      vertex 1 0.49200001358985901 -6
    endloop
  endfacet
  facet normal 0 -1 0
    outer loop
      vertex 1 -8.508000373840332 -6
      vertex -1 -8.508000373840332 -5.5
      vertex -1 -8.508000373840332 -6
    endloop
  endfacet
  facet normal 0 -1 -0
    outer loop
      vertex -1 -8.508000373840332 -5.5
      vertex 1 -8.508000373840332 -6
      vertex 1 -8.508000373840332 -5.5
    endloop
  endfacet
  facet normal 0.98078526300731028 -0.19509040947130488 0
    outer loop
      vertex 0.5 -0.50800001621246338 6
      vertex 0.46193975210189819 -0.69934171438217163 6
      vertex 0.46193975210189819 -0.69934171438217163 -6
    endloop
  endfacet
  facet normal 0.98078526300731028 -0.19509040947130488 0
    outer loop
      vertex 0.5 -0.50800001621246338 6
      vertex 0.46193975210189819 -0.69934171438217163 -6
      vertex 0.5 -0.50800001621246338 -6
    endloop
  endfacet
  facet normal 0.8314696032632134 -0.5555702465479182 0
    outer loop
      vertex 0.46193975210189819 -0.69934171438217163 6
      vertex 0.35355338454246521 -0.8615533709526062 6
      vertex 0.35355338454246521 -0.8615533709526062 -6
    endloop
  endfacet
  facet normal 0.8314696032632134 -0.5555702465479182 0
    outer loop
      vertex 0.46193975210189819 -0.69934171438217163 6
      vertex 0.35355338454246521 -0.8615533709526062 -6
      vertex 0.46193975210189819 -0.69934171438217163 -6
    endloop
  endfacet
  facet normal 0.55557031687507763 -0.83146955627210184 -0
    outer loop
      vertex 0.35355338454246521 -0.8615533709526062 6
      vertex 0.19134171307086945 -0.96993976831436157 6
      vertex 0.19134171307086945 -0.96993976831436157 -6
    endloop
  endfacet
  facet normal 0.55557031687507763 -0.83146955627210184 0
    outer loop
      vertex 0.35355338454246521 -0.8615533709526062 6
      vertex 0.19134171307086945 -0.96993976831436157 -6
      vertex 0.35355338454246521 -0.8615533709526062 -6
    endloop
  endfacet
  facet normal 0.19509039485645896 -0.98078526591438508 -0
    outer loop
      vertex 0.19134171307086945 -0.96993976831436157 6
      vertex 0 -1.0080000162124634 6
      vertex 0 -1.0080000162124634 -6
    endloop
  endfacet
  facet normal 0.19509039485645896 -0.98078526591438508 0
    outer loop
      vertex 0.19134171307086945 -0.96993976831436157 6
      vertex 0 -1.0080000162124634 -6
      vertex 0.19134171307086945 -0.96993976831436157 -6
    endloop
  endfacet
  facet normal -0.19509039485645896 -0.98078526591438508 -0
    outer loop
      vertex 0 -1.0080000162124634 6
      vertex -0.19134171307086945 -0.96993976831436157 6
      vertex -0.19134171307086945 -0.96993976831436157 -6
    endloop
  endfacet
  facet normal -0.19509039485645896 -0.98078526591438508 0
    outer loop
      vertex 0 -1.0080000162124634 6
      vertex -0.19134171307086945 -0.96993976831436157 -6
      vertex 0 -1.0080000162124634 -6
    endloop
  endfacet
  facet normal -0.55557031687507763 -0.83146955627210184 -0
    outer loop
      vertex -0.19134171307086945 -0.96993976831436157 6
      vertex -0.35355338454246521 -0.8615533709526062 6
      vertex -0.35355338454246521 -0.8615533709526062 -6
    endloop
  endfacet
  facet normal -0.55557031687507763 -0.83146955627210184 0
    outer loop
      vertex -0.19134171307086945 -0.96993976831436157 6
      vertex -0.35355338454246521 -0.8615533709526062 -6
      vertex -0.19134171307086945 -0.96993976831436157 -6
    endloop
  endfacet
  facet normal -0.8314696032632134 -0.5555702465479182 -0
    outer loop
      vertex -0.35355338454246521 -0.8615533709526062 6
      vertex -0.46193975210189819 -0.69934171438217163 6
      vertex -0.46193975210189819 -0.69934171438217163 -6
    endloop
  endfacet
  facet normal -0.8314696032632134 -0.5555702465479182 0
    outer loop
      vertex -0.35355338454246521 -0.8615533709526062 6
      vertex -0.46193975210189819 -0.69934171438217163 -6
      vertex -0.35355338454246521 -0.8615533709526062 -6
    endloop
  endfacet
  facet normal -0.98078526300731028 -0.19509040947130488 -0
    outer loop
      vertex -0.46193975210189819 -0.69934171438217163 6
      vertex -0.5 -0.50800001621246338 6
      vertex -0.5 -0.50800001621246338 -6
    endloop
  endfacet
  facet normal -0.98078526300731028 -0.19509040947130488 0
    outer loop
      vertex -0.46193975210189819 -0.69934171438217163 6
      vertex -0.5 -0.50800001621246338 -6
      vertex -0.46193975210189819 -0.69934171438217163 -6
    endloop
  endfacet
  facet normal -0.98078526882145922 0.19509038024161521 -0
    outer loop
      vertex -0.5 -0.50800001621246338 6
      vertex -0.46193975210189819 -0.31665828824043274 6
      vertex -0.46193975210189819 -0.31665828824043274 -6
    endloop
  endfacet
  facet normal -0.98078526882145922 0.19509038024161521 0
    outer loop
      vertex -0.5 -0.50800001621246338 6
      vertex -0.46193975210189819 -0.31665828824043274 -6
      vertex -0.5 -0.50800001621246338 -6
    endloop
  endfacet
  facet normal -0.83146962683879133 0.55557021126457207 -0
    outer loop
      vertex -0.46193975210189819 -0.31665828824043274 6
      vertex -0.35355338454246521 -0.15444661676883698 6
      vertex -0.35355338454246521 -0.15444661676883698 -6
    endloop
  endfacet
  facet normal -0.83146962683879133 0.55557021126457207 0
    outer loop
      vertex -0.46193975210189819 -0.31665828824043274 6
      vertex -0.35355338454246521 -0.15444661676883698 -6
      vertex -0.46193975210189819 -0.31665828824043274 -6
    endloop
  endfacet
  facet normal -0.55557026406982812 0.83146959155544653 0
    outer loop
      vertex -0.35355338454246521 -0.15444661676883698 6
      vertex -0.19134171307086945 -0.046060234308242798 6
      vertex -0.19134171307086945 -0.046060234308242798 -6
    endloop
  endfacet
  facet normal -0.55557026406982812 0.83146959155544653 0
    outer loop
      vertex -0.35355338454246521 -0.15444661676883698 6
      vertex -0.19134171307086945 -0.046060234308242798 -6
      vertex -0.35355338454246521 -0.15444661676883698 -6
    endloop
  endfacet
  facet normal -0.19509032597480935 0.98078527961579975 0
    outer loop
      vertex -0.19134171307086945 -0.046060234308242798 6
      vertex 0 -0.0080000003799796104 6
      vertex 0 -0.0080000003799796104 -6
    endloop
  endfacet
  facet normal -0.19509032597480935 0.98078527961579975 0
    outer loop
      vertex -0.19134171307086945 -0.046060234308242798 6
      vertex 0 -0.0080000003799796104 -6
      vertex -0.19134171307086945 -0.046060234308242798 -6
    endloop
  endfacet
  facet normal 0.19509032597480935 0.98078527961579975 0
    outer loop
      vertex 0 -0.0080000003799796104 6
      vertex 0.19134171307086945 -0.046060234308242798 6
      vertex 0.19134171307086945 -0.046060234308242798 -6
    endloop
  endfacet
  facet normal 0.19509032597480935 0.98078527961579975 0
    outer loop
      vertex 0 -0.0080000003799796104 6
      vertex 0.19134171307086945 -0.046060234308242798 -6
      vertex 0 -0.0080000003799796104 -6
    endloop
  endfacet
  facet normal 0.55557026406982812 0.83146959155544653 0
    outer loop
      vertex 0.19134171307086945 -0.046060234308242798 6
      vertex 0.35355338454246521 -0.15444661676883698 6
      vertex 0.35355338454246521 -0.15444661676883698 -6
    endloop
  endfacet
  facet normal 0.55557026406982812 0.83146959155544653 -0
    outer loop
      vertex 0.19134171307086945 -0.046060234308242798 6
      vertex 0.35355338454246521 -0.15444661676883698 -6
      vertex 0.19134171307086945 -0.046060234308242798 -6
    endloop
  endfacet
  facet normal 0.83146962683879133 0.55557021126457207 0
    outer loop
      vertex 0.35355338454246521 -0.15444661676883698 6
      vertex 0.46193975210189819 -0.31665828824043274 6
      vertex 0.46193975210189819 -0.31665828824043274 -6
    endloop
  endfacet
  facet normal 0.83146962683879133 0.55557021126457207 0
    outer loop
      vertex 0.35355338454246521 -0.15444661676883698 6
      vertex 0.46193975210189819 -0.31665828824043274 -6
      vertex 0.35355338454246521 -0.15444661676883698 -6
    endloop
  endfacet
  facet normal 0.98078526882145922 0.19509038024161521 0
    outer loop
      vertex 0.46193975210189819 -0.31665828824043274 6
      vertex 0.5 -0.50800001621246338 6
      vertex 0.5 -0.50800001621246338 -6
    endloop
  endfacet
  facet normal 0.98078526882145922 0.19509038024161521 0
    outer loop
      vertex 0.46193975210189819 -0.31665828824043274 6
      vertex 0.5 -0.50800001621246338 -6
      vertex 0.46193975210189819 -0.31665828824043274 -6
    endloop
  endfacet
  facet normal 0 -0 1
    outer loop
      vertex -0.19134171307086945 -0.046060234308242798 6
      vertex -0.35355338454246521 -0.15444661676883698 6
      vertex -0.46193975210189819 -0.31665828824043274 6
    endloop
  endfacet
  facet normal -0 0 1
    outer loop
      vertex -0.5 -0.50800001621246338 6
      vertex -0.19134171307086945 -0.046060234308242798 6
      vertex -0.46193975210189819 -0.31665828824043274 6
    endloop
  endfacet
  facet normal -0 0 1
    outer loop
      vertex -0.5 -0.50800001621246338 6
      vertex 0.19134171307086945 -0.046060234308242798 6
      vertex -0.19134171307086945 -0.046060234308242798 6
    endloop
  endfacet
  facet normal 0 0 1
    outer loop
      vertex -0.35355338454246521 -0.8615533709526062 6
      vertex -0.5 -0.50800001621246338 6
      vertex -0.46193975210189819 -0.69934171438217163 6
    endloop
  endfacet
  facet normal 0 0 1
    outer loop
      vertex -0.5 -0.50800001621246338 6
      vertex -0.35355338454246521 -0.8615533709526062 6
      vertex -0.19134171307086945 -0.96993976831436157 6
    endloop
  endfacet
  facet normal 0 -0 1
    outer loop
      vertex 0.19134171307086945 -0.046060234308242798 6
      vertex -0.5 -0.50800001621246338 6
      vertex -0.19134171307086945 -0.96993976831436157 6
    endloop
  endfacet
  facet normal -0 -0 1
    outer loop
      vertex 0.19134171307086945 -0.046060234308242798 6
      vertex 0 -0.0080000003799796104 6
      vertex -0.19134171307086945 -0.046060234308242798 6
    endloop
  endfacet
  facet normal 0 0 1
    outer loop
      vertex 0.35355338454246521 -0.15444661676883698 6
      vertex 0.19134171307086945 -0.046060234308242798 6
      vertex 0.46193975210189819 -0.69934171438217163 6
    endloop
  endfacet
  facet normal 0 0 1
    outer loop
      vertex 0.35355338454246521 -0.15444661676883698 6
      vertex 0.5 -0.50800001621246338 6
      vertex 0.46193975210189819 -0.31665828824043274 6
    endloop
  endfacet
  facet normal -0 0 1
    outer loop
      vertex 0.5 -0.50800001621246338 6
      vertex 0.35355338454246521 -0.15444661676883698 6
      vertex 0.46193975210189819 -0.69934171438217163 6
    endloop
  endfacet
  facet normal 0 -0 1
    outer loop
      vertex 0.19134171307086945 -0.96993976831436157 6
      vertex -0.19134171307086945 -0.96993976831436157 6
      vertex 0 -1.0080000162124634 6
    endloop
  endfacet
  facet normal -0 0 1
    outer loop
      vertex 0.19134171307086945 -0.96993976831436157 6
      vertex 0.35355338454246521 -0.8615533709526062 6
      vertex 0.46193975210189819 -0.69934171438217163 6
    endloop
  endfacet
  facet normal 0 0 1
    outer loop
      vertex -0.19134171307086945 -0.96993976831436157 6
      vertex 0.19134171307086945 -0.96993976831436157 6
      vertex 0.46193975210189819 -0.69934171438217163 6
    endloop
  endfacet
  facet normal -0 0 1
    outer loop
      vertex 0.19134171307086945 -0.046060234308242798 6
      vertex -0.19134171307086945 -0.96993976831436157 6
      vertex 0.46193975210189819 -0.69934171438217163 6
    endloop
  endfacet
  facet normal 0 -0 -1
    outer loop
      vertex -0.19134171307086945 -0.046060234308242798 -6
      vertex -0.46193975210189819 -0.31665828824043274 -6
      vertex -0.35355338454246521 -0.15444661676883698 -6
    endloop
  endfacet
  facet normal -0 0 -1
    outer loop
      vertex -0.5 -0.50800001621246338 -6
      vertex -0.46193975210189819 -0.31665828824043274 -6
      vertex -0.19134171307086945 -0.046060234308242798 -6
    endloop
  endfacet
  facet normal -0 0 -1
    outer loop
      vertex -0.5 -0.50800001621246338 -6
      vertex -0.19134171307086945 -0.046060234308242798 -6
      vertex 0.19134171307086945 -0.046060234308242798 -6
    endloop
  endfacet
  facet normal 0 0 -1
    outer loop
      vertex -0.35355338454246521 -0.8615533709526062 -6
      vertex -0.46193975210189819 -0.69934171438217163 -6
      vertex -0.5 -0.50800001621246338 -6
    endloop
  endfacet
  facet normal 0 0 -1
    outer loop
      vertex -0.5 -0.50800001621246338 -6
      vertex -0.19134171307086945 -0.96993976831436157 -6
      vertex -0.35355338454246521 -0.8615533709526062 -6
    endloop
  endfacet
  facet normal 0 -0 -1
    outer loop
      vertex 0.19134171307086945 -0.046060234308242798 -6
      vertex -0.19134171307086945 -0.96993976831436157 -6
      vertex -0.5 -0.50800001621246338 -6
    endloop
  endfacet
  facet normal -0 -0 -1
    outer loop
      vertex 0.19134171307086945 -0.046060234308242798 -6
      vertex -0.19134171307086945 -0.046060234308242798 -6
      vertex 0 -0.0080000003799796104 -6
    endloop
  endfacet
  facet normal 0 0 -1
    outer loop
      vertex 0.35355338454246521 -0.15444661676883698 -6
      vertex 0.46193975210189819 -0.69934171438217163 -6
      vertex 0.19134171307086945 -0.046060234308242798 -6
    endloop
  endfacet
  facet normal 0 0 -1
    outer loop
      vertex 0.35355338454246521 -0.15444661676883698 -6
      vertex 0.46193975210189819 -0.31665828824043274 -6
      vertex 0.5 -0.50800001621246338 -6
    endloop
  endfacet
  facet normal 0 0 -1
    outer loop
      vertex 0.5 -0.50800001621246338 -6
      vertex 0.46193975210189819 -0.69934171438217163 -6
      vertex 0.35355338454246521 -0.15444661676883698 -6
    endloop
  endfacet
  facet normal 0 -0 -1
    outer loop
      vertex 0.19134171307086945 -0.96993976831436157 -6
      vertex 0 -1.0080000162124634 -6
      vertex -0.19134171307086945 -0.96993976831436157 -6
    endloop
  endfacet
  facet normal -0 0 -1
    outer loop
      vertex 0.19134171307086945 -0.96993976831436157 -6
      vertex 0.46193975210189819 -0.69934171438217163 -6
      vertex 0.35355338454246521 -0.8615533709526062 -6
    endloop
  endfacet
  facet normal 0 0 -1
    outer loop
      vertex -0.19134171307086945 -0.96993976831436157 -6
      vertex 0.46193975210189819 -0.69934171438217163 -6
      vertex 0.19134171307086945 -0.96993976831436157 -6
    endloop
  endfacet
  facet normal -0 0 -1
    outer loop
      vertex 0.19134171307086945 -0.046060234308242798 -6
      vertex 0.46193975210189819 -0.69934171438217163 -6
      vertex -0.19134171307086945 -0.96993976831436157 -6
    endloop
  endfacet
endsolid OBJECT
