solid OBJECT
  facet normal 0 1 0
    outer loop
      vertex 0.22176145017147064 0 0.048572588711977005
      vertex 0.094239145517349243 0 0.048572588711977005
      vertex 0.094239145517349243 0 0.072858884930610657
    endloop
  endfacet
  facet normal 0 1 0
    outer loop
      vertex 0.22176145017147064 0 0.048572588711977005
      vertex 0.094239145517349243 0 0.072858884930610657
      vertex 0.22176145017147064 0 0.072858884930610657
    endloop
  endfacet
  facet normal -0 1 0
    outer loop
      vertex 0.094239145517349243 0 0.012143147177994251
      vertex 0.094239145517349243 0 0.024286294355988503
      vertex 0.22176145017147064 0 0.024286294355988503
    endloop
  endfacet
  facet normal 0 1 0
    outer loop
      vertex 0.22176145017147064 0 8.6736173798840355e-18
      vertex 0.094239145517349243 0 8.6736173798840355e-19
      vertex 0.094239145517349243 0 0.012143147177994251
    endloop
  endfacet
  facet normal 0 1 -0
    outer loop
      vertex 0.22176145017147064 0 0.024286294355988503
      vertex 0.22176145017147064 0 8.6736173798840355e-18
      vertex 0.094239145517349243 0 0.012143147177994251
    endloop
  endfacet
  facet normal -0 1 0
    outer loop
      vertex 0.030477998778223991 0 0.0060715735889971256
      vertex 0.030477998778223991 0 0.012143147177994251
      vertex 0.094239145517349243 0 0.012143147177994251
    endloop
  endfacet
  facet normal 0 1 0
    outer loop
      vertex 0.094239145517349243 0 8.6736173798840355e-19
      vertex 0.030477998778223991 0 7.3725747729014302e-18
      vertex 0.030477998778223991 0 0.0060715735889971256
    endloop
  endfacet
  facet normal 0 1 -0
    outer loop
      vertex 0.094239145517349243 0 0.012143147177994251
      vertex 0.094239145517349243 0 8.6736173798840355e-19
      vertex 0.030477998778223991 0 0.0060715735889971256
    endloop
  endfacet
  facet normal -0 1 0
    outer loop
      vertex -0.0014025749405846 0 0.0030357867944985628
      vertex -0.0014025749405846 0 0.0060715735889971256
      vertex 0.030477998778223991 0 0.0060715735889971256
    endloop
  endfacet
  facet normal 0 1 0
    outer loop
      vertex 0.030477998778223991 0 7.3725747729014302e-18
      vertex -0.0014025749405846 0 7.1557343384043293e-18
      vertex -0.0014025749405846 0 0.0030357867944985628
    endloop
  endfacet
  facet normal 0 1 -0
    outer loop
      vertex 0.030477998778223991 0 0.0060715735889971256
      vertex 0.030477998778223991 0 7.3725747729014302e-18
      vertex -0.0014025749405846 0 0.0030357867944985628
    endloop
  endfacet
  facet normal 0 1 0
    outer loop
      vertex -0.0014025749405846 0 7.1557343384043293e-18
      vertex -0.017342861741781235 0 7.0473141211557788e-18
      vertex -0.017342861741781235 0 0.0030357867944985628
    endloop
  endfacet
  facet normal 0 1 0
    outer loop
      vertex -0.0014025749405846 0 7.1557343384043293e-18
      vertex -0.017342861741781235 0 0.0030357867944985628
      vertex -0.0014025749405846 0 0.0030357867944985628
    endloop
  endfacet
  facet normal -0 1 0
    outer loop
      vertex -0.017342861741781235 0 0.004553680308163166
      vertex -0.017342861741781235 0 0.0060715735889971256
      vertex -0.0014025749405846 0 0.0060715735889971256
    endloop
  endfacet
  facet normal 0 1 0
    outer loop
      vertex -0.0014025749405846 0 0.0030357867944985628
      vertex -0.017342861741781235 0 0.0030357867944985628
      vertex -0.017342861741781235 0 0.004553680308163166
    endloop
  endfacet
  facet normal 0 1 -0
    outer loop
      vertex -0.0014025749405846 0 0.0060715735889971256
      vertex -0.0014025749405846 0 0.0030357867944985628
      vertex -0.017342861741781235 0 0.004553680308163166
    endloop
  endfacet
  facet normal 0 1 0
    outer loop
      vertex -0.0014025749405846 0 0.0060715735889971256
      vertex -0.017342861741781235 0 0.0060715735889971256
      vertex -0.017342861741781235 0 0.0091073606163263321
    endloop
  endfacet
  facet normal 0 1 0
    outer loop
      vertex -0.0014025749405846 0 0.0060715735889971256
      vertex -0.017342861741781235 0 0.0091073606163263321
      vertex -0.0014025749405846 0 0.0091073606163263321
    endloop
  endfacet
  facet normal 0 1 0
    outer loop
      vertex -0.0014025749405846 0 0.0091073606163263321
      vertex -0.017342861741781235 0 0.0091073606163263321
      vertex -0.017342861741781235 0 0.012143147177994251
    endloop
  endfacet
  facet normal 0 1 0
    outer loop
      vertex -0.0014025749405846 0 0.0091073606163263321
      vertex -0.017342861741781235 0 0.012143147177994251
      vertex -0.0014025749405846 0 0.012143147177994251
    endloop
  endfacet
  facet normal -0 1 0
    outer loop
      vertex -0.0014025749405846 0 0.0091073606163263321
      vertex -0.0014025749405846 0 0.012143147177994251
      vertex 0.030477998778223991 0 0.012143147177994251
    endloop
  endfacet
  facet normal 0 1 0
    outer loop
      vertex 0.030477998778223991 0 0.0060715735889971256
      vertex -0.0014025749405846 0 0.0060715735889971256
      vertex -0.0014025749405846 0 0.0091073606163263321
    endloop
  endfacet
  facet normal 0 1 -0
    outer loop
      vertex 0.030477998778223991 0 0.012143147177994251
      vertex 0.030477998778223991 0 0.0060715735889971256
      vertex -0.0014025749405846 0 0.0091073606163263321
    endloop
  endfacet
  facet normal 0 1 0
    outer loop
      vertex 0.030477998778223991 0 0.012143147177994251
      vertex -0.0014025749405846 0 0.012143147177994251
      vertex -0.0014025749405846 0 0.018214721232652664
    endloop
  endfacet
  facet normal 0 1 0
    outer loop
      vertex 0.030477998778223991 0 0.012143147177994251
      vertex -0.0014025749405846 0 0.018214721232652664
      vertex 0.030477998778223991 0 0.018214721232652664
    endloop
  endfacet
  facet normal 0 1 0
    outer loop
      vertex 0.030477998778223991 0 0.018214721232652664
      vertex -0.0014025749405846 0 0.018214721232652664
      vertex -0.0014025749405846 0 0.024286294355988503
    endloop
  endfacet
  facet normal 0 1 0
    outer loop
      vertex 0.030477998778223991 0 0.018214721232652664
      vertex -0.0014025749405846 0 0.024286294355988503
      vertex 0.030477998778223991 0 0.024286294355988503
    endloop
  endfacet
  facet normal -0 1 0
    outer loop
      vertex 0.030477998778223991 0 0.018214721232652664
      vertex 0.030477998778223991 0 0.024286294355988503
      vertex 0.094239145517349243 0 0.024286294355988503
    endloop
  endfacet
  facet normal 0 1 0
    outer loop
      vertex 0.094239145517349243 0 0.012143147177994251
      vertex 0.030477998778223991 0 0.012143147177994251
      vertex 0.030477998778223991 0 0.018214721232652664
    endloop
  endfacet
  facet normal 0 1 -0
    outer loop
      vertex 0.094239145517349243 0 0.024286294355988503
      vertex 0.094239145517349243 0 0.012143147177994251
      vertex 0.030477998778223991 0 0.018214721232652664
    endloop
  endfacet
  facet normal 0 1 0
    outer loop
      vertex 0.094239145517349243 0 0.024286294355988503
      vertex 0.030477998778223991 0 0.024286294355988503
      vertex 0.030477998778223991 0 0.036429442465305328
    endloop
  endfacet
  facet normal 0 1 0
    outer loop
      vertex 0.094239145517349243 0 0.024286294355988503
      vertex 0.030477998778223991 0 0.036429442465305328
      vertex 0.094239145517349243 0 0.036429442465305328
    endloop
  endfacet
  facet normal 0 1 0
    outer loop
      vertex 0.094239145517349243 0 0.036429442465305328
      vertex 0.030477998778223991 0 0.036429442465305328
      vertex 0.030477998778223991 0 0.048572588711977005
    endloop
  endfacet
  facet normal 0 1 0
    outer loop
      vertex 0.094239145517349243 0 0.036429442465305328
      vertex 0.030477998778223991 0 0.048572588711977005
      vertex 0.094239145517349243 0 0.048572588711977005
    endloop
  endfacet
  facet normal -0 1 0
    outer loop
      vertex 0.094239145517349243 0 0.036429442465305328
      vertex 0.094239145517349243 0 0.048572588711977005
      vertex 0.22176145017147064 0 0.048572588711977005
    endloop
  endfacet
  facet normal 0 1 0
    outer loop
      vertex 0.22176145017147064 0 0.024286294355988503
      vertex 0.094239145517349243 0 0.024286294355988503
      vertex 0.094239145517349243 0 0.036429442465305328
    endloop
  endfacet
  facet normal 0 1 -0
    outer loop
      vertex 0.22176145017147064 0 0.048572588711977005
      vertex 0.22176145017147064 0 0.024286294355988503
      vertex 0.094239145517349243 0 0.036429442465305328
    endloop
  endfacet
  facet normal -0 1 0
    outer loop
      vertex 0.094239145517349243 0 -0.036429442465305328
      vertex 0.094239145517349243 0 -0.024286294355988503
      vertex 0.22176145017147064 0 -0.024286294355988503
    endloop
  endfacet
  facet normal 0 1 0
    outer loop
      vertex 0.22176145017147064 0 -0.048572588711977005
      vertex 0.094239145517349243 0 -0.048572588711977005
      vertex 0.094239145517349243 0 -0.036429442465305328
    endloop
  endfacet
  facet normal 0 1 -0
    outer loop
      vertex 0.22176145017147064 0 -0.024286294355988503
      vertex 0.22176145017147064 0 -0.048572588711977005
      vertex 0.094239145517349243 0 -0.036429442465305328
    endloop
  endfacet
  facet normal 0 1 0
    outer loop
      vertex 0.094239145517349243 0 -0.048572588711977005
      vertex 0.030477998778223991 0 -0.048572588711977005
      vertex 0.030477998778223991 0 -0.036429442465305328
    endloop
  endfacet
  facet normal 0 1 0
    outer loop
      vertex 0.094239145517349243 0 -0.048572588711977005
      vertex 0.030477998778223991 0 -0.036429442465305328
      vertex 0.094239145517349243 0 -0.036429442465305328
    endloop
  endfacet
  facet normal 0 1 0
    outer loop
      vertex 0.094239145517349243 0 -0.036429442465305328
      vertex 0.030477998778223991 0 -0.036429442465305328
      vertex 0.030477998778223991 0 -0.024286294355988503
    endloop
  endfacet
  facet normal 0 1 0
    outer loop
      vertex 0.094239145517349243 0 -0.036429442465305328
      vertex 0.030477998778223991 0 -0.024286294355988503
      vertex 0.094239145517349243 0 -0.024286294355988503
    endloop
  endfacet
  facet normal -0 1 0
    outer loop
      vertex 0.030477998778223991 0 -0.018214721232652664
      vertex 0.030477998778223991 0 -0.012143147177994251
      vertex 0.094239145517349243 0 -0.012143147177994251
    endloop
  endfacet
  facet normal 0 1 0
    outer loop
      vertex 0.094239145517349243 0 -0.024286294355988503
      vertex 0.030477998778223991 0 -0.024286294355988503
      vertex 0.030477998778223991 0 -0.018214721232652664
    endloop
  endfacet
  facet normal 0 1 -0
    outer loop
      vertex 0.094239145517349243 0 -0.012143147177994251
      vertex 0.094239145517349243 0 -0.024286294355988503
      vertex 0.030477998778223991 0 -0.018214721232652664
    endloop
  endfacet
  facet normal 0 1 0
    outer loop
      vertex 0.030477998778223991 0 -0.024286294355988503
      vertex -0.0014025749405846 0 -0.024286294355988503
      vertex -0.0014025749405846 0 -0.018214721232652664
    endloop
  endfacet
  facet normal 0 1 0
    outer loop
      vertex 0.030477998778223991 0 -0.024286294355988503
      vertex -0.0014025749405846 0 -0.018214721232652664
      vertex 0.030477998778223991 0 -0.018214721232652664
    endloop
  endfacet
  facet normal 0 1 0
    outer loop
      vertex 0.030477998778223991 0 -0.018214721232652664
      vertex -0.0014025749405846 0 -0.018214721232652664
      vertex -0.0014025749405846 0 -0.012143147177994251
    endloop
  endfacet
  facet normal 0 1 0
    outer loop
      vertex 0.030477998778223991 0 -0.018214721232652664
      vertex -0.0014025749405846 0 -0.012143147177994251
      vertex 0.030477998778223991 0 -0.012143147177994251
    endloop
  endfacet
  facet normal -0 1 0
    outer loop
      vertex -0.0014025749405846 0 -0.0091073606163263321
      vertex -0.0014025749405846 0 -0.0060715735889971256
      vertex 0.030477998778223991 0 -0.0060715735889971256
    endloop
  endfacet
  facet normal 0 1 0
    outer loop
      vertex 0.030477998778223991 0 -0.012143147177994251
      vertex -0.0014025749405846 0 -0.012143147177994251
      vertex -0.0014025749405846 0 -0.0091073606163263321
    endloop
  endfacet
  facet normal 0 1 -0
    outer loop
      vertex 0.030477998778223991 0 -0.0060715735889971256
      vertex 0.030477998778223991 0 -0.012143147177994251
      vertex -0.0014025749405846 0 -0.0091073606163263321
    endloop
  endfacet
  facet normal 0 1 0
    outer loop
      vertex -0.0014025749405846 0 -0.012143147177994251
      vertex -0.017342861741781235 0 -0.012143147177994251
      vertex -0.017342861741781235 0 -0.0091073606163263321
    endloop
  endfacet
  facet normal 0 1 0
    outer loop
      vertex -0.0014025749405846 0 -0.012143147177994251
      vertex -0.017342861741781235 0 -0.0091073606163263321
      vertex -0.0014025749405846 0 -0.0091073606163263321
    endloop
  endfacet
  facet normal 0 1 0
    outer loop
      vertex -0.0014025749405846 0 -0.0091073606163263321
      vertex -0.017342861741781235 0 -0.0091073606163263321
      vertex -0.017342861741781235 0 -0.0060715735889971256
    endloop
  endfacet
  facet normal 0 1 0
    outer loop
      vertex -0.0014025749405846 0 -0.0091073606163263321
      vertex -0.017342861741781235 0 -0.0060715735889971256
      vertex -0.0014025749405846 0 -0.0060715735889971256
    endloop
  endfacet
  facet normal -0 1 0
    outer loop
      vertex -0.017342861741781235 0 -0.004553680308163166
      vertex -0.017342861741781235 0 -0.0030357867944985628
      vertex -0.0014025749405846 0 -0.0030357867944985628
    endloop
  endfacet
  facet normal 0 1 0
    outer loop
      vertex -0.0014025749405846 0 -0.0060715735889971256
      vertex -0.017342861741781235 0 -0.0060715735889971256
      vertex -0.017342861741781235 0 -0.004553680308163166
    endloop
  endfacet
  facet normal 0 1 -0
    outer loop
      vertex -0.0014025749405846 0 -0.0030357867944985628
      vertex -0.0014025749405846 0 -0.0060715735889971256
      vertex -0.017342861741781235 0 -0.004553680308163166
    endloop
  endfacet
  facet normal -0 1 0
    outer loop
      vertex -0.017342861741781235 0 -0.0015178933972492814
      vertex -0.017342861741781235 0 7.0473141211557788e-18
      vertex -0.0014025749405846 0 7.1557343384043293e-18
    endloop
  endfacet
  facet normal 0 1 0
    outer loop
      vertex -0.0014025749405846 0 -0.0030357867944985628
      vertex -0.017342861741781235 0 -0.0030357867944985628
      vertex -0.017342861741781235 0 -0.0015178933972492814
    endloop
  endfacet
  facet normal 0 1 -0
    outer loop
      vertex -0.0014025749405846 0 7.1557343384043293e-18
      vertex -0.0014025749405846 0 -0.0030357867944985628
      vertex -0.017342861741781235 0 -0.0015178933972492814
    endloop
  endfacet
  facet normal -0 1 0
    outer loop
      vertex -0.0014025749405846 0 -0.0030357867944985628
      vertex -0.0014025749405846 0 7.1557343384043293e-18
      vertex 0.030477998778223991 0 7.3725747729014302e-18
    endloop
  endfacet
  facet normal 0 1 0
    outer loop
      vertex 0.030477998778223991 0 -0.0060715735889971256
      vertex -0.0014025749405846 0 -0.0060715735889971256
      vertex -0.0014025749405846 0 -0.0030357867944985628
    endloop
  endfacet
  facet normal 0 1 -0
    outer loop
      vertex 0.030477998778223991 0 7.3725747729014302e-18
      vertex 0.030477998778223991 0 -0.0060715735889971256
      vertex -0.0014025749405846 0 -0.0030357867944985628
    endloop
  endfacet
  facet normal 0 1 0
    outer loop
      vertex 0.030477998778223991 0 -0.0060715735889971256
      vertex 0.030477998778223991 0 7.3725747729014302e-18
      vertex 0.094239145517349243 0 8.6736173798840355e-19
    endloop
  endfacet
  facet normal 0 1 0
    outer loop
      vertex 0.094239145517349243 0 -0.012143147177994251
      vertex 0.030477998778223991 0 -0.012143147177994251
      vertex 0.030477998778223991 0 -0.0060715735889971256
    endloop
  endfacet
  facet normal 0 1 -0
    outer loop
      vertex 0.094239145517349243 0 8.6736173798840355e-19
      vertex 0.094239145517349243 0 -0.012143147177994251
      vertex 0.030477998778223991 0 -0.0060715735889971256
    endloop
  endfacet
  facet normal -0 1 0
    outer loop
      vertex 0.094239145517349243 0 -0.012143147177994251
      vertex 0.094239145517349243 0 8.6736173798840355e-19
      vertex 0.22176145017147064 0 8.6736173798840355e-18
    endloop
  endfacet
  facet normal 0 1 0
    outer loop
      vertex 0.22176145017147064 0 -0.024286294355988503
      vertex 0.094239145517349243 0 -0.024286294355988503
      vertex 0.094239145517349243 0 -0.012143147177994251
    endloop
  endfacet
  facet normal 0 1 -0
    outer loop
      vertex 0.22176145017147064 0 8.6736173798840355e-18
      vertex 0.22176145017147064 0 -0.024286294355988503
      vertex 0.094239145517349243 0 -0.012143147177994251
    endloop
  endfacet
  facet normal 0 1 0
    outer loop
      vertex 0.22176145017147064 0 -0.072858884930610657
      vertex 0.094239145517349243 0 -0.072858884930610657
      vertex 0.094239145517349243 0 -0.048572588711977005
    endloop
  endfacet
  facet normal 0 1 0
    outer loop
      vertex 0.22176145017147064 0 -0.072858884930610657
      vertex 0.094239145517349243 0 -0.048572588711977005
      vertex 0.22176145017147064 0 -0.048572588711977005
    endloop
  endfacet
  facet normal 0 1 -0
    outer loop
      vertex 0.47680604457855225 0 0.024286294355988503
      vertex 0.47680604457855225 0 6.9388939039072284e-18
      vertex 0.22176145017147064 0 8.6736173798840355e-18
    endloop
  endfacet
  facet normal 0 1 0
    outer loop
      vertex 0.47680604457855225 0 0.024286294355988503
      vertex 0.22176145017147064 0 8.6736173798840355e-18
      vertex 0.22176145017147064 0 0.024286294355988503
    endloop
  endfacet
  facet normal -0 1 0
    outer loop
      vertex 0.22176145017147064 0 0.024286294355988503
      vertex 0.22176145017147064 0 0.048572588711977005
      vertex 0.47680604457855225 0 0.048572588711977005
    endloop
  endfacet
  facet normal 0 1 -0
    outer loop
      vertex 0.22176145017147064 0 0.024286294355988503
      vertex 0.47680604457855225 0 0.048572588711977005
      vertex 0.47680604457855225 0 0.024286294355988503
    endloop
  endfacet
  facet normal 0 1 -0
    outer loop
      vertex 0.47680604457855225 0 -0.024286294355988503
      vertex 0.47680604457855225 0 -0.048572588711977005
      vertex 0.22176145017147064 0 -0.048572588711977005
    endloop
  endfacet
  facet normal 0 1 0
    outer loop
      vertex 0.47680604457855225 0 -0.024286294355988503
      vertex 0.22176145017147064 0 -0.048572588711977005
      vertex 0.22176145017147064 0 -0.024286294355988503
    endloop
  endfacet
  facet normal 0 1 0
    outer loop
      vertex 0.22176145017147064 0 -0.024286294355988503
      vertex 0.22176145017147064 0 8.6736173798840355e-18
      vertex 0.47680604457855225 0 6.9388939039072284e-18
    endloop
  endfacet
  facet normal 0 1 -0
    outer loop
      vertex 0.22176145017147064 0 -0.024286294355988503
      vertex 0.47680604457855225 0 6.9388939039072284e-18
      vertex 0.47680604457855225 0 -0.024286294355988503
    endloop
  endfacet
  facet normal 0 1 -0
    outer loop
      vertex 0.73185062408447266 0 0.012143147177994251
      vertex 0.73185062408447266 0 6.9388939039072284e-18
      vertex 0.60432833433151245 0 6.9388939039072284e-18
    endloop
  endfacet
  facet normal -0 1 -0
    outer loop
      vertex 0.60432833433151245 0 0.024286294355988503
      vertex 0.73185062408447266 0 0.024286294355988503
      vertex 0.73185062408447266 0 0.012143147177994251
    endloop
  endfacet
  facet normal 0 1 0
    outer loop
      vertex 0.60432833433151245 0 6.9388939039072284e-18
      vertex 0.60432833433151245 0 0.024286294355988503
      vertex 0.73185062408447266 0 0.012143147177994251
    endloop
  endfacet
  facet normal 0 1 0
    outer loop
      vertex 0.60432833433151245 0 6.9388939039072284e-18
      vertex 0.47680604457855225 0 6.9388939039072284e-18
      vertex 0.47680604457855225 0 0.024286294355988503
    endloop
  endfacet
  facet normal 0 1 0
    outer loop
      vertex 0.60432833433151245 0 6.9388939039072284e-18
      vertex 0.47680604457855225 0 0.024286294355988503
      vertex 0.60432833433151245 0 0.024286294355988503
    endloop
  endfacet
  facet normal 0 1 0
    outer loop
      vertex 0.60432833433151245 0 0.024286294355988503
      vertex 0.47680604457855225 0 0.024286294355988503
      vertex 0.47680604457855225 0 0.048572588711977005
    endloop
  endfacet
  facet normal 0 1 0
    outer loop
      vertex 0.60432833433151245 0 0.024286294355988503
      vertex 0.47680604457855225 0 0.048572588711977005
      vertex 0.60432833433151245 0 0.048572588711977005
    endloop
  endfacet
  facet normal 0 1 0
    outer loop
      vertex 0.73185062408447266 0 0.024286294355988503
      vertex 0.60432833433151245 0 0.024286294355988503
      vertex 0.60432833433151245 0 0.048572588711977005
    endloop
  endfacet
  facet normal -0 1 0
    outer loop
      vertex 0.60432833433151245 0 -0.048572588711977005
      vertex 0.60432833433151245 0 -0.024286294355988503
      vertex 0.73185062408447266 0 -0.024286294355988503
    endloop
  endfacet
  facet normal 0 1 0
    outer loop
      vertex 0.60432833433151245 0 -0.048572588711977005
      vertex 0.47680604457855225 0 -0.048572588711977005
      vertex 0.47680604457855225 0 -0.024286294355988503
    endloop
  endfacet
  facet normal 0 1 0
    outer loop
      vertex 0.60432833433151245 0 -0.048572588711977005
      vertex 0.47680604457855225 0 -0.024286294355988503
      vertex 0.60432833433151245 0 -0.024286294355988503
    endloop
  endfacet
  facet normal 0 1 0
    outer loop
      vertex 0.60432833433151245 0 -0.024286294355988503
      vertex 0.47680604457855225 0 -0.024286294355988503
      vertex 0.47680604457855225 0 6.9388939039072284e-18
    endloop
  endfacet
  facet normal 0 1 0
    outer loop
      vertex 0.60432833433151245 0 -0.024286294355988503
      vertex 0.47680604457855225 0 6.9388939039072284e-18
      vertex 0.60432833433151245 0 6.9388939039072284e-18
    endloop
  endfacet
  facet normal 0 1 -0
    outer loop
      vertex 0.73185062408447266 0 -0.012143147177994251
      vertex 0.73185062408447266 0 -0.024286294355988503
      vertex 0.60432833433151245 0 -0.024286294355988503
    endloop
  endfacet
  facet normal -0 1 -0
    outer loop
      vertex 0.60432833433151245 0 6.9388939039072284e-18
      vertex 0.73185062408447266 0 6.9388939039072284e-18
      vertex 0.73185062408447266 0 -0.012143147177994251
    endloop
  endfacet
  facet normal 0 1 0
    outer loop
      vertex 0.60432833433151245 0 -0.024286294355988503
      vertex 0.60432833433151245 0 6.9388939039072284e-18
      vertex 0.73185062408447266 0 -0.012143147177994251
    endloop
  endfacet
  facet normal 0 1 0
    outer loop
      vertex 0.97494000196456909 0 0.0015178933972492814
      vertex 0.97095495462417603 0 0.0015178933972492814
      vertex 0.97095495462417603 0 0.002276840154081583
    endloop
  endfacet
  facet normal 0 1 0
    outer loop
      vertex 0.97494000196456909 0 0.0015178933972492814
      vertex 0.97095495462417603 0 0.002276840154081583
      vertex 0.97494000196456909 0 0.002276840154081583
    endloop
  endfacet
  facet normal 0 1 0
    outer loop
      vertex 0.97095495462417603 0 6.9388939039072284e-18
      vertex 0.96298480033874512 0 6.9388939039072284e-18
      vertex 0.96298480033874512 0 0.0015178933972492814
    endloop
  endfacet
  facet normal 0 1 0
    outer loop
      vertex 0.97095495462417603 0 6.9388939039072284e-18
      vertex 0.96298480033874512 0 0.0015178933972492814
      vertex 0.97095495462417603 0 0.0015178933972492814
    endloop
  endfacet
  facet normal 0 1 0
    outer loop
      vertex 0.96298480033874512 0 6.9388939039072284e-18
      vertex 0.95501464605331421 0 6.9388939039072284e-18
      vertex 0.95501464605331421 0 0.0015178933972492814
    endloop
  endfacet
  facet normal 0 1 0
    outer loop
      vertex 0.96298480033874512 0 6.9388939039072284e-18
      vertex 0.95501464605331421 0 0.0015178933972492814
      vertex 0.96298480033874512 0 0.0015178933972492814
    endloop
  endfacet
  facet normal 0 1 0
    outer loop
      vertex 0.96298480033874512 0 0.0015178933972492814
      vertex 0.95501464605331421 0 0.0015178933972492814
      vertex 0.95501464605331421 0 0.0030357867944985628
    endloop
  endfacet
  facet normal 0 1 0
    outer loop
      vertex 0.96298480033874512 0 0.0015178933972492814
      vertex 0.95501464605331421 0 0.0030357867944985628
      vertex 0.96298480033874512 0 0.0030357867944985628
    endloop
  endfacet
  facet normal 0 1 -0
    outer loop
      vertex 0.97095495462417603 0 0.002276840154081583
      vertex 0.97095495462417603 0 0.0015178933972492814
      vertex 0.96298480033874512 0 0.0015178933972492814
    endloop
  endfacet
  facet normal -0 1 -0
    outer loop
      vertex 0.96298480033874512 0 0.0030357867944985628
      vertex 0.97095495462417603 0 0.0030357867944985628
      vertex 0.97095495462417603 0 0.002276840154081583
    endloop
  endfacet
  facet normal 0 1 0
    outer loop
      vertex 0.96298480033874512 0 0.0015178933972492814
      vertex 0.96298480033874512 0 0.0030357867944985628
      vertex 0.97095495462417603 0 0.002276840154081583
    endloop
  endfacet
  facet normal 0 1 -0
    outer loop
      vertex 0.95501464605331421 0 0.0015178933972492814
      vertex 0.95501464605331421 0 6.9388939039072284e-18
      vertex 0.93907439708709717 0 0
    endloop
  endfacet
  facet normal -0 1 -0
    outer loop
      vertex 0.93907439708709717 0 0.0030357867944985628
      vertex 0.95501464605331421 0 0.0030357867944985628
      vertex 0.95501464605331421 0 0.0015178933972492814
    endloop
  endfacet
  facet normal 0 1 0
    outer loop
      vertex 0.93907439708709717 0 0
      vertex 0.93907439708709717 0 0.0030357867944985628
      vertex 0.95501464605331421 0 0.0015178933972492814
    endloop
  endfacet
  facet normal 0 1 0
    outer loop
      vertex 0.93907439708709717 0 0
      vertex 0.92313408851623535 0 6.9388939039072284e-18
      vertex 0.92313408851623535 0 0.0030357867944985628
    endloop
  endfacet
  facet normal 0 1 0
    outer loop
      vertex 0.93907439708709717 0 0
      vertex 0.92313408851623535 0 0.0030357867944985628
      vertex 0.93907439708709717 0 0.0030357867944985628
    endloop
  endfacet
  facet normal 0 1 0
    outer loop
      vertex 0.93907439708709717 0 0.0030357867944985628
      vertex 0.92313408851623535 0 0.0030357867944985628
      vertex 0.92313408851623535 0 0.0060715735889971256
    endloop
  endfacet
  facet normal 0 1 0
    outer loop
      vertex 0.93907439708709717 0 0.0030357867944985628
      vertex 0.92313408851623535 0 0.0060715735889971256
      vertex 0.93907439708709717 0 0.0060715735889971256
    endloop
  endfacet
  facet normal 0 1 0
    outer loop
      vertex 0.95501464605331421 0 0.0030357867944985628
      vertex 0.93907439708709717 0 0.0030357867944985628
      vertex 0.93907439708709717 0 0.0060715735889971256
    endloop
  endfacet
  facet normal 0 1 0
    outer loop
      vertex 0.95501464605331421 0 0.0030357867944985628
      vertex 0.93907439708709717 0 0.0060715735889971256
      vertex 0.95501464605331421 0 0.0060715735889971256
    endloop
  endfacet
  facet normal 0 1 -0
    outer loop
      vertex 0.92313408851623535 0 0.0030357867944985628
      vertex 0.92313408851623535 0 6.9388939039072284e-18
      vertex 0.89125353097915649 0 6.9388939039072284e-18
    endloop
  endfacet
  facet normal -0 1 -0
    outer loop
      vertex 0.89125353097915649 0 0.0060715735889971256
      vertex 0.92313408851623535 0 0.0060715735889971256
      vertex 0.92313408851623535 0 0.0030357867944985628
    endloop
  endfacet
  facet normal 0 1 0
    outer loop
      vertex 0.89125353097915649 0 6.9388939039072284e-18
      vertex 0.89125353097915649 0 0.0060715735889971256
      vertex 0.92313408851623535 0 0.0030357867944985628
    endloop
  endfacet
  facet normal 0 1 0
    outer loop
      vertex 0.89125353097915649 0 6.9388939039072284e-18
      vertex 0.85937291383743286 0 6.9388939039072284e-18
      vertex 0.85937291383743286 0 0.0060715735889971256
    endloop
  endfacet
  facet normal 0 1 0
    outer loop
      vertex 0.89125353097915649 0 6.9388939039072284e-18
      vertex 0.85937291383743286 0 0.0060715735889971256
      vertex 0.89125353097915649 0 0.0060715735889971256
    endloop
  endfacet
  facet normal 0 1 0
    outer loop
      vertex 0.89125353097915649 0 0.0060715735889971256
      vertex 0.85937291383743286 0 0.0060715735889971256
      vertex 0.85937291383743286 0 0.012143147177994251
    endloop
  endfacet
  facet normal 0 1 0
    outer loop
      vertex 0.89125353097915649 0 0.0060715735889971256
      vertex 0.85937291383743286 0 0.012143147177994251
      vertex 0.89125353097915649 0 0.012143147177994251
    endloop
  endfacet
  facet normal 0 1 0
    outer loop
      vertex 0.92313408851623535 0 0.0060715735889971256
      vertex 0.89125353097915649 0 0.0060715735889971256
      vertex 0.89125353097915649 0 0.012143147177994251
    endloop
  endfacet
  facet normal 0 1 0
    outer loop
      vertex 0.92313408851623535 0 0.0060715735889971256
      vertex 0.89125353097915649 0 0.012143147177994251
      vertex 0.92313408851623535 0 0.012143147177994251
    endloop
  endfacet
  facet normal 0 1 -0
    outer loop
      vertex 0.85937291383743286 0 0.0060715735889971256
      vertex 0.85937291383743286 0 6.9388939039072284e-18
      vertex 0.79561179876327515 0 6.9388939039072284e-18
    endloop
  endfacet
  facet normal -0 1 -0
    outer loop
      vertex 0.79561179876327515 0 0.012143147177994251
      vertex 0.85937291383743286 0 0.012143147177994251
      vertex 0.85937291383743286 0 0.0060715735889971256
    endloop
  endfacet
  facet normal 0 1 0
    outer loop
      vertex 0.79561179876327515 0 6.9388939039072284e-18
      vertex 0.79561179876327515 0 0.012143147177994251
      vertex 0.85937291383743286 0 0.0060715735889971256
    endloop
  endfacet
  facet normal 0 1 0
    outer loop
      vertex 0.79561179876327515 0 6.9388939039072284e-18
      vertex 0.73185062408447266 0 6.9388939039072284e-18
      vertex 0.73185062408447266 0 0.012143147177994251
    endloop
  endfacet
  facet normal 0 1 0
    outer loop
      vertex 0.79561179876327515 0 6.9388939039072284e-18
      vertex 0.73185062408447266 0 0.012143147177994251
      vertex 0.79561179876327515 0 0.012143147177994251
    endloop
  endfacet
  facet normal 0 1 0
    outer loop
      vertex 0.79561179876327515 0 0.012143147177994251
      vertex 0.73185062408447266 0 0.012143147177994251
      vertex 0.73185062408447266 0 0.024286294355988503
    endloop
  endfacet
  facet normal 0 1 0
    outer loop
      vertex 0.79561179876327515 0 0.012143147177994251
      vertex 0.73185062408447266 0 0.024286294355988503
      vertex 0.79561179876327515 0 0.024286294355988503
    endloop
  endfacet
  facet normal 0 1 0
    outer loop
      vertex 0.85937291383743286 0 0.012143147177994251
      vertex 0.79561179876327515 0 0.012143147177994251
      vertex 0.79561179876327515 0 0.024286294355988503
    endloop
  endfacet
  facet normal 0 1 0
    outer loop
      vertex 0.85937291383743286 0 0.012143147177994251
      vertex 0.79561179876327515 0 0.024286294355988503
      vertex 0.85937291383743286 0 0.024286294355988503
    endloop
  endfacet
  facet normal 0 1 0
    outer loop
      vertex 0.85937291383743286 0 -0.024286294355988503
      vertex 0.79561179876327515 0 -0.024286294355988503
      vertex 0.79561179876327515 0 -0.012143147177994251
    endloop
  endfacet
  facet normal 0 1 0
    outer loop
      vertex 0.85937291383743286 0 -0.024286294355988503
      vertex 0.79561179876327515 0 -0.012143147177994251
      vertex 0.85937291383743286 0 -0.012143147177994251
    endloop
  endfacet
  facet normal 0 1 0
    outer loop
      vertex 0.79561179876327515 0 -0.024286294355988503
      vertex 0.73185062408447266 0 -0.024286294355988503
      vertex 0.73185062408447266 0 -0.012143147177994251
    endloop
  endfacet
  facet normal 0 1 0
    outer loop
      vertex 0.79561179876327515 0 -0.024286294355988503
      vertex 0.73185062408447266 0 -0.012143147177994251
      vertex 0.79561179876327515 0 -0.012143147177994251
    endloop
  endfacet
  facet normal 0 1 0
    outer loop
      vertex 0.79561179876327515 0 -0.012143147177994251
      vertex 0.73185062408447266 0 -0.012143147177994251
      vertex 0.73185062408447266 0 6.9388939039072284e-18
    endloop
  endfacet
  facet normal 0 1 0
    outer loop
      vertex 0.79561179876327515 0 -0.012143147177994251
      vertex 0.73185062408447266 0 6.9388939039072284e-18
      vertex 0.79561179876327515 0 6.9388939039072284e-18
    endloop
  endfacet
  facet normal 0 1 -0
    outer loop
      vertex 0.85937291383743286 0 -0.0060715735889971256
      vertex 0.85937291383743286 0 -0.012143147177994251
      vertex 0.79561179876327515 0 -0.012143147177994251
    endloop
  endfacet
  facet normal -0 1 -0
    outer loop
      vertex 0.79561179876327515 0 6.9388939039072284e-18
      vertex 0.85937291383743286 0 6.9388939039072284e-18
      vertex 0.85937291383743286 0 -0.0060715735889971256
    endloop
  endfacet
  facet normal 0 1 0
    outer loop
      vertex 0.79561179876327515 0 -0.012143147177994251
      vertex 0.79561179876327515 0 6.9388939039072284e-18
      vertex 0.85937291383743286 0 -0.0060715735889971256
    endloop
  endfacet
  facet normal 0 1 0
    outer loop
      vertex 0.92313408851623535 0 -0.012143147177994251
      vertex 0.89125353097915649 0 -0.012143147177994251
      vertex 0.89125353097915649 0 -0.0060715735889971256
    endloop
  endfacet
  facet normal 0 1 0
    outer loop
      vertex 0.92313408851623535 0 -0.012143147177994251
      vertex 0.89125353097915649 0 -0.0060715735889971256
      vertex 0.92313408851623535 0 -0.0060715735889971256
    endloop
  endfacet
  facet normal 0 1 0
    outer loop
      vertex 0.89125353097915649 0 -0.012143147177994251
      vertex 0.85937291383743286 0 -0.012143147177994251
      vertex 0.85937291383743286 0 -0.0060715735889971256
    endloop
  endfacet
  facet normal 0 1 0
    outer loop
      vertex 0.89125353097915649 0 -0.012143147177994251
      vertex 0.85937291383743286 0 -0.0060715735889971256
      vertex 0.89125353097915649 0 -0.0060715735889971256
    endloop
  endfacet
  facet normal 0 1 0
    outer loop
      vertex 0.89125353097915649 0 -0.0060715735889971256
      vertex 0.85937291383743286 0 -0.0060715735889971256
      vertex 0.85937291383743286 0 6.9388939039072284e-18
    endloop
  endfacet
  facet normal 0 1 0
    outer loop
      vertex 0.89125353097915649 0 -0.0060715735889971256
      vertex 0.85937291383743286 0 6.9388939039072284e-18
      vertex 0.89125353097915649 0 6.9388939039072284e-18
    endloop
  endfacet
  facet normal 0 1 -0
    outer loop
      vertex 0.92313408851623535 0 -0.0030357867944985628
      vertex 0.92313408851623535 0 -0.0060715735889971256
      vertex 0.89125353097915649 0 -0.0060715735889971256
    endloop
  endfacet
  facet normal -0 1 -0
    outer loop
      vertex 0.89125353097915649 0 6.9388939039072284e-18
      vertex 0.92313408851623535 0 6.9388939039072284e-18
      vertex 0.92313408851623535 0 -0.0030357867944985628
    endloop
  endfacet
  facet normal 0 1 0
    outer loop
      vertex 0.89125353097915649 0 -0.0060715735889971256
      vertex 0.89125353097915649 0 6.9388939039072284e-18
      vertex 0.92313408851623535 0 -0.0030357867944985628
    endloop
  endfacet
  facet normal 0 1 0
    outer loop
      vertex 0.95501464605331421 0 -0.0060715735889971256
      vertex 0.93907439708709717 0 -0.0060715735889971256
      vertex 0.93907439708709717 0 -0.0030357867944985628
    endloop
  endfacet
  facet normal 0 1 0
    outer loop
      vertex 0.95501464605331421 0 -0.0060715735889971256
      vertex 0.93907439708709717 0 -0.0030357867944985628
      vertex 0.95501464605331421 0 -0.0030357867944985628
    endloop
  endfacet
  facet normal 0 1 0
    outer loop
      vertex 0.93907439708709717 0 -0.0060715735889971256
      vertex 0.92313408851623535 0 -0.0060715735889971256
      vertex 0.92313408851623535 0 -0.0030357867944985628
    endloop
  endfacet
  facet normal 0 1 0
    outer loop
      vertex 0.93907439708709717 0 -0.0060715735889971256
      vertex 0.92313408851623535 0 -0.0030357867944985628
      vertex 0.93907439708709717 0 -0.0030357867944985628
    endloop
  endfacet
  facet normal 0 1 0
    outer loop
      vertex 0.93907439708709717 0 -0.0030357867944985628
      vertex 0.92313408851623535 0 -0.0030357867944985628
      vertex 0.92313408851623535 0 6.9388939039072284e-18
    endloop
  endfacet
  facet normal 0 1 0
    outer loop
      vertex 0.93907439708709717 0 -0.0030357867944985628
      vertex 0.92313408851623535 0 6.9388939039072284e-18
      vertex 0.93907439708709717 0 0
    endloop
  endfacet
  facet normal 0 1 -0
    outer loop
      vertex 0.95501464605331421 0 -0.0015178933972492814
      vertex 0.95501464605331421 0 -0.0030357867944985628
      vertex 0.93907439708709717 0 -0.0030357867944985628
    endloop
  endfacet
  facet normal 0 1 -0
    outer loop
      vertex 0.93907439708709717 0 0
      vertex 0.95501464605331421 0 6.9388939039072284e-18
      vertex 0.95501464605331421 0 -0.0015178933972492814
    endloop
  endfacet
  facet normal 0 1 0
    outer loop
      vertex 0.93907439708709717 0 -0.0030357867944985628
      vertex 0.93907439708709717 0 0
      vertex 0.95501464605331421 0 -0.0015178933972492814
    endloop
  endfacet
  facet normal 0 1 -0
    outer loop
      vertex 0.97095495462417603 0 -0.002276840154081583
      vertex 0.97095495462417603 0 -0.0030357867944985628
      vertex 0.96298480033874512 0 -0.0030357867944985628
    endloop
  endfacet
  facet normal -0 1 -0
    outer loop
      vertex 0.96298480033874512 0 -0.0015178933972492814
      vertex 0.97095495462417603 0 -0.0015178933972492814
      vertex 0.97095495462417603 0 -0.002276840154081583
    endloop
  endfacet
  facet normal 0 1 0
    outer loop
      vertex 0.96298480033874512 0 -0.0030357867944985628
      vertex 0.96298480033874512 0 -0.0015178933972492814
      vertex 0.97095495462417603 0 -0.002276840154081583
    endloop
  endfacet
  facet normal 0 1 0
    outer loop
      vertex 0.96298480033874512 0 -0.0030357867944985628
      vertex 0.95501464605331421 0 -0.0030357867944985628
      vertex 0.95501464605331421 0 -0.0015178933972492814
    endloop
  endfacet
  facet normal 0 1 0
    outer loop
      vertex 0.96298480033874512 0 -0.0030357867944985628
      vertex 0.95501464605331421 0 -0.0015178933972492814
      vertex 0.96298480033874512 0 -0.0015178933972492814
    endloop
  endfacet
  facet normal 0 1 0
    outer loop
      vertex 0.96298480033874512 0 -0.0015178933972492814
      vertex 0.95501464605331421 0 -0.0015178933972492814
      vertex 0.95501464605331421 0 6.9388939039072284e-18
    endloop
  endfacet
  facet normal 0 1 0
    outer loop
      vertex 0.96298480033874512 0 -0.0015178933972492814
      vertex 0.95501464605331421 0 6.9388939039072284e-18
      vertex 0.96298480033874512 0 6.9388939039072284e-18
    endloop
  endfacet
  facet normal 0 1 -0
    outer loop
      vertex 0.97095495462417603 0 -0.0007589466986246407
      vertex 0.97095495462417603 0 -0.0015178933972492814
      vertex 0.96298480033874512 0 -0.0015178933972492814
    endloop
  endfacet
  facet normal -0 1 -0
    outer loop
      vertex 0.96298480033874512 0 6.9388939039072284e-18
      vertex 0.97095495462417603 0 6.9388939039072284e-18
      vertex 0.97095495462417603 0 -0.0007589466986246407
    endloop
  endfacet
  facet normal 0 1 0
    outer loop
      vertex 0.96298480033874512 0 -0.0015178933972492814
      vertex 0.96298480033874512 0 6.9388939039072284e-18
      vertex 0.97095495462417603 0 -0.0007589466986246407
    endloop
  endfacet
  facet normal 0 1 0
    outer loop
      vertex 0.97494000196456909 0 -0.002276840154081583
      vertex 0.97095495462417603 0 -0.002276840154081583
      vertex 0.97095495462417603 0 -0.0015178933972492814
    endloop
  endfacet
  facet normal 0 1 0
    outer loop
      vertex 0.97494000196456909 0 -0.002276840154081583
      vertex 0.97095495462417603 0 -0.0015178933972492814
      vertex 0.97494000196456909 0 -0.0015178933972492814
    endloop
  endfacet
  facet normal 0 1 0
    outer loop
      vertex 0.97494000196456909 0 -0.0015178933972492814
      vertex 0.97095495462417603 0 -0.0015178933972492814
      vertex 0.97095495462417603 0 -0.0007589466986246407
    endloop
  endfacet
  facet normal 0 1 0
    outer loop
      vertex 0.97494000196456909 0 -0.0015178933972492814
      vertex 0.97095495462417603 0 -0.0007589466986246407
      vertex 0.97494000196456909 0 -0.0007589466986246407
    endloop
  endfacet
  facet normal 0 1 0
    outer loop
      vertex 0.97494000196456909 0 -0.0007589466986246407
      vertex 0.97095495462417603 0 -0.0007589466986246407
      vertex 0.97095495462417603 0 6.9388939039072284e-18
    endloop
  endfacet
  facet normal 0 1 0
    outer loop
      vertex 0.97494000196456909 0 -0.0007589466986246407
      vertex 0.97095495462417603 0 6.9388939039072284e-18
      vertex 0.97494000196456909 0 6.9388939039072284e-18
    endloop
  endfacet
  facet normal 0 1 -0
    outer loop
      vertex -0.0232814010232687 0 0.0038225057069212198
      vertex -0.0232814010232687 0 0.072532810270786285
      vertex -0.017342861741781235 0 0.012143147177994251
    endloop
  endfacet
  facet normal -0 1 -0
    outer loop
      vertex -0.0014025749405846 0 0.024286294355988503
      vertex -0.017342861741781235 0 0.012143147177994251
      vertex -0.0232814010232687 0 0.072532810270786285
    endloop
  endfacet
  facet normal 0 1 -0
    outer loop
      vertex -0.017342861741781235 0 0.012143147177994251
      vertex -0.0014025749405846 0 0.024286294355988503
      vertex -0.0014025749405846 0 0.018214721232652664
    endloop
  endfacet
  facet normal 0 1 -0
    outer loop
      vertex -0.017342861741781235 0 0.012143147177994251
      vertex -0.0014025749405846 0 0.018214721232652664
      vertex -0.0014025749405846 0 0.012143147177994251
    endloop
  endfacet
  facet normal 0 1 0
    outer loop
      vertex -0.0014025749405846 0 0.024286294355988503
      vertex -0.0232814010232687 0 0.072532810270786285
      vertex 0.030477998778223991 0 0.048572588711977005
    endloop
  endfacet
  facet normal 0 1 0
    outer loop
      vertex -0.017342861741781235 0 0.0060715735889971256
      vertex -0.0232814010232687 0 0.0038225057069212198
      vertex -0.017342861741781235 0 0.0091073606163263321
    endloop
  endfacet
  facet normal -0 1 0
    outer loop
      vertex -0.017342861741781235 0 0.012143147177994251
      vertex -0.017342861741781235 0 0.0091073606163263321
      vertex -0.0232814010232687 0 0.0038225057069212198
    endloop
  endfacet
  facet normal 0 1 0
    outer loop
      vertex -0.017342861741781235 0 0.004553680308163166
      vertex -0.0232814010232687 0 0.0038225057069212198
      vertex -0.017342861741781235 0 0.0060715735889971256
    endloop
  endfacet
  facet normal 0 1 -0
    outer loop
      vertex -0.0232814010232687 0 0.0038225057069212198
      vertex -0.017342861741781235 0 0.004553680308163166
      vertex -0.017342861741781235 0 0.0030357867944985628
    endloop
  endfacet
  facet normal 0 1 0
    outer loop
      vertex -0.0232814010232687 0 -4.3368086899420177e-19
      vertex -0.0232814010232687 0 0.0038225057069212198
      vertex -0.017342861741781235 0 0.0030357867944985628
    endloop
  endfacet
  facet normal 0 1 -0
    outer loop
      vertex -0.0232814010232687 0 -4.3368086899420177e-19
      vertex -0.017342861741781235 0 0.0030357867944985628
      vertex -0.017342861741781235 0 7.0473141211557788e-18
    endloop
  endfacet
  facet normal 0 1 0
    outer loop
      vertex 0.22176145017147064 0 0.072858884930610657
      vertex 0.094239145517349243 0 0.072858884930610657
      vertex 0.1363842785358429 0 0.093003138899803162
    endloop
  endfacet
  facet normal 0 1 -0
    outer loop
      vertex -0.0232814010232687 0 0.072532810270786285
      vertex 0.094239145517349243 0 0.072858884930610657
      vertex 0.030477998778223991 0 0.048572588711977005
    endloop
  endfacet
  facet normal -0 1 0
    outer loop
      vertex 0.27876970171928406 0 0.097067832946777344
      vertex 0.22176145017147064 0 0.072858884930610657
      vertex 0.1363842785358429 0 0.093003138899803162
    endloop
  endfacet
  facet normal 0 1 0
    outer loop
      vertex 0.47680604457855225 0 0.048572588711977005
      vertex 0.22176145017147064 0 0.072858884930610657
      vertex 0.42563018202781677 0 0.092263013124465942
    endloop
  endfacet
  facet normal 0 1 -0
    outer loop
      vertex 0.27876970171928406 0 0.097067832946777344
      vertex 0.42563018202781677 0 0.092263013124465942
      vertex 0.22176145017147064 0 0.072858884930610657
    endloop
  endfacet
  facet normal 0 1 0
    outer loop
      vertex 0.57484310865402222 0 0.079699628055095673
      vertex 0.47680604457855225 0 0.048572588711977005
      vertex 0.42563018202781677 0 0.092263013124465942
    endloop
  endfacet
  facet normal 0 1 -0
    outer loop
      vertex -0.0014025749405846 0 0.024286294355988503
      vertex 0.030477998778223991 0 0.048572588711977005
      vertex 0.030477998778223991 0 0.036429442465305328
    endloop
  endfacet
  facet normal 0 1 -0
    outer loop
      vertex -0.0014025749405846 0 0.024286294355988503
      vertex 0.030477998778223991 0 0.036429442465305328
      vertex 0.030477998778223991 0 0.024286294355988503
    endloop
  endfacet
  facet normal -0 1 -0
    outer loop
      vertex 0.22176145017147064 0 0.072858884930610657
      vertex 0.47680604457855225 0 0.048572588711977005
      vertex 0.22176145017147064 0 0.048572588711977005
    endloop
  endfacet
  facet normal 0 1 0
    outer loop
      vertex 0.094239145517349243 0 0.048572588711977005
      vertex 0.030477998778223991 0 0.048572588711977005
      vertex 0.094239145517349243 0 0.072858884930610657
    endloop
  endfacet
  facet normal 0 1 -0
    outer loop
      vertex 0.1363842785358429 0 0.093003138899803162
      vertex 0.094239145517349243 0 0.072858884930610657
      vertex -0.0232814010232687 0 0.072532810270786285
    endloop
  endfacet
  facet normal 0 1 0
    outer loop
      vertex -0.0232814010232687 0 -0.0038225057069212198
      vertex -0.0232814010232687 0 -4.3368086899420177e-19
      vertex -0.017342861741781235 0 -0.0015178933972492814
    endloop
  endfacet
  facet normal 0 1 -0
    outer loop
      vertex -0.0232814010232687 0 -0.0038225057069212198
      vertex -0.017342861741781235 0 -0.0015178933972492814
      vertex -0.017342861741781235 0 -0.0030357867944985628
    endloop
  endfacet
  facet normal 0 1 0
    outer loop
      vertex -0.017342861741781235 0 -0.0015178933972492814
      vertex -0.0232814010232687 0 -4.3368086899420177e-19
      vertex -0.017342861741781235 0 7.0473141211557788e-18
    endloop
  endfacet
  facet normal 0 1 -0
    outer loop
      vertex -0.0232814010232687 0 -0.0038225057069212198
      vertex -0.017342861741781235 0 -0.0030357867944985628
      vertex -0.017342861741781235 0 -0.004553680308163166
    endloop
  endfacet
  facet normal -0 1 -0
    outer loop
      vertex -0.0232814010232687 0 -0.0038225057069212198
      vertex -0.017342861741781235 0 -0.004553680308163166
      vertex -0.017342861741781235 0 -0.0060715735889971256
    endloop
  endfacet
  facet normal 0 1 0
    outer loop
      vertex -0.017342861741781235 0 -0.0091073606163263321
      vertex -0.0232814010232687 0 -0.0038225057069212198
      vertex -0.017342861741781235 0 -0.0060715735889971256
    endloop
  endfacet
  facet normal 0 1 -0
    outer loop
      vertex -0.0232814010232687 0 -0.072532810270786285
      vertex -0.0232814010232687 0 -0.0038225057069212198
      vertex -0.017342861741781235 0 -0.012143147177994251
    endloop
  endfacet
  facet normal -0 1 -0
    outer loop
      vertex -0.017342861741781235 0 -0.0091073606163263321
      vertex -0.017342861741781235 0 -0.012143147177994251
      vertex -0.0232814010232687 0 -0.0038225057069212198
    endloop
  endfacet
  facet normal -0 1 0
    outer loop
      vertex -0.0014025749405846 0 -0.024286294355988503
      vertex -0.0232814010232687 0 -0.072532810270786285
      vertex -0.017342861741781235 0 -0.012143147177994251
    endloop
  endfacet
  facet normal -0 1 -0
    outer loop
      vertex -0.017342861741781235 0 -0.012143147177994251
      vertex -0.0014025749405846 0 -0.012143147177994251
      vertex -0.0014025749405846 0 -0.018214721232652664
    endloop
  endfacet
  facet normal -0 1 -0
    outer loop
      vertex -0.017342861741781235 0 -0.012143147177994251
      vertex -0.0014025749405846 0 -0.018214721232652664
      vertex -0.0014025749405846 0 -0.024286294355988503
    endloop
  endfacet
  facet normal 0 1 0
    outer loop
      vertex 0.030477998778223991 0 -0.048572588711977005
      vertex -0.0232814010232687 0 -0.072532810270786285
      vertex -0.0014025749405846 0 -0.024286294355988503
    endloop
  endfacet
  facet normal -0 1 -0
    outer loop
      vertex -0.0014025749405846 0 -0.024286294355988503
      vertex 0.030477998778223991 0 -0.024286294355988503
      vertex 0.030477998778223991 0 -0.036429442465305328
    endloop
  endfacet
  facet normal -0 1 -0
    outer loop
      vertex -0.0014025749405846 0 -0.024286294355988503
      vertex 0.030477998778223991 0 -0.036429442465305328
      vertex 0.030477998778223991 0 -0.048572588711977005
    endloop
  endfacet
  facet normal -0 1 0
    outer loop
      vertex 0.22176145017147064 0 -0.072858884930610657
      vertex 0.22176145017147064 0 -0.048572588711977005
      vertex 0.47680604457855225 0 -0.048572588711977005
    endloop
  endfacet
  facet normal 0 1 0
    outer loop
      vertex 0.094239145517349243 0 -0.072858884930610657
      vertex 0.030477998778223991 0 -0.048572588711977005
      vertex 0.094239145517349243 0 -0.048572588711977005
    endloop
  endfacet
  facet normal -0 1 0
    outer loop
      vertex 0.1363842785358429 0 -0.093003138899803162
      vertex 0.094239145517349243 0 -0.072858884930610657
      vertex 0.22176145017147064 0 -0.072858884930610657
    endloop
  endfacet
  facet normal 0 1 0
    outer loop
      vertex 0.27876970171928406 0 -0.097067832946777344
      vertex 0.1363842785358429 0 -0.093003138899803162
      vertex 0.22176145017147064 0 -0.072858884930610657
    endloop
  endfacet
  facet normal 0 1 -0
    outer loop
      vertex 0.094239145517349243 0 -0.072858884930610657
      vertex 0.1363842785358429 0 -0.093003138899803162
      vertex -0.0232814010232687 0 -0.072532810270786285
    endloop
  endfacet
  facet normal 0 1 0
    outer loop
      vertex 0.27876970171928406 0 -0.097067832946777344
      vertex 0.22176145017147064 0 -0.072858884930610657
      vertex 0.42563018202781677 0 -0.092263013124465942
    endloop
  endfacet
  facet normal -0 1 0
    outer loop
      vertex 0.42563018202781677 0 -0.092263013124465942
      vertex 0.22176145017147064 0 -0.072858884930610657
      vertex 0.47680604457855225 0 -0.048572588711977005
    endloop
  endfacet
  facet normal 0 1 -0
    outer loop
      vertex 0.42563018202781677 0 -0.092263013124465942
      vertex 0.47680604457855225 0 -0.048572588711977005
      vertex 0.57484310865402222 0 -0.079699628055095673
    endloop
  endfacet
  facet normal -0 1 0
    outer loop
      vertex 0.60432833433151245 0 -0.048572588711977005
      vertex 0.57484310865402222 0 -0.079699628055095673
      vertex 0.47680604457855225 0 -0.048572588711977005
    endloop
  endfacet
  facet normal 0 1 -0
    outer loop
      vertex 0.030477998778223991 0 -0.048572588711977005
      vertex 0.094239145517349243 0 -0.072858884930610657
      vertex -0.0232814010232687 0 -0.072532810270786285
    endloop
  endfacet
  facet normal 0 1 0
    outer loop
      vertex 0.60432833433151245 0 0.048572588711977005
      vertex 0.47680604457855225 0 0.048572588711977005
      vertex 0.57484310865402222 0 0.079699628055095673
    endloop
  endfacet
  facet normal 0 1 -0
    outer loop
      vertex 0.73185062408447266 0 0.024286294355988503
      vertex 0.60432833433151245 0 0.048572588711977005
      vertex 0.71618825197219849 0 0.060239240527153015
    endloop
  endfacet
  facet normal -0 1 -0
    outer loop
      vertex 0.57484310865402222 0 0.079699628055095673
      vertex 0.71618825197219849 0 0.060239240527153015
      vertex 0.60432833433151245 0 0.048572588711977005
    endloop
  endfacet
  facet normal 0 1 0
    outer loop
      vertex 0.83093380928039551 0 0.040170956403017044
      vertex 0.73185062408447266 0 0.024286294355988503
      vertex 0.71618825197219849 0 0.060239240527153015
    endloop
  endfacet
  facet normal 0 1 0
    outer loop
      vertex 0.85937291383743286 0 0.024286294355988503
      vertex 0.79561179876327515 0 0.024286294355988503
      vertex 0.83093380928039551 0 0.040170956403017044
    endloop
  endfacet
  facet normal -0 1 0
    outer loop
      vertex 0.73185062408447266 0 0.024286294355988503
      vertex 0.83093380928039551 0 0.040170956403017044
      vertex 0.79561179876327515 0 0.024286294355988503
    endloop
  endfacet
  facet normal 0 1 0
    outer loop
      vertex 0.94585812091827393 0 0.015131372027099133
      vertex 0.85937291383743286 0 0.024286294355988503
      vertex 0.83093380928039551 0 0.040170956403017044
    endloop
  endfacet
  facet normal 0 1 0
    outer loop
      vertex 0.89125353097915649 0 0.012143147177994251
      vertex 0.85937291383743286 0 0.012143147177994251
      vertex 0.85937291383743286 0 0.024286294355988503
    endloop
  endfacet
  facet normal -0 1 0
    outer loop
      vertex 0.94585812091827393 0 0.015131372027099133
      vertex 0.92313408851623535 0 0.012143147177994251
      vertex 0.89125353097915649 0 0.012143147177994251
    endloop
  endfacet
  facet normal 0 1 0
    outer loop
      vertex 0.92313408851623535 0 0.0060715735889971256
      vertex 0.92313408851623535 0 0.012143147177994251
      vertex 0.93907439708709717 0 0.0060715735889971256
    endloop
  endfacet
  facet normal -0 1 0
    outer loop
      vertex 0.94585812091827393 0 0.015131372027099133
      vertex 0.93907439708709717 0 0.0060715735889971256
      vertex 0.92313408851623535 0 0.012143147177994251
    endloop
  endfacet
  facet normal 0 1 0
    outer loop
      vertex 0.95501464605331421 0 0.0060715735889971256
      vertex 0.93907439708709717 0 0.0060715735889971256
      vertex 0.94585812091827393 0 0.015131372027099133
    endloop
  endfacet
  facet normal 0 1 0
    outer loop
      vertex 0.89125353097915649 0 0.012143147177994251
      vertex 0.85937291383743286 0 0.024286294355988503
      vertex 0.94585812091827393 0 0.015131372027099133
    endloop
  endfacet
  facet normal 0 1 0
    outer loop
      vertex 0.95501464605331421 0 0.0030357867944985628
      vertex 0.95501464605331421 0 0.0060715735889971256
      vertex 0.96298480033874512 0 0.0030357867944985628
    endloop
  endfacet
  facet normal -0 1 0
    outer loop
      vertex 0.96884047985076904 0 0.0069860024377703667
      vertex 0.96298480033874512 0 0.0030357867944985628
      vertex 0.95501464605331421 0 0.0060715735889971256
    endloop
  endfacet
  facet normal 0 1 0
    outer loop
      vertex 0.97095495462417603 0 0.0030357867944985628
      vertex 0.96884047985076904 0 0.0069860024377703667
      vertex 0.97465550899505615 0 0.0033903173170983791
    endloop
  endfacet
  facet normal 0 1 0
    outer loop
      vertex 0.97494000196456909 0 0.002276840154081583
      vertex 0.97095495462417603 0 0.0030357867944985628
      vertex 0.97465550899505615 0 0.0033903173170983791
    endloop
  endfacet
  facet normal 0 1 -0
    outer loop
      vertex 0.96298480033874512 0 0.0030357867944985628
      vertex 0.96884047985076904 0 0.0069860024377703667
      vertex 0.97095495462417603 0 0.0030357867944985628
    endloop
  endfacet
  facet normal 0 1 0
    outer loop
      vertex 0.96884047985076904 0 0.0069860024377703667
      vertex 0.95501464605331421 0 0.0060715735889971256
      vertex 0.94585812091827393 0 0.015131372027099133
    endloop
  endfacet
  facet normal -0 1 0
    outer loop
      vertex 0.97095495462417603 0 6.9388939039072284e-18
      vertex 0.97095495462417603 0 0.0015178933972492814
      vertex 0.97494000196456909 0 0.0015178933972492814
    endloop
  endfacet
  facet normal 0 1 -0
    outer loop
      vertex 0.97095495462417603 0 6.9388939039072284e-18
      vertex 0.97494000196456909 0 0.0015178933972492814
      vertex 0.97494000196456909 0 6.9388939039072284e-18
    endloop
  endfacet
  facet normal 0 1 0
    outer loop
      vertex 0.97494000196456909 0 0.0015178933972492814
      vertex 0.97494000196456909 0 0.002276840154081583
      vertex 0.97621190547943115 0 0.0016747673507779837
    endloop
  endfacet
  facet normal -0 1 0
    outer loop
      vertex 0.97465550899505615 0 0.0033903173170983791
      vertex 0.97621190547943115 0 0.0016747673507779837
      vertex 0.97494000196456909 0 0.002276840154081583
    endloop
  endfacet
  facet normal 0 1 0
    outer loop
      vertex 0.97494000196456909 0 0.002276840154081583
      vertex 0.97095495462417603 0 0.002276840154081583
      vertex 0.97095495462417603 0 0.0030357867944985628
    endloop
  endfacet
  facet normal 0 1 -0
    outer loop
      vertex 0.97621190547943115 0 0.0016747673507779837
      vertex 0.97689348459243774 0 5.8721784329686715e-19
      vertex 0.97494000196456909 0 0.0015178933972492814
    endloop
  endfacet
  facet normal 0 1 0
    outer loop
      vertex 0.89125353097915649 0 -0.012143147177994251
      vertex 0.85937291383743286 0 -0.024286294355988503
      vertex 0.85937291383743286 0 -0.012143147177994251
    endloop
  endfacet
  facet normal 0 1 0
    outer loop
      vertex 0.94585812091827393 0 -0.015131372027099133
      vertex 0.92313408851623535 0 -0.012143147177994251
      vertex 0.93907439708709717 0 -0.0060715735889971256
    endloop
  endfacet
  facet normal -0 1 -0
    outer loop
      vertex 0.92313408851623535 0 -0.0060715735889971256
      vertex 0.93907439708709717 0 -0.0060715735889971256
      vertex 0.92313408851623535 0 -0.012143147177994251
    endloop
  endfacet
  facet normal -0 1 0
    outer loop
      vertex 0.95501464605331421 0 -0.0060715735889971256
      vertex 0.94585812091827393 0 -0.015131372027099133
      vertex 0.93907439708709717 0 -0.0060715735889971256
    endloop
  endfacet
  facet normal 0 1 -0
    outer loop
      vertex 0.89125353097915649 0 -0.012143147177994251
      vertex 0.92313408851623535 0 -0.012143147177994251
      vertex 0.94585812091827393 0 -0.015131372027099133
    endloop
  endfacet
  facet normal 0 1 0
    outer loop
      vertex 0.94585812091827393 0 -0.015131372027099133
      vertex 0.85937291383743286 0 -0.024286294355988503
      vertex 0.89125353097915649 0 -0.012143147177994251
    endloop
  endfacet
  facet normal 0 1 -0
    outer loop
      vertex 0.71618825197219849 0 -0.060239240527153015
      vertex 0.60432833433151245 0 -0.048572588711977005
      vertex 0.73185062408447266 0 -0.024286294355988503
    endloop
  endfacet
  facet normal 0 1 0
    outer loop
      vertex 0.83093380928039551 0 -0.040170956403017044
      vertex 0.71618825197219849 0 -0.060239240527153015
      vertex 0.73185062408447266 0 -0.024286294355988503
    endloop
  endfacet
  facet normal 0 1 -0
    outer loop
      vertex 0.57484310865402222 0 -0.079699628055095673
      vertex 0.60432833433151245 0 -0.048572588711977005
      vertex 0.71618825197219849 0 -0.060239240527153015
    endloop
  endfacet
  facet normal -0 1 0
    outer loop
      vertex 0.83093380928039551 0 -0.040170956403017044
      vertex 0.79561179876327515 0 -0.024286294355988503
      vertex 0.85937291383743286 0 -0.024286294355988503
    endloop
  endfacet
  facet normal 0 1 0
    outer loop
      vertex 0.94585812091827393 0 -0.015131372027099133
      vertex 0.83093380928039551 0 -0.040170956403017044
      vertex 0.85937291383743286 0 -0.024286294355988503
    endloop
  endfacet
  facet normal 0 1 0
    outer loop
      vertex 0.73185062408447266 0 -0.024286294355988503
      vertex 0.79561179876327515 0 -0.024286294355988503
      vertex 0.83093380928039551 0 -0.040170956403017044
    endloop
  endfacet
  facet normal 0 1 0
    outer loop
      vertex 0.97689348459243774 0 5.8721784329686715e-19
      vertex 0.97494000196456909 0 -0.0007589466986246407
      vertex 0.97494000196456909 0 6.9388939039072284e-18
    endloop
  endfacet
  facet normal 0 1 0
    outer loop
      vertex 0.97494000196456909 0 -0.0015178933972492814
      vertex 0.97494000196456909 0 -0.0007589466986246407
      vertex 0.97621190547943115 0 -0.0016747673507779837
    endloop
  endfacet
  facet normal -0 1 0
    outer loop
      vertex 0.97689348459243774 0 5.8721784329686715e-19
      vertex 0.97621190547943115 0 -0.0016747673507779837
      vertex 0.97494000196456909 0 -0.0007589466986246407
    endloop
  endfacet
  facet normal 0 1 0
    outer loop
      vertex 0.97689348459243774 0 5.8721784329686715e-19
      vertex 0.97494000196456909 0 6.9388939039072284e-18
      vertex 0.97494000196456909 0 0.0015178933972492814
    endloop
  endfacet
  facet normal 0 1 0
    outer loop
      vertex 0.97621190547943115 0 -0.0016747673507779837
      vertex 0.97494000196456909 0 -0.002276840154081583
      vertex 0.97494000196456909 0 -0.0015178933972492814
    endloop
  endfacet
  facet normal -0 1 0
    outer loop
      vertex 0.95501464605331421 0 -0.0060715735889971256
      vertex 0.95501464605331421 0 -0.0030357867944985628
      vertex 0.96298480033874512 0 -0.0030357867944985628
    endloop
  endfacet
  facet normal 0 1 0
    outer loop
      vertex 0.97095495462417603 0 -0.0030357867944985628
      vertex 0.95501464605331421 0 -0.0060715735889971256
      vertex 0.96298480033874512 0 -0.0030357867944985628
    endloop
  endfacet
  facet normal -0 1 0
    outer loop
      vertex 0.97465550899505615 0 -0.0033903173170983791
      vertex 0.97095495462417603 0 -0.0030357867944985628
      vertex 0.97494000196456909 0 -0.002276840154081583
    endloop
  endfacet
  facet normal 0 1 0
    outer loop
      vertex 0.97621190547943115 0 -0.0016747673507779837
      vertex 0.97465550899505615 0 -0.0033903173170983791
      vertex 0.97494000196456909 0 -0.002276840154081583
    endloop
  endfacet
  facet normal 0 1 -0
    outer loop
      vertex 0.95501464605331421 0 -0.0060715735889971256
      vertex 0.97095495462417603 0 -0.0030357867944985628
      vertex 0.97465550899505615 0 -0.0033903173170983791
    endloop
  endfacet
  facet normal -0 1 -0
    outer loop
      vertex 0.97095495462417603 0 -0.002276840154081583
      vertex 0.97494000196456909 0 -0.002276840154081583
      vertex 0.97095495462417603 0 -0.0030357867944985628
    endloop
  endfacet
  facet normal 0 1 0
    outer loop
      vertex 0.94585812091827393 0 -0.015131372027099133
      vertex 0.95501464605331421 0 -0.0060715735889971256
      vertex 0.97465550899505615 0 -0.0033903173170983791
    endloop
  endfacet
endsolid OBJECT
