solid OBJECT
  facet normal 0 1 -0
    outer loop
      vertex 0.30679035186767578 0 -0.42250940203666687
      vertex 0.30679035186767578 0 -0.44415342807769775
      vertex 0.13677686452865601 0 -0.44415342807769775
    endloop
  endfacet
  facet normal 0 1 -0
    outer loop
      vertex 0.30679035186767578 0 -0.42250940203666687
      vertex 0.13677686452865601 0 -0.44415342807769775
      vertex 0.13677686452865601 0 -0.42250940203666687
    endloop
  endfacet
  facet normal 0 1 -0
    outer loop
      vertex 0.47680386900901794 0 -0.42250940203666687
      vertex 0.47680386900901794 0 -0.44415342807769775
      vertex 0.30679035186767578 0 -0.44415342807769775
    endloop
  endfacet
  facet normal 0 1 0
    outer loop
      vertex 0.47680386900901794 0 -0.42250940203666687
      vertex 0.30679035186767578 0 -0.44415342807769775
      vertex 0.30679035186767578 0 -0.42250940203666687
    endloop
  endfacet
  facet normal 0 1 0
    outer loop
      vertex 0.64681732654571533 0 -0.43333142995834351
      vertex 0.47680386900901794 0 -0.42250940203666687
      vertex 0.64681732654571533 0 -0.42250940203666687
    endloop
  endfacet
  facet normal 0 1 -0
    outer loop
      vertex 0.47680386900901794 0 -0.44415342807769775
      vertex 0.64681732654571533 0 -0.43333142995834351
      vertex 0.64681732654571533 0 -0.44415342807769775
    endloop
  endfacet
  facet normal -0 1 -0
    outer loop
      vertex 0.47680386900901794 0 -0.42250940203666687
      vertex 0.64681732654571533 0 -0.43333142995834351
      vertex 0.47680386900901794 0 -0.44415342807769775
    endloop
  endfacet
  facet normal 0 1 0
    outer loop
      vertex 0.81683087348937988 0 -0.42792043089866638
      vertex 0.73182410001754761 0 -0.42250940203666687
      vertex 0.81683087348937988 0 -0.42250940203666687
    endloop
  endfacet
  facet normal 0 1 -0
    outer loop
      vertex 0.73182410001754761 0 -0.43333142995834351
      vertex 0.81683087348937988 0 -0.42792043089866638
      vertex 0.81683087348937988 0 -0.43333142995834351
    endloop
  endfacet
  facet normal -0 1 -0
    outer loop
      vertex 0.73182410001754761 0 -0.42250940203666687
      vertex 0.81683087348937988 0 -0.42792043089866638
      vertex 0.73182410001754761 0 -0.43333142995834351
    endloop
  endfacet
  facet normal 0 1 -0
    outer loop
      vertex 0.73182410001754761 0 -0.42250940203666687
      vertex 0.73182410001754761 0 -0.43333142995834351
      vertex 0.64681732654571533 0 -0.43333142995834351
    endloop
  endfacet
  facet normal 0 1 0
    outer loop
      vertex 0.73182410001754761 0 -0.42250940203666687
      vertex 0.64681732654571533 0 -0.43333142995834351
      vertex 0.64681732654571533 0 -0.42250940203666687
    endloop
  endfacet
  facet normal 0 1 -0
    outer loop
      vertex 0.73182410001754761 0 -0.43333142995834351
      vertex 0.73182410001754761 0 -0.44415342807769775
      vertex 0.64681732654571533 0 -0.44415342807769775
    endloop
  endfacet
  facet normal 0 1 0
    outer loop
      vertex 0.73182410001754761 0 -0.43333142995834351
      vertex 0.64681732654571533 0 -0.44415342807769775
      vertex 0.64681732654571533 0 -0.43333142995834351
    endloop
  endfacet
  facet normal 0 1 -0
    outer loop
      vertex 0.81683087348937988 0 -0.43874242901802063
      vertex 0.73182410001754761 0 -0.43333142995834351
      vertex 0.81683087348937988 0 -0.43333142995834351
    endloop
  endfacet
  facet normal 0 1 -0
    outer loop
      vertex 0.73182410001754761 0 -0.44415342807769775
      vertex 0.81683087348937988 0 -0.43874242901802063
      vertex 0.81683087348937988 0 -0.44415342807769775
    endloop
  endfacet
  facet normal -0 1 -0
    outer loop
      vertex 0.73182410001754761 0 -0.43333142995834351
      vertex 0.81683087348937988 0 -0.43874242901802063
      vertex 0.73182410001754761 0 -0.44415342807769775
    endloop
  endfacet
  facet normal 0 1 -0
    outer loop
      vertex 0.94434094429016113 0 -0.42792043089866638
      vertex 0.94434094429016113 0 -0.43062591552734375
      vertex 0.92308926582336426 0 -0.43062591552734375
    endloop
  endfacet
  facet normal 0 1 0
    outer loop
      vertex 0.94434094429016113 0 -0.42792043089866638
      vertex 0.92308926582336426 0 -0.43062591552734375
      vertex 0.92308926582336426 0 -0.42792043089866638
    endloop
  endfacet
  facet normal 0 1 -0
    outer loop
      vertex 0.92308926582336426 0 -0.42792043089866638
      vertex 0.92308926582336426 0 -0.43062591552734375
      vertex 0.90183758735656738 0 -0.43062591552734375
    endloop
  endfacet
  facet normal 0 1 0
    outer loop
      vertex 0.92308926582336426 0 -0.42792043089866638
      vertex 0.90183758735656738 0 -0.43062591552734375
      vertex 0.90183758735656738 0 -0.42792043089866638
    endloop
  endfacet
  facet normal 0 1 -0
    outer loop
      vertex 0.92308926582336426 0 -0.43062591552734375
      vertex 0.92308926582336426 0 -0.43333142995834351
      vertex 0.90183758735656738 0 -0.43333142995834351
    endloop
  endfacet
  facet normal 0 1 0
    outer loop
      vertex 0.92308926582336426 0 -0.43062591552734375
      vertex 0.90183758735656738 0 -0.43333142995834351
      vertex 0.90183758735656738 0 -0.43062591552734375
    endloop
  endfacet
  facet normal 0 1 0
    outer loop
      vertex 0.94434094429016113 0 -0.43197867274284363
      vertex 0.92308926582336426 0 -0.43062591552734375
      vertex 0.94434094429016113 0 -0.43062591552734375
    endloop
  endfacet
  facet normal 0 1 -0
    outer loop
      vertex 0.92308926582336426 0 -0.43333142995834351
      vertex 0.94434094429016113 0 -0.43197867274284363
      vertex 0.94434094429016113 0 -0.43333142995834351
    endloop
  endfacet
  facet normal -0 1 -0
    outer loop
      vertex 0.92308926582336426 0 -0.43062591552734375
      vertex 0.94434094429016113 0 -0.43197867274284363
      vertex 0.92308926582336426 0 -0.43333142995834351
    endloop
  endfacet
  facet normal 0 1 -0
    outer loop
      vertex 0.96559268236160278 0 -0.43130230903625488
      vertex 0.95496684312820435 0 -0.43062591552734375
      vertex 0.96559268236160278 0 -0.43062591552734375
    endloop
  endfacet
  facet normal 0 1 -0
    outer loop
      vertex 0.95496684312820435 0 -0.43197867274284363
      vertex 0.96559268236160278 0 -0.43130230903625488
      vertex 0.96559268236160278 0 -0.43197867274284363
    endloop
  endfacet
  facet normal -0 1 -0
    outer loop
      vertex 0.95496684312820435 0 -0.43062591552734375
      vertex 0.96559268236160278 0 -0.43130230903625488
      vertex 0.95496684312820435 0 -0.43197867274284363
    endloop
  endfacet
  facet normal 0 1 -0
    outer loop
      vertex 0.95496684312820435 0 -0.43062591552734375
      vertex 0.95496684312820435 0 -0.43197867274284363
      vertex 0.94434094429016113 0 -0.43197867274284363
    endloop
  endfacet
  facet normal 0 1 0
    outer loop
      vertex 0.95496684312820435 0 -0.43062591552734375
      vertex 0.94434094429016113 0 -0.43197867274284363
      vertex 0.94434094429016113 0 -0.43062591552734375
    endloop
  endfacet
  facet normal 0 1 -0
    outer loop
      vertex 0.95496684312820435 0 -0.43197867274284363
      vertex 0.95496684312820435 0 -0.43333142995834351
      vertex 0.94434094429016113 0 -0.43333142995834351
    endloop
  endfacet
  facet normal 0 1 0
    outer loop
      vertex 0.95496684312820435 0 -0.43197867274284363
      vertex 0.94434094429016113 0 -0.43333142995834351
      vertex 0.94434094429016113 0 -0.43197867274284363
    endloop
  endfacet
  facet normal 0 1 -0
    outer loop
      vertex 0.96559268236160278 0 -0.43265503644943237
      vertex 0.95496684312820435 0 -0.43197867274284363
      vertex 0.96559268236160278 0 -0.43197867274284363
    endloop
  endfacet
  facet normal 0 1 -0
    outer loop
      vertex 0.95496684312820435 0 -0.43333142995834351
      vertex 0.96559268236160278 0 -0.43265503644943237
      vertex 0.96559268236160278 0 -0.43333142995834351
    endloop
  endfacet
  facet normal -0 1 -0
    outer loop
      vertex 0.95496684312820435 0 -0.43197867274284363
      vertex 0.96559268236160278 0 -0.43265503644943237
      vertex 0.95496684312820435 0 -0.43333142995834351
    endloop
  endfacet
  facet normal 0 1 -0
    outer loop
      vertex 0.970905601978302 0 -0.43130230903625488
      vertex 0.970905601978302 0 -0.43197867274284363
      vertex 0.96559268236160278 0 -0.43197867274284363
    endloop
  endfacet
  facet normal 0 1 0
    outer loop
      vertex 0.970905601978302 0 -0.43130230903625488
      vertex 0.96559268236160278 0 -0.43197867274284363
      vertex 0.96559268236160278 0 -0.43130230903625488
    endloop
  endfacet
  facet normal 0 1 -0
    outer loop
      vertex 0.970905601978302 0 -0.43197867274284363
      vertex 0.970905601978302 0 -0.43265503644943237
      vertex 0.96559268236160278 0 -0.43265503644943237
    endloop
  endfacet
  facet normal 0 1 0
    outer loop
      vertex 0.970905601978302 0 -0.43197867274284363
      vertex 0.96559268236160278 0 -0.43265503644943237
      vertex 0.96559268236160278 0 -0.43197867274284363
    endloop
  endfacet
  facet normal 0 1 -0
    outer loop
      vertex 0.970905601978302 0 -0.43299323320388794
      vertex 0.96559268236160278 0 -0.43265503644943237
      vertex 0.970905601978302 0 -0.43265503644943237
    endloop
  endfacet
  facet normal 0 1 -0
    outer loop
      vertex 0.96559268236160278 0 -0.43333142995834351
      vertex 0.970905601978302 0 -0.43299323320388794
      vertex 0.970905601978302 0 -0.43333142995834351
    endloop
  endfacet
  facet normal -0 1 -0
    outer loop
      vertex 0.96559268236160278 0 -0.43265503644943237
      vertex 0.970905601978302 0 -0.43299323320388794
      vertex 0.96559268236160278 0 -0.43333142995834351
    endloop
  endfacet
  facet normal 0 1 -0
    outer loop
      vertex 0.97356206178665161 0 -0.43265503644943237
      vertex 0.97356206178665161 0 -0.43299323320388794
      vertex 0.970905601978302 0 -0.43299323320388794
    endloop
  endfacet
  facet normal 0 1 0
    outer loop
      vertex 0.97356206178665161 0 -0.43265503644943237
      vertex 0.970905601978302 0 -0.43299323320388794
      vertex 0.970905601978302 0 -0.43265503644943237
    endloop
  endfacet
  facet normal 0 1 -0
    outer loop
      vertex 0.97356206178665161 0 -0.43316233158111572
      vertex 0.970905601978302 0 -0.43299323320388794
      vertex 0.97356206178665161 0 -0.43299323320388794
    endloop
  endfacet
  facet normal 0 1 -0
    outer loop
      vertex 0.970905601978302 0 -0.43333142995834351
      vertex 0.97356206178665161 0 -0.43316233158111572
      vertex 0.97356206178665161 0 -0.43333142995834351
    endloop
  endfacet
  facet normal -0 1 -0
    outer loop
      vertex 0.970905601978302 0 -0.43299323320388794
      vertex 0.97356206178665161 0 -0.43316233158111572
      vertex 0.970905601978302 0 -0.43333142995834351
    endloop
  endfacet
  facet normal 0 1 -0
    outer loop
      vertex 0.97621852159500122 0 -0.43307778239250183
      vertex 0.97489029169082642 0 -0.43299323320388794
      vertex 0.97621852159500122 0 -0.43299323320388794
    endloop
  endfacet
  facet normal 0 1 -0
    outer loop
      vertex 0.97489029169082642 0 -0.43316233158111572
      vertex 0.97621852159500122 0 -0.43307778239250183
      vertex 0.97621852159500122 0 -0.43316233158111572
    endloop
  endfacet
  facet normal -0 1 -0
    outer loop
      vertex 0.97489029169082642 0 -0.43299323320388794
      vertex 0.97621852159500122 0 -0.43307778239250183
      vertex 0.97489029169082642 0 -0.43316233158111572
    endloop
  endfacet
  facet normal 0 1 -0
    outer loop
      vertex 0.97489029169082642 0 -0.43299323320388794
      vertex 0.97489029169082642 0 -0.43316233158111572
      vertex 0.97356206178665161 0 -0.43316233158111572
    endloop
  endfacet
  facet normal 0 1 0
    outer loop
      vertex 0.97489029169082642 0 -0.43299323320388794
      vertex 0.97356206178665161 0 -0.43316233158111572
      vertex 0.97356206178665161 0 -0.43299323320388794
    endloop
  endfacet
  facet normal 0 1 -0
    outer loop
      vertex 0.97489029169082642 0 -0.43316233158111572
      vertex 0.97489029169082642 0 -0.43333142995834351
      vertex 0.97356206178665161 0 -0.43333142995834351
    endloop
  endfacet
  facet normal 0 1 0
    outer loop
      vertex 0.97489029169082642 0 -0.43316233158111572
      vertex 0.97356206178665161 0 -0.43333142995834351
      vertex 0.97356206178665161 0 -0.43316233158111572
    endloop
  endfacet
  facet normal 0 1 -0
    outer loop
      vertex 0.97621852159500122 0 -0.43324688076972961
      vertex 0.97489029169082642 0 -0.43316233158111572
      vertex 0.97621852159500122 0 -0.43316233158111572
    endloop
  endfacet
  facet normal 0 1 -0
    outer loop
      vertex 0.97489029169082642 0 -0.43333142995834351
      vertex 0.97621852159500122 0 -0.43324688076972961
      vertex 0.97621852159500122 0 -0.43333142995834351
    endloop
  endfacet
  facet normal -0 1 -0
    outer loop
      vertex 0.97489029169082642 0 -0.43316233158111572
      vertex 0.97621852159500122 0 -0.43324688076972961
      vertex 0.97489029169082642 0 -0.43333142995834351
    endloop
  endfacet
  facet normal 0 1 -0
    outer loop
      vertex 0.90183758735656738 0 -0.42250940203666687
      vertex 0.90183758735656738 0 -0.42792043089866638
      vertex 0.85933423042297363 0 -0.42792043089866638
    endloop
  endfacet
  facet normal 0 1 0
    outer loop
      vertex 0.90183758735656738 0 -0.42250940203666687
      vertex 0.85933423042297363 0 -0.42792043089866638
      vertex 0.85933423042297363 0 -0.42250940203666687
    endloop
  endfacet
  facet normal 0 1 -0
    outer loop
      vertex 0.85933423042297363 0 -0.42250940203666687
      vertex 0.85933423042297363 0 -0.42792043089866638
      vertex 0.81683087348937988 0 -0.42792043089866638
    endloop
  endfacet
  facet normal 0 1 0
    outer loop
      vertex 0.85933423042297363 0 -0.42250940203666687
      vertex 0.81683087348937988 0 -0.42792043089866638
      vertex 0.81683087348937988 0 -0.42250940203666687
    endloop
  endfacet
  facet normal 0 1 -0
    outer loop
      vertex 0.85933423042297363 0 -0.42792043089866638
      vertex 0.85933423042297363 0 -0.43333142995834351
      vertex 0.81683087348937988 0 -0.43333142995834351
    endloop
  endfacet
  facet normal 0 1 -0
    outer loop
      vertex 0.85933423042297363 0 -0.42792043089866638
      vertex 0.81683087348937988 0 -0.43333142995834351
      vertex 0.81683087348937988 0 -0.42792043089866638
    endloop
  endfacet
  facet normal 0 1 0
    outer loop
      vertex 0.90183758735656738 0 -0.43062591552734375
      vertex 0.85933423042297363 0 -0.42792043089866638
      vertex 0.90183758735656738 0 -0.42792043089866638
    endloop
  endfacet
  facet normal 0 1 -0
    outer loop
      vertex 0.85933423042297363 0 -0.43333142995834351
      vertex 0.90183758735656738 0 -0.43062591552734375
      vertex 0.90183758735656738 0 -0.43333142995834351
    endloop
  endfacet
  facet normal -0 1 -0
    outer loop
      vertex 0.85933423042297363 0 -0.42792043089866638
      vertex 0.90183758735656738 0 -0.43062591552734375
      vertex 0.85933423042297363 0 -0.43333142995834351
    endloop
  endfacet
  facet normal 0 1 0
    outer loop
      vertex 0.90183758735656738 0 -0.43603691458702087
      vertex 0.85933423042297363 0 -0.43333142995834351
      vertex 0.90183758735656738 0 -0.43333142995834351
    endloop
  endfacet
  facet normal 0 1 -0
    outer loop
      vertex 0.85933423042297363 0 -0.43874242901802063
      vertex 0.90183758735656738 0 -0.43603691458702087
      vertex 0.90183758735656738 0 -0.43874242901802063
    endloop
  endfacet
  facet normal -0 1 -0
    outer loop
      vertex 0.85933423042297363 0 -0.43333142995834351
      vertex 0.90183758735656738 0 -0.43603691458702087
      vertex 0.85933423042297363 0 -0.43874242901802063
    endloop
  endfacet
  facet normal 0 1 -0
    outer loop
      vertex 0.85933423042297363 0 -0.43333142995834351
      vertex 0.85933423042297363 0 -0.43874242901802063
      vertex 0.81683087348937988 0 -0.43874242901802063
    endloop
  endfacet
  facet normal 0 1 -0
    outer loop
      vertex 0.85933423042297363 0 -0.43333142995834351
      vertex 0.81683087348937988 0 -0.43874242901802063
      vertex 0.81683087348937988 0 -0.43333142995834351
    endloop
  endfacet
  facet normal 0 1 -0
    outer loop
      vertex 0.85933423042297363 0 -0.43874242901802063
      vertex 0.85933423042297363 0 -0.44415342807769775
      vertex 0.81683087348937988 0 -0.44415342807769775
    endloop
  endfacet
  facet normal 0 1 -0
    outer loop
      vertex 0.85933423042297363 0 -0.43874242901802063
      vertex 0.81683087348937988 0 -0.44415342807769775
      vertex 0.81683087348937988 0 -0.43874242901802063
    endloop
  endfacet
  facet normal 0 1 -0
    outer loop
      vertex 0.90183758735656738 0 -0.43874242901802063
      vertex 0.90183758735656738 0 -0.44415342807769775
      vertex 0.85933423042297363 0 -0.44415342807769775
    endloop
  endfacet
  facet normal 0 1 -0
    outer loop
      vertex 0.90183758735656738 0 -0.43874242901802063
      vertex 0.85933423042297363 0 -0.44415342807769775
      vertex 0.85933423042297363 0 -0.43874242901802063
    endloop
  endfacet
  facet normal 0 1 -0
    outer loop
      vertex 0.97621852159500122 0 -0.43333142995834351
      vertex 0.97621852159500122 0 -0.43350052833557129
      vertex 0.97489029169082642 0 -0.43350052833557129
    endloop
  endfacet
  facet normal 0 1 0
    outer loop
      vertex 0.97621852159500122 0 -0.43333142995834351
      vertex 0.97489029169082642 0 -0.43350052833557129
      vertex 0.97489029169082642 0 -0.43333142995834351
    endloop
  endfacet
  facet normal 0 1 -0
    outer loop
      vertex 0.97489029169082642 0 -0.43333142995834351
      vertex 0.97489029169082642 0 -0.43350052833557129
      vertex 0.97356206178665161 0 -0.43350052833557129
    endloop
  endfacet
  facet normal 0 1 0
    outer loop
      vertex 0.97489029169082642 0 -0.43333142995834351
      vertex 0.97356206178665161 0 -0.43350052833557129
      vertex 0.97356206178665161 0 -0.43333142995834351
    endloop
  endfacet
  facet normal 0 1 -0
    outer loop
      vertex 0.97489029169082642 0 -0.43350052833557129
      vertex 0.97489029169082642 0 -0.43366959691047668
      vertex 0.97356206178665161 0 -0.43366959691047668
    endloop
  endfacet
  facet normal 0 1 -0
    outer loop
      vertex 0.97489029169082642 0 -0.43350052833557129
      vertex 0.97356206178665161 0 -0.43366959691047668
      vertex 0.97356206178665161 0 -0.43350052833557129
    endloop
  endfacet
  facet normal 0 1 0
    outer loop
      vertex 0.97621852159500122 0 -0.43358504772186279
      vertex 0.97489029169082642 0 -0.43350052833557129
      vertex 0.97621852159500122 0 -0.43350052833557129
    endloop
  endfacet
  facet normal 0 1 -0
    outer loop
      vertex 0.97489029169082642 0 -0.43366959691047668
      vertex 0.97621852159500122 0 -0.43358504772186279
      vertex 0.97621852159500122 0 -0.43366959691047668
    endloop
  endfacet
  facet normal -0 1 -0
    outer loop
      vertex 0.97489029169082642 0 -0.43350052833557129
      vertex 0.97621852159500122 0 -0.43358504772186279
      vertex 0.97489029169082642 0 -0.43366959691047668
    endloop
  endfacet
  facet normal 0 1 -0
    outer loop
      vertex 0.97356206178665161 0 -0.43350052833557129
      vertex 0.970905601978302 0 -0.43333142995834351
      vertex 0.97356206178665161 0 -0.43333142995834351
    endloop
  endfacet
  facet normal -0 1 0
    outer loop
      vertex 0.970905601978302 0 -0.43366959691047668
      vertex 0.97356206178665161 0 -0.43350052833557129
      vertex 0.97356206178665161 0 -0.43366959691047668
    endloop
  endfacet
  facet normal -0 1 -0
    outer loop
      vertex 0.970905601978302 0 -0.43333142995834351
      vertex 0.97356206178665161 0 -0.43350052833557129
      vertex 0.970905601978302 0 -0.43366959691047668
    endloop
  endfacet
  facet normal 0 1 -0
    outer loop
      vertex 0.97356206178665161 0 -0.43366959691047668
      vertex 0.97356206178665161 0 -0.43400779366493225
      vertex 0.970905601978302 0 -0.43400779366493225
    endloop
  endfacet
  facet normal 0 1 0
    outer loop
      vertex 0.97356206178665161 0 -0.43366959691047668
      vertex 0.970905601978302 0 -0.43400779366493225
      vertex 0.970905601978302 0 -0.43366959691047668
    endloop
  endfacet
  facet normal 0 1 -0
    outer loop
      vertex 0.970905601978302 0 -0.43366959691047668
      vertex 0.96559268236160278 0 -0.43333142995834351
      vertex 0.970905601978302 0 -0.43333142995834351
    endloop
  endfacet
  facet normal 0 1 -0
    outer loop
      vertex 0.96559268236160278 0 -0.43400779366493225
      vertex 0.970905601978302 0 -0.43366959691047668
      vertex 0.970905601978302 0 -0.43400779366493225
    endloop
  endfacet
  facet normal -0 1 -0
    outer loop
      vertex 0.96559268236160278 0 -0.43333142995834351
      vertex 0.970905601978302 0 -0.43366959691047668
      vertex 0.96559268236160278 0 -0.43400779366493225
    endloop
  endfacet
  facet normal 0 1 -0
    outer loop
      vertex 0.970905601978302 0 -0.43400779366493225
      vertex 0.970905601978302 0 -0.43468418717384338
      vertex 0.96559268236160278 0 -0.43468418717384338
    endloop
  endfacet
  facet normal 0 1 0
    outer loop
      vertex 0.970905601978302 0 -0.43400779366493225
      vertex 0.96559268236160278 0 -0.43468418717384338
      vertex 0.96559268236160278 0 -0.43400779366493225
    endloop
  endfacet
  facet normal 0 1 -0
    outer loop
      vertex 0.970905601978302 0 -0.43468418717384338
      vertex 0.970905601978302 0 -0.43536055088043213
      vertex 0.96559268236160278 0 -0.43536055088043213
    endloop
  endfacet
  facet normal 0 1 0
    outer loop
      vertex 0.970905601978302 0 -0.43468418717384338
      vertex 0.96559268236160278 0 -0.43536055088043213
      vertex 0.96559268236160278 0 -0.43468418717384338
    endloop
  endfacet
  facet normal 0 1 -0
    outer loop
      vertex 0.96559268236160278 0 -0.43400779366493225
      vertex 0.95496684312820435 0 -0.43333142995834351
      vertex 0.96559268236160278 0 -0.43333142995834351
    endloop
  endfacet
  facet normal 0 1 -0
    outer loop
      vertex 0.95496684312820435 0 -0.43468418717384338
      vertex 0.96559268236160278 0 -0.43400779366493225
      vertex 0.96559268236160278 0 -0.43468418717384338
    endloop
  endfacet
  facet normal -0 1 -0
    outer loop
      vertex 0.95496684312820435 0 -0.43333142995834351
      vertex 0.96559268236160278 0 -0.43400779366493225
      vertex 0.95496684312820435 0 -0.43468418717384338
    endloop
  endfacet
  facet normal 0 1 -0
    outer loop
      vertex 0.95496684312820435 0 -0.43333142995834351
      vertex 0.95496684312820435 0 -0.43468418717384338
      vertex 0.94434094429016113 0 -0.43468418717384338
    endloop
  endfacet
  facet normal 0 1 0
    outer loop
      vertex 0.95496684312820435 0 -0.43333142995834351
      vertex 0.94434094429016113 0 -0.43468418717384338
      vertex 0.94434094429016113 0 -0.43333142995834351
    endloop
  endfacet
  facet normal 0 1 -0
    outer loop
      vertex 0.95496684312820435 0 -0.43468418717384338
      vertex 0.95496684312820435 0 -0.43603691458702087
      vertex 0.94434094429016113 0 -0.43603691458702087
    endloop
  endfacet
  facet normal 0 1 0
    outer loop
      vertex 0.95496684312820435 0 -0.43468418717384338
      vertex 0.94434094429016113 0 -0.43603691458702087
      vertex 0.94434094429016113 0 -0.43468418717384338
    endloop
  endfacet
  facet normal 0 1 -0
    outer loop
      vertex 0.96559268236160278 0 -0.43536055088043213
      vertex 0.95496684312820435 0 -0.43468418717384338
      vertex 0.96559268236160278 0 -0.43468418717384338
    endloop
  endfacet
  facet normal 0 1 -0
    outer loop
      vertex 0.95496684312820435 0 -0.43603691458702087
      vertex 0.96559268236160278 0 -0.43536055088043213
      vertex 0.96559268236160278 0 -0.43603691458702087
    endloop
  endfacet
  facet normal -0 1 -0
    outer loop
      vertex 0.95496684312820435 0 -0.43468418717384338
      vertex 0.96559268236160278 0 -0.43536055088043213
      vertex 0.95496684312820435 0 -0.43603691458702087
    endloop
  endfacet
  facet normal 0 1 0
    outer loop
      vertex 0.94434094429016113 0 -0.43468418717384338
      vertex 0.92308926582336426 0 -0.43333142995834351
      vertex 0.94434094429016113 0 -0.43333142995834351
    endloop
  endfacet
  facet normal 0 1 -0
    outer loop
      vertex 0.92308926582336426 0 -0.43603691458702087
      vertex 0.94434094429016113 0 -0.43468418717384338
      vertex 0.94434094429016113 0 -0.43603691458702087
    endloop
  endfacet
  facet normal -0 1 -0
    outer loop
      vertex 0.92308926582336426 0 -0.43333142995834351
      vertex 0.94434094429016113 0 -0.43468418717384338
      vertex 0.92308926582336426 0 -0.43603691458702087
    endloop
  endfacet
  facet normal 0 1 -0
    outer loop
      vertex 0.92308926582336426 0 -0.43333142995834351
      vertex 0.92308926582336426 0 -0.43603691458702087
      vertex 0.90183758735656738 0 -0.43603691458702087
    endloop
  endfacet
  facet normal 0 1 0
    outer loop
      vertex 0.92308926582336426 0 -0.43333142995834351
      vertex 0.90183758735656738 0 -0.43603691458702087
      vertex 0.90183758735656738 0 -0.43333142995834351
    endloop
  endfacet
  facet normal 0 1 -0
    outer loop
      vertex 0.92308926582336426 0 -0.43603691458702087
      vertex 0.92308926582336426 0 -0.43874242901802063
      vertex 0.90183758735656738 0 -0.43874242901802063
    endloop
  endfacet
  facet normal 0 1 0
    outer loop
      vertex 0.92308926582336426 0 -0.43603691458702087
      vertex 0.90183758735656738 0 -0.43874242901802063
      vertex 0.90183758735656738 0 -0.43603691458702087
    endloop
  endfacet
  facet normal 0 1 -0
    outer loop
      vertex 0.94434094429016113 0 -0.43603691458702087
      vertex 0.94434094429016113 0 -0.43874242901802063
      vertex 0.92308926582336426 0 -0.43874242901802063
    endloop
  endfacet
  facet normal 0 1 0
    outer loop
      vertex 0.94434094429016113 0 -0.43603691458702087
      vertex 0.92308926582336426 0 -0.43874242901802063
      vertex 0.92308926582336426 0 -0.43603691458702087
    endloop
  endfacet
  facet normal 0 1 0
    outer loop
      vertex 0.20875662565231323 0 -0.46405163407325745
      vertex 0.13557001948356628 0 -0.46273365616798401
      vertex 0.13677686452865601 0 -0.44415342807769775
    endloop
  endfacet
  facet normal 0 1 0
    outer loop
      vertex 0.34396153688430786 0 -0.46560618281364441
      vertex 0.27813616394996643 0 -0.46501675248146057
      vertex 0.30679035186767578 0 -0.44415342807769775
    endloop
  endfacet
  facet normal -0 1 0
    outer loop
      vertex 0.30679035186767578 0 -0.44415342807769775
      vertex 0.27813616394996643 0 -0.46501675248146057
      vertex 0.20875662565231323 0 -0.46405163407325745
    endloop
  endfacet
  facet normal 0 1 0
    outer loop
      vertex 0.30679035186767578 0 -0.44415342807769775
      vertex 0.40648561716079712 0 -0.46579715609550476
      vertex 0.34396153688430786 0 -0.46560618281364441
    endloop
  endfacet
  facet normal 0 1 -0
    outer loop
      vertex 0.13677686452865601 0 -0.44415342807769775
      vertex 0.058323487639427185 0 -0.46108555793762207
      vertex -0.023235836997628212 0 -0.45913013815879822
    endloop
  endfacet
  facet normal -0 1 0
    outer loop
      vertex 0.13557001948356628 0 -0.46273365616798401
      vertex 0.058323487639427185 0 -0.46108555793762207
      vertex 0.13677686452865601 0 -0.44415342807769775
    endloop
  endfacet
  facet normal -0 1 0
    outer loop
      vertex 0.30679035186767578 0 -0.44415342807769775
      vertex 0.20875662565231323 0 -0.46405163407325745
      vertex 0.13677686452865601 0 -0.44415342807769775
    endloop
  endfacet
  facet normal -0 1 -0
    outer loop
      vertex 0.30679035186767578 0 -0.44415342807769775
      vertex 0.47680386900901794 0 -0.44415342807769775
      vertex 0.40648561716079712 0 -0.46579715609550476
    endloop
  endfacet
  facet normal 0 1 -0
    outer loop
      vertex 0.13677686452865601 0 -0.42250940203666687
      vertex 0.13677686452865601 0 -0.44415342807769775
      vertex -0.023235836997628212 0 -0.45913013815879822
    endloop
  endfacet
  facet normal 0 1 -0
    outer loop
      vertex 0.47680386900901794 0 -0.44415342807769775
      vertex 0.52264130115509033 0 -0.46489259600639343
      vertex 0.40648561716079712 0 -0.46579715609550476
    endloop
  endfacet
  facet normal -0 1 0
    outer loop
      vertex 0.64681732654571533 0 -0.44415342807769775
      vertex 0.62793773412704468 0 -0.46225893497467041
      vertex 0.47680386900901794 0 -0.44415342807769775
    endloop
  endfacet
  facet normal 0 1 0
    outer loop
      vertex 0.79958856105804443 0 -0.45397469401359558
      vertex 0.72095602750778198 0 -0.45840421319007874
      vertex 0.73182410001754761 0 -0.44415342807769775
    endloop
  endfacet
  facet normal 0 1 -0
    outer loop
      vertex 0.64681732654571533 0 -0.44415342807769775
      vertex 0.72095602750778198 0 -0.45840421319007874
      vertex 0.62793773412704468 0 -0.46225893497467041
    endloop
  endfacet
  facet normal 0 1 0
    outer loop
      vertex 0.86172807216644287 0 -0.44961655139923096
      vertex 0.79958856105804443 0 -0.45397469401359558
      vertex 0.81683087348937988 0 -0.44415342807769775
    endloop
  endfacet
  facet normal -0 1 0
    outer loop
      vertex 0.72095602750778198 0 -0.45840421319007874
      vertex 0.64681732654571533 0 -0.44415342807769775
      vertex 0.73182410001754761 0 -0.44415342807769775
    endloop
  endfacet
  facet normal 0 1 0
    outer loop
      vertex 0.86172807216644287 0 -0.44961655139923096
      vertex 0.81683087348937988 0 -0.44415342807769775
      vertex 0.85933423042297363 0 -0.44415342807769775
    endloop
  endfacet
  facet normal -0 1 0
    outer loop
      vertex 0.86172807216644287 0 -0.44961655139923096
      vertex 0.85933423042297363 0 -0.44415342807769775
      vertex 0.90183758735656738 0 -0.44415342807769775
    endloop
  endfacet
  facet normal -0 1 0
    outer loop
      vertex 0.81683087348937988 0 -0.44415342807769775
      vertex 0.79958856105804443 0 -0.45397469401359558
      vertex 0.73182410001754761 0 -0.44415342807769775
    endloop
  endfacet
  facet normal 0 1 -0
    outer loop
      vertex 0.90183758735656738 0 -0.44415342807769775
      vertex 0.96501648426055908 0 -0.43803426623344421
      vertex 0.86172807216644287 0 -0.44961655139923096
    endloop
  endfacet
  facet normal 0 1 0
    outer loop
      vertex 0.52264130115509033 0 -0.46489259600639343
      vertex 0.47680386900901794 0 -0.44415342807769775
      vertex 0.62793773412704468 0 -0.46225893497467041
    endloop
  endfacet
  facet normal 0 1 -0
    outer loop
      vertex 0.13677686452865601 0 -0.42250940203666687
      vertex -0.023235836997628212 0 -0.40753269195556641
      vertex 0.058323487639427185 0 -0.40557727217674255
    endloop
  endfacet
  facet normal 0 1 -0
    outer loop
      vertex 0.13557001948356628 0 -0.403929203748703
      vertex 0.13677686452865601 0 -0.42250940203666687
      vertex 0.058323487639427185 0 -0.40557727217674255
    endloop
  endfacet
  facet normal 0 1 0
    outer loop
      vertex 0.30679035186767578 0 -0.42250940203666687
      vertex 0.13677686452865601 0 -0.42250940203666687
      vertex 0.20875662565231323 0 -0.40261119604110718
    endloop
  endfacet
  facet normal 0 1 0
    outer loop
      vertex 0.13677686452865601 0 -0.42250940203666687
      vertex -0.023235836997628212 0 -0.45913013815879822
      vertex -0.023235836997628212 0 -0.40753269195556641
    endloop
  endfacet
  facet normal 0 1 0
    outer loop
      vertex 0.47680386900901794 0 -0.42250940203666687
      vertex 0.30679035186767578 0 -0.42250940203666687
      vertex 0.40648561716079712 0 -0.40086567401885986
    endloop
  endfacet
  facet normal -0 1 0
    outer loop
      vertex 0.20875662565231323 0 -0.40261119604110718
      vertex 0.13677686452865601 0 -0.42250940203666687
      vertex 0.13557001948356628 0 -0.403929203748703
    endloop
  endfacet
  facet normal 0 1 -0
    outer loop
      vertex 0.27813616394996643 0 -0.40164610743522644
      vertex 0.34396153688430786 0 -0.4010566771030426
      vertex 0.30679035186767578 0 -0.42250940203666687
    endloop
  endfacet
  facet normal 0 1 0
    outer loop
      vertex 0.30679035186767578 0 -0.42250940203666687
      vertex 0.20875662565231323 0 -0.40261119604110718
      vertex 0.27813616394996643 0 -0.40164610743522644
    endloop
  endfacet
  facet normal 0 1 0
    outer loop
      vertex 0.40648561716079712 0 -0.40086567401885986
      vertex 0.30679035186767578 0 -0.42250940203666687
      vertex 0.34396153688430786 0 -0.4010566771030426
    endloop
  endfacet
  facet normal -0 1 -0
    outer loop
      vertex 0.40648561716079712 0 -0.40086567401885986
      vertex 0.52264130115509033 0 -0.40177023410797119
      vertex 0.47680386900901794 0 -0.42250940203666687
    endloop
  endfacet
  facet normal 0 1 -0
    outer loop
      vertex 0.72095602750778198 0 -0.40825861692428589
      vertex 0.73182410001754761 0 -0.42250940203666687
      vertex 0.64681732654571533 0 -0.42250940203666687
    endloop
  endfacet
  facet normal 0 1 -0
    outer loop
      vertex 0.79958856105804443 0 -0.41268816590309143
      vertex 0.81683087348937988 0 -0.42250940203666687
      vertex 0.73182410001754761 0 -0.42250940203666687
    endloop
  endfacet
  facet normal -0 1 -0
    outer loop
      vertex 0.62793773412704468 0 -0.4044039249420166
      vertex 0.72095602750778198 0 -0.40825861692428589
      vertex 0.64681732654571533 0 -0.42250940203666687
    endloop
  endfacet
  facet normal 0 1 0
    outer loop
      vertex 0.62793773412704468 0 -0.4044039249420166
      vertex 0.47680386900901794 0 -0.42250940203666687
      vertex 0.52264130115509033 0 -0.40177023410797119
    endloop
  endfacet
  facet normal -0 1 -0
    outer loop
      vertex 0.79958856105804443 0 -0.41268816590309143
      vertex 0.86172807216644287 0 -0.41704630851745605
      vertex 0.81683087348937988 0 -0.42250940203666687
    endloop
  endfacet
  facet normal 0 1 0
    outer loop
      vertex 0.73182410001754761 0 -0.42250940203666687
      vertex 0.72095602750778198 0 -0.40825861692428589
      vertex 0.79958856105804443 0 -0.41268816590309143
    endloop
  endfacet
  facet normal 0 1 -0
    outer loop
      vertex 0.85933423042297363 0 -0.42250940203666687
      vertex 0.86172807216644287 0 -0.41704630851745605
      vertex 0.90183758735656738 0 -0.42250940203666687
    endloop
  endfacet
  facet normal -0 1 0
    outer loop
      vertex 0.86172807216644287 0 -0.41704630851745605
      vertex 0.85933423042297363 0 -0.42250940203666687
      vertex 0.81683087348937988 0 -0.42250940203666687
    endloop
  endfacet
  facet normal 0 1 0
    outer loop
      vertex 0.64681732654571533 0 -0.42250940203666687
      vertex 0.47680386900901794 0 -0.42250940203666687
      vertex 0.62793773412704468 0 -0.4044039249420166
    endloop
  endfacet
  facet normal -0 1 -0
    outer loop
      vertex 0.90183758735656738 0 -0.43874242901802063
      vertex 0.92308926582336426 0 -0.43874242901802063
      vertex 0.90183758735656738 0 -0.44415342807769775
    endloop
  endfacet
  facet normal 0 1 -0
    outer loop
      vertex 0.90183758735656738 0 -0.44415342807769775
      vertex 0.92308926582336426 0 -0.43874242901802063
      vertex 0.94434094429016113 0 -0.43874242901802063
    endloop
  endfacet
  facet normal -0 1 -0
    outer loop
      vertex 0.94434094429016113 0 -0.43603691458702087
      vertex 0.95496684312820435 0 -0.43603691458702087
      vertex 0.94434094429016113 0 -0.43874242901802063
    endloop
  endfacet
  facet normal 0 1 0
    outer loop
      vertex 0.96501648426055908 0 -0.43803426623344421
      vertex 0.94434094429016113 0 -0.43874242901802063
      vertex 0.95496684312820435 0 -0.43603691458702087
    endloop
  endfacet
  facet normal -0 1 0
    outer loop
      vertex 0.96559268236160278 0 -0.43603691458702087
      vertex 0.96501648426055908 0 -0.43803426623344421
      vertex 0.95496684312820435 0 -0.43603691458702087
    endloop
  endfacet
  facet normal 0 1 -0
    outer loop
      vertex 0.96501648426055908 0 -0.43803426623344421
      vertex 0.90183758735656738 0 -0.44415342807769775
      vertex 0.94434094429016113 0 -0.43874242901802063
    endloop
  endfacet
  facet normal 0 1 0
    outer loop
      vertex 0.970905601978302 0 -0.43536055088043213
      vertex 0.96559268236160278 0 -0.43603691458702087
      vertex 0.96559268236160278 0 -0.43536055088043213
    endloop
  endfacet
  facet normal 0 1 0
    outer loop
      vertex 0.97506219148635864 0 -0.43496677279472351
      vertex 0.970905601978302 0 -0.43536055088043213
      vertex 0.970905601978302 0 -0.43468418717384338
    endloop
  endfacet
  facet normal 0 1 0
    outer loop
      vertex 0.97356206178665161 0 -0.43400779366493225
      vertex 0.970905601978302 0 -0.43468418717384338
      vertex 0.970905601978302 0 -0.43400779366493225
    endloop
  endfacet
  facet normal 0 1 0
    outer loop
      vertex 0.970905601978302 0 -0.43536055088043213
      vertex 0.96501648426055908 0 -0.43803426623344421
      vertex 0.96559268236160278 0 -0.43603691458702087
    endloop
  endfacet
  facet normal 0 1 -0
    outer loop
      vertex 0.970905601978302 0 -0.43536055088043213
      vertex 0.97506219148635864 0 -0.43496677279472351
      vertex 0.96501648426055908 0 -0.43803426623344421
    endloop
  endfacet
  facet normal 0 1 0
    outer loop
      vertex 0.97489029169082642 0 -0.43366959691047668
      vertex 0.97356206178665161 0 -0.43400779366493225
      vertex 0.97356206178665161 0 -0.43366959691047668
    endloop
  endfacet
  facet normal 0 1 -0
    outer loop
      vertex 0.97489029169082642 0 -0.43366959691047668
      vertex 0.97651177644729614 0 -0.43397608399391174
      vertex 0.97356206178665161 0 -0.43400779366493225
    endloop
  endfacet
  facet normal -0 1 0
    outer loop
      vertex 0.97506219148635864 0 -0.43496677279472351
      vertex 0.97356206178665161 0 -0.43400779366493225
      vertex 0.97651177644729614 0 -0.43397608399391174
    endloop
  endfacet
  facet normal 0 1 -0
    outer loop
      vertex 0.97621852159500122 0 -0.43366959691047668
      vertex 0.97651177644729614 0 -0.43397608399391174
      vertex 0.97489029169082642 0 -0.43366959691047668
    endloop
  endfacet
  facet normal 0 1 0
    outer loop
      vertex 0.97506219148635864 0 -0.43496677279472351
      vertex 0.970905601978302 0 -0.43468418717384338
      vertex 0.97356206178665161 0 -0.43400779366493225
    endloop
  endfacet
  facet normal 0 1 0
    outer loop
      vertex 0.97672897577285767 0 -0.43361124396324158
      vertex 0.97621852159500122 0 -0.43366959691047668
      vertex 0.97621852159500122 0 -0.43358504772186279
    endloop
  endfacet
  facet normal 0 1 0
    outer loop
      vertex 0.97672897577285767 0 -0.43361124396324158
      vertex 0.97621852159500122 0 -0.43358504772186279
      vertex 0.97621852159500122 0 -0.43350052833557129
    endloop
  endfacet
  facet normal -0 1 -0
    outer loop
      vertex 0.97621852159500122 0 -0.43333142995834351
      vertex 0.97675460577011108 0 -0.43333142995834351
      vertex 0.97621852159500122 0 -0.43350052833557129
    endloop
  endfacet
  facet normal -0 1 0
    outer loop
      vertex 0.97672897577285767 0 -0.43361124396324158
      vertex 0.97621852159500122 0 -0.43350052833557129
      vertex 0.97675460577011108 0 -0.43333142995834351
    endloop
  endfacet
  facet normal -0 1 -0
    outer loop
      vertex 0.97621852159500122 0 -0.43324688076972961
      vertex 0.97675460577011108 0 -0.43333142995834351
      vertex 0.97621852159500122 0 -0.43333142995834351
    endloop
  endfacet
  facet normal -0 1 0
    outer loop
      vertex 0.97672897577285767 0 -0.43361124396324158
      vertex 0.97651177644729614 0 -0.43397608399391174
      vertex 0.97621852159500122 0 -0.43366959691047668
    endloop
  endfacet
  facet normal -0 1 -0
    outer loop
      vertex 0.94434094429016113 0 -0.42792043089866638
      vertex 0.95496684312820435 0 -0.43062591552734375
      vertex 0.94434094429016113 0 -0.43062591552734375
    endloop
  endfacet
  facet normal 0 1 0
    outer loop
      vertex 0.97356206178665161 0 -0.43265503644943237
      vertex 0.970905601978302 0 -0.43265503644943237
      vertex 0.970905601978302 0 -0.43197867274284363
    endloop
  endfacet
  facet normal 0 1 0
    outer loop
      vertex 0.970905601978302 0 -0.43130230903625488
      vertex 0.96559268236160278 0 -0.43130230903625488
      vertex 0.96559268236160278 0 -0.43062591552734375
    endloop
  endfacet
  facet normal 0 1 0
    outer loop
      vertex 0.94434094429016113 0 -0.42792043089866638
      vertex 0.92308926582336426 0 -0.42792043089866638
      vertex 0.90183758735656738 0 -0.42250940203666687
    endloop
  endfacet
  facet normal 0 1 0
    outer loop
      vertex 0.92308926582336426 0 -0.42792043089866638
      vertex 0.90183758735656738 0 -0.42792043089866638
      vertex 0.90183758735656738 0 -0.42250940203666687
    endloop
  endfacet
  facet normal -0 1 -0
    outer loop
      vertex 0.94434094429016113 0 -0.42792043089866638
      vertex 0.96501648426055908 0 -0.42862856388092041
      vertex 0.95496684312820435 0 -0.43062591552734375
    endloop
  endfacet
  facet normal 0 1 0
    outer loop
      vertex 0.96559268236160278 0 -0.43062591552734375
      vertex 0.96501648426055908 0 -0.42862856388092041
      vertex 0.970905601978302 0 -0.43130230903625488
    endloop
  endfacet
  facet normal -0 1 -0
    outer loop
      vertex 0.90183758735656738 0 -0.42250940203666687
      vertex 0.96501648426055908 0 -0.42862856388092041
      vertex 0.94434094429016113 0 -0.42792043089866638
    endloop
  endfacet
  facet normal 0 1 -0
    outer loop
      vertex 0.95496684312820435 0 -0.43062591552734375
      vertex 0.96501648426055908 0 -0.42862856388092041
      vertex 0.96559268236160278 0 -0.43062591552734375
    endloop
  endfacet
  facet normal -0 1 -0
    outer loop
      vertex 0.86172807216644287 0 -0.41704630851745605
      vertex 0.96501648426055908 0 -0.42862856388092041
      vertex 0.90183758735656738 0 -0.42250940203666687
    endloop
  endfacet
  facet normal 0 1 -0
    outer loop
      vertex 0.97621852159500122 0 -0.43307778239250183
      vertex 0.97672897577285767 0 -0.43305158615112305
      vertex 0.97621852159500122 0 -0.43316233158111572
    endloop
  endfacet
  facet normal 0 1 0
    outer loop
      vertex 0.97675460577011108 0 -0.43333142995834351
      vertex 0.97621852159500122 0 -0.43324688076972961
      vertex 0.97621852159500122 0 -0.43316233158111572
    endloop
  endfacet
  facet normal 0 1 -0
    outer loop
      vertex 0.97621852159500122 0 -0.43316233158111572
      vertex 0.97672897577285767 0 -0.43305158615112305
      vertex 0.97675460577011108 0 -0.43333142995834351
    endloop
  endfacet
  facet normal 0 1 0
    outer loop
      vertex 0.97672897577285767 0 -0.43305158615112305
      vertex 0.97621852159500122 0 -0.43307778239250183
      vertex 0.97621852159500122 0 -0.43299323320388794
    endloop
  endfacet
  facet normal 0 1 0
    outer loop
      vertex 0.97506219148635864 0 -0.43169605731964111
      vertex 0.970905601978302 0 -0.43197867274284363
      vertex 0.970905601978302 0 -0.43130230903625488
    endloop
  endfacet
  facet normal -0 1 0
    outer loop
      vertex 0.97506219148635864 0 -0.43169605731964111
      vertex 0.97356206178665161 0 -0.43265503644943237
      vertex 0.970905601978302 0 -0.43197867274284363
    endloop
  endfacet
  facet normal 0 1 0
    outer loop
      vertex 0.97356206178665161 0 -0.43299323320388794
      vertex 0.97356206178665161 0 -0.43265503644943237
      vertex 0.97489029169082642 0 -0.43299323320388794
    endloop
  endfacet
  facet normal 0 1 0
    outer loop
      vertex 0.97489029169082642 0 -0.43299323320388794
      vertex 0.97356206178665161 0 -0.43265503644943237
      vertex 0.97651177644729614 0 -0.43268677592277527
    endloop
  endfacet
  facet normal 0 1 -0
    outer loop
      vertex 0.97506219148635864 0 -0.43169605731964111
      vertex 0.97651177644729614 0 -0.43268677592277527
      vertex 0.97356206178665161 0 -0.43265503644943237
    endloop
  endfacet
  facet normal -0 1 0
    outer loop
      vertex 0.97621852159500122 0 -0.43299323320388794
      vertex 0.97489029169082642 0 -0.43299323320388794
      vertex 0.97651177644729614 0 -0.43268677592277527
    endloop
  endfacet
  facet normal 0 1 0
    outer loop
      vertex 0.97672897577285767 0 -0.43305158615112305
      vertex 0.97621852159500122 0 -0.43299323320388794
      vertex 0.97651177644729614 0 -0.43268677592277527
    endloop
  endfacet
  facet normal -0 1 -0
    outer loop
      vertex 0.96501648426055908 0 -0.42862856388092041
      vertex 0.97506219148635864 0 -0.43169605731964111
      vertex 0.970905601978302 0 -0.43130230903625488
    endloop
  endfacet
  facet normal 0 1 0
    outer loop
      vertex 0.30679035186767578 0 0.42250940203666687
      vertex 0.13677686452865601 0 0.42250940203666687
      vertex 0.13677686452865601 0 0.44415342807769775
    endloop
  endfacet
  facet normal 0 1 0
    outer loop
      vertex 0.30679035186767578 0 0.42250940203666687
      vertex 0.13677686452865601 0 0.44415342807769775
      vertex 0.30679035186767578 0 0.44415342807769775
    endloop
  endfacet
  facet normal 0 1 0
    outer loop
      vertex 0.47680386900901794 0 0.42250940203666687
      vertex 0.30679035186767578 0 0.42250940203666687
      vertex 0.30679035186767578 0 0.44415342807769775
    endloop
  endfacet
  facet normal 0 1 0
    outer loop
      vertex 0.47680386900901794 0 0.42250940203666687
      vertex 0.30679035186767578 0 0.44415342807769775
      vertex 0.47680386900901794 0 0.44415342807769775
    endloop
  endfacet
  facet normal 0 1 -0
    outer loop
      vertex 0.64681732654571533 0 0.43333142995834351
      vertex 0.64681732654571533 0 0.42250940203666687
      vertex 0.47680386900901794 0 0.42250940203666687
    endloop
  endfacet
  facet normal -0 1 -0
    outer loop
      vertex 0.47680386900901794 0 0.44415342807769775
      vertex 0.64681732654571533 0 0.44415342807769775
      vertex 0.64681732654571533 0 0.43333142995834351
    endloop
  endfacet
  facet normal 0 1 0
    outer loop
      vertex 0.47680386900901794 0 0.42250940203666687
      vertex 0.47680386900901794 0 0.44415342807769775
      vertex 0.64681732654571533 0 0.43333142995834351
    endloop
  endfacet
  facet normal 0 1 -0
    outer loop
      vertex 0.81683087348937988 0 0.42792043089866638
      vertex 0.81683087348937988 0 0.42250940203666687
      vertex 0.73182410001754761 0 0.42250940203666687
    endloop
  endfacet
  facet normal -0 1 -0
    outer loop
      vertex 0.73182410001754761 0 0.43333142995834351
      vertex 0.81683087348937988 0 0.43333142995834351
      vertex 0.81683087348937988 0 0.42792043089866638
    endloop
  endfacet
  facet normal 0 1 0
    outer loop
      vertex 0.73182410001754761 0 0.42250940203666687
      vertex 0.73182410001754761 0 0.43333142995834351
      vertex 0.81683087348937988 0 0.42792043089866638
    endloop
  endfacet
  facet normal 0 1 0
    outer loop
      vertex 0.73182410001754761 0 0.42250940203666687
      vertex 0.64681732654571533 0 0.42250940203666687
      vertex 0.64681732654571533 0 0.43333142995834351
    endloop
  endfacet
  facet normal 0 1 -0
    outer loop
      vertex 0.73182410001754761 0 0.42250940203666687
      vertex 0.64681732654571533 0 0.43333142995834351
      vertex 0.73182410001754761 0 0.43333142995834351
    endloop
  endfacet
  facet normal 0 1 0
    outer loop
      vertex 0.73182410001754761 0 0.43333142995834351
      vertex 0.64681732654571533 0 0.43333142995834351
      vertex 0.64681732654571533 0 0.44415342807769775
    endloop
  endfacet
  facet normal 0 1 -0
    outer loop
      vertex 0.73182410001754761 0 0.43333142995834351
      vertex 0.64681732654571533 0 0.44415342807769775
      vertex 0.73182410001754761 0 0.44415342807769775
    endloop
  endfacet
  facet normal 0 1 -0
    outer loop
      vertex 0.81683087348937988 0 0.43874242901802063
      vertex 0.81683087348937988 0 0.43333142995834351
      vertex 0.73182410001754761 0 0.43333142995834351
    endloop
  endfacet
  facet normal -0 1 -0
    outer loop
      vertex 0.73182410001754761 0 0.44415342807769775
      vertex 0.81683087348937988 0 0.44415342807769775
      vertex 0.81683087348937988 0 0.43874242901802063
    endloop
  endfacet
  facet normal 0 1 0
    outer loop
      vertex 0.73182410001754761 0 0.43333142995834351
      vertex 0.73182410001754761 0 0.44415342807769775
      vertex 0.81683087348937988 0 0.43874242901802063
    endloop
  endfacet
  facet normal 0 1 0
    outer loop
      vertex 0.94434094429016113 0 0.42792043089866638
      vertex 0.92308926582336426 0 0.42792043089866638
      vertex 0.92308926582336426 0 0.43062591552734375
    endloop
  endfacet
  facet normal 0 1 0
    outer loop
      vertex 0.94434094429016113 0 0.42792043089866638
      vertex 0.92308926582336426 0 0.43062591552734375
      vertex 0.94434094429016113 0 0.43062591552734375
    endloop
  endfacet
  facet normal 0 1 0
    outer loop
      vertex 0.92308926582336426 0 0.42792043089866638
      vertex 0.90183758735656738 0 0.42792043089866638
      vertex 0.90183758735656738 0 0.43062591552734375
    endloop
  endfacet
  facet normal 0 1 0
    outer loop
      vertex 0.92308926582336426 0 0.42792043089866638
      vertex 0.90183758735656738 0 0.43062591552734375
      vertex 0.92308926582336426 0 0.43062591552734375
    endloop
  endfacet
  facet normal 0 1 0
    outer loop
      vertex 0.92308926582336426 0 0.43062591552734375
      vertex 0.90183758735656738 0 0.43062591552734375
      vertex 0.90183758735656738 0 0.43333142995834351
    endloop
  endfacet
  facet normal 0 1 0
    outer loop
      vertex 0.92308926582336426 0 0.43062591552734375
      vertex 0.90183758735656738 0 0.43333142995834351
      vertex 0.92308926582336426 0 0.43333142995834351
    endloop
  endfacet
  facet normal 0 1 -0
    outer loop
      vertex 0.94434094429016113 0 0.43197867274284363
      vertex 0.94434094429016113 0 0.43062591552734375
      vertex 0.92308926582336426 0 0.43062591552734375
    endloop
  endfacet
  facet normal -0 1 -0
    outer loop
      vertex 0.92308926582336426 0 0.43333142995834351
      vertex 0.94434094429016113 0 0.43333142995834351
      vertex 0.94434094429016113 0 0.43197867274284363
    endloop
  endfacet
  facet normal 0 1 0
    outer loop
      vertex 0.92308926582336426 0 0.43062591552734375
      vertex 0.92308926582336426 0 0.43333142995834351
      vertex 0.94434094429016113 0 0.43197867274284363
    endloop
  endfacet
  facet normal 0 1 -0
    outer loop
      vertex 0.96559268236160278 0 0.43130230903625488
      vertex 0.96559268236160278 0 0.43062591552734375
      vertex 0.95496684312820435 0 0.43062591552734375
    endloop
  endfacet
  facet normal -0 1 -0
    outer loop
      vertex 0.95496684312820435 0 0.43197867274284363
      vertex 0.96559268236160278 0 0.43197867274284363
      vertex 0.96559268236160278 0 0.43130230903625488
    endloop
  endfacet
  facet normal 0 1 0
    outer loop
      vertex 0.95496684312820435 0 0.43062591552734375
      vertex 0.95496684312820435 0 0.43197867274284363
      vertex 0.96559268236160278 0 0.43130230903625488
    endloop
  endfacet
  facet normal 0 1 0
    outer loop
      vertex 0.95496684312820435 0 0.43062591552734375
      vertex 0.94434094429016113 0 0.43062591552734375
      vertex 0.94434094429016113 0 0.43197867274284363
    endloop
  endfacet
  facet normal 0 1 0
    outer loop
      vertex 0.95496684312820435 0 0.43062591552734375
      vertex 0.94434094429016113 0 0.43197867274284363
      vertex 0.95496684312820435 0 0.43197867274284363
    endloop
  endfacet
  facet normal 0 1 0
    outer loop
      vertex 0.95496684312820435 0 0.43197867274284363
      vertex 0.94434094429016113 0 0.43197867274284363
      vertex 0.94434094429016113 0 0.43333142995834351
    endloop
  endfacet
  facet normal 0 1 0
    outer loop
      vertex 0.95496684312820435 0 0.43197867274284363
      vertex 0.94434094429016113 0 0.43333142995834351
      vertex 0.95496684312820435 0 0.43333142995834351
    endloop
  endfacet
  facet normal 0 1 -0
    outer loop
      vertex 0.96559268236160278 0 0.43265503644943237
      vertex 0.96559268236160278 0 0.43197867274284363
      vertex 0.95496684312820435 0 0.43197867274284363
    endloop
  endfacet
  facet normal -0 1 -0
    outer loop
      vertex 0.95496684312820435 0 0.43333142995834351
      vertex 0.96559268236160278 0 0.43333142995834351
      vertex 0.96559268236160278 0 0.43265503644943237
    endloop
  endfacet
  facet normal 0 1 0
    outer loop
      vertex 0.95496684312820435 0 0.43197867274284363
      vertex 0.95496684312820435 0 0.43333142995834351
      vertex 0.96559268236160278 0 0.43265503644943237
    endloop
  endfacet
  facet normal 0 1 0
    outer loop
      vertex 0.970905601978302 0 0.43130230903625488
      vertex 0.96559268236160278 0 0.43130230903625488
      vertex 0.96559268236160278 0 0.43197867274284363
    endloop
  endfacet
  facet normal 0 1 -0
    outer loop
      vertex 0.970905601978302 0 0.43130230903625488
      vertex 0.96559268236160278 0 0.43197867274284363
      vertex 0.970905601978302 0 0.43197867274284363
    endloop
  endfacet
  facet normal 0 1 0
    outer loop
      vertex 0.970905601978302 0 0.43197867274284363
      vertex 0.96559268236160278 0 0.43197867274284363
      vertex 0.96559268236160278 0 0.43265503644943237
    endloop
  endfacet
  facet normal 0 1 -0
    outer loop
      vertex 0.970905601978302 0 0.43197867274284363
      vertex 0.96559268236160278 0 0.43265503644943237
      vertex 0.970905601978302 0 0.43265503644943237
    endloop
  endfacet
  facet normal 0 1 -0
    outer loop
      vertex 0.970905601978302 0 0.43299323320388794
      vertex 0.970905601978302 0 0.43265503644943237
      vertex 0.96559268236160278 0 0.43265503644943237
    endloop
  endfacet
  facet normal -0 1 -0
    outer loop
      vertex 0.96559268236160278 0 0.43333142995834351
      vertex 0.970905601978302 0 0.43333142995834351
      vertex 0.970905601978302 0 0.43299323320388794
    endloop
  endfacet
  facet normal 0 1 0
    outer loop
      vertex 0.96559268236160278 0 0.43265503644943237
      vertex 0.96559268236160278 0 0.43333142995834351
      vertex 0.970905601978302 0 0.43299323320388794
    endloop
  endfacet
  facet normal 0 1 0
    outer loop
      vertex 0.97356206178665161 0 0.43265503644943237
      vertex 0.970905601978302 0 0.43265503644943237
      vertex 0.970905601978302 0 0.43299323320388794
    endloop
  endfacet
  facet normal 0 1 -0
    outer loop
      vertex 0.97356206178665161 0 0.43265503644943237
      vertex 0.970905601978302 0 0.43299323320388794
      vertex 0.97356206178665161 0 0.43299323320388794
    endloop
  endfacet
  facet normal 0 1 -0
    outer loop
      vertex 0.97356206178665161 0 0.43316233158111572
      vertex 0.97356206178665161 0 0.43299323320388794
      vertex 0.970905601978302 0 0.43299323320388794
    endloop
  endfacet
  facet normal -0 1 -0
    outer loop
      vertex 0.970905601978302 0 0.43333142995834351
      vertex 0.97356206178665161 0 0.43333142995834351
      vertex 0.97356206178665161 0 0.43316233158111572
    endloop
  endfacet
  facet normal 0 1 0
    outer loop
      vertex 0.970905601978302 0 0.43299323320388794
      vertex 0.970905601978302 0 0.43333142995834351
      vertex 0.97356206178665161 0 0.43316233158111572
    endloop
  endfacet
  facet normal 0 1 -0
    outer loop
      vertex 0.97621852159500122 0 0.43307778239250183
      vertex 0.97621852159500122 0 0.43299323320388794
      vertex 0.97489029169082642 0 0.43299323320388794
    endloop
  endfacet
  facet normal -0 1 -0
    outer loop
      vertex 0.97489029169082642 0 0.43316233158111572
      vertex 0.97621852159500122 0 0.43316233158111572
      vertex 0.97621852159500122 0 0.43307778239250183
    endloop
  endfacet
  facet normal 0 1 0
    outer loop
      vertex 0.97489029169082642 0 0.43299323320388794
      vertex 0.97489029169082642 0 0.43316233158111572
      vertex 0.97621852159500122 0 0.43307778239250183
    endloop
  endfacet
  facet normal 0 1 0
    outer loop
      vertex 0.97489029169082642 0 0.43299323320388794
      vertex 0.97356206178665161 0 0.43299323320388794
      vertex 0.97356206178665161 0 0.43316233158111572
    endloop
  endfacet
  facet normal 0 1 -0
    outer loop
      vertex 0.97489029169082642 0 0.43299323320388794
      vertex 0.97356206178665161 0 0.43316233158111572
      vertex 0.97489029169082642 0 0.43316233158111572
    endloop
  endfacet
  facet normal 0 1 0
    outer loop
      vertex 0.97489029169082642 0 0.43316233158111572
      vertex 0.97356206178665161 0 0.43316233158111572
      vertex 0.97356206178665161 0 0.43333142995834351
    endloop
  endfacet
  facet normal 0 1 -0
    outer loop
      vertex 0.97489029169082642 0 0.43316233158111572
      vertex 0.97356206178665161 0 0.43333142995834351
      vertex 0.97489029169082642 0 0.43333142995834351
    endloop
  endfacet
  facet normal 0 1 -0
    outer loop
      vertex 0.97621852159500122 0 0.43324688076972961
      vertex 0.97621852159500122 0 0.43316233158111572
      vertex 0.97489029169082642 0 0.43316233158111572
    endloop
  endfacet
  facet normal -0 1 -0
    outer loop
      vertex 0.97489029169082642 0 0.43333142995834351
      vertex 0.97621852159500122 0 0.43333142995834351
      vertex 0.97621852159500122 0 0.43324688076972961
    endloop
  endfacet
  facet normal 0 1 0
    outer loop
      vertex 0.97489029169082642 0 0.43316233158111572
      vertex 0.97489029169082642 0 0.43333142995834351
      vertex 0.97621852159500122 0 0.43324688076972961
    endloop
  endfacet
  facet normal 0 1 0
    outer loop
      vertex 0.90183758735656738 0 0.42250940203666687
      vertex 0.85933423042297363 0 0.42250940203666687
      vertex 0.85933423042297363 0 0.42792043089866638
    endloop
  endfacet
  facet normal 0 1 0
    outer loop
      vertex 0.90183758735656738 0 0.42250940203666687
      vertex 0.85933423042297363 0 0.42792043089866638
      vertex 0.90183758735656738 0 0.42792043089866638
    endloop
  endfacet
  facet normal 0 1 0
    outer loop
      vertex 0.85933423042297363 0 0.42250940203666687
      vertex 0.81683087348937988 0 0.42250940203666687
      vertex 0.81683087348937988 0 0.42792043089866638
    endloop
  endfacet
  facet normal 0 1 0
    outer loop
      vertex 0.85933423042297363 0 0.42250940203666687
      vertex 0.81683087348937988 0 0.42792043089866638
      vertex 0.85933423042297363 0 0.42792043089866638
    endloop
  endfacet
  facet normal 0 1 0
    outer loop
      vertex 0.85933423042297363 0 0.42792043089866638
      vertex 0.81683087348937988 0 0.42792043089866638
      vertex 0.81683087348937988 0 0.43333142995834351
    endloop
  endfacet
  facet normal 0 1 0
    outer loop
      vertex 0.85933423042297363 0 0.42792043089866638
      vertex 0.81683087348937988 0 0.43333142995834351
      vertex 0.85933423042297363 0 0.43333142995834351
    endloop
  endfacet
  facet normal 0 1 -0
    outer loop
      vertex 0.90183758735656738 0 0.43062591552734375
      vertex 0.90183758735656738 0 0.42792043089866638
      vertex 0.85933423042297363 0 0.42792043089866638
    endloop
  endfacet
  facet normal -0 1 -0
    outer loop
      vertex 0.85933423042297363 0 0.43333142995834351
      vertex 0.90183758735656738 0 0.43333142995834351
      vertex 0.90183758735656738 0 0.43062591552734375
    endloop
  endfacet
  facet normal 0 1 0
    outer loop
      vertex 0.85933423042297363 0 0.42792043089866638
      vertex 0.85933423042297363 0 0.43333142995834351
      vertex 0.90183758735656738 0 0.43062591552734375
    endloop
  endfacet
  facet normal 0 1 -0
    outer loop
      vertex 0.90183758735656738 0 0.43603691458702087
      vertex 0.90183758735656738 0 0.43333142995834351
      vertex 0.85933423042297363 0 0.43333142995834351
    endloop
  endfacet
  facet normal -0 1 -0
    outer loop
      vertex 0.85933423042297363 0 0.43874242901802063
      vertex 0.90183758735656738 0 0.43874242901802063
      vertex 0.90183758735656738 0 0.43603691458702087
    endloop
  endfacet
  facet normal 0 1 0
    outer loop
      vertex 0.85933423042297363 0 0.43333142995834351
      vertex 0.85933423042297363 0 0.43874242901802063
      vertex 0.90183758735656738 0 0.43603691458702087
    endloop
  endfacet
  facet normal 0 1 0
    outer loop
      vertex 0.85933423042297363 0 0.43333142995834351
      vertex 0.81683087348937988 0 0.43333142995834351
      vertex 0.81683087348937988 0 0.43874242901802063
    endloop
  endfacet
  facet normal 0 1 0
    outer loop
      vertex 0.85933423042297363 0 0.43333142995834351
      vertex 0.81683087348937988 0 0.43874242901802063
      vertex 0.85933423042297363 0 0.43874242901802063
    endloop
  endfacet
  facet normal 0 1 0
    outer loop
      vertex 0.85933423042297363 0 0.43874242901802063
      vertex 0.81683087348937988 0 0.43874242901802063
      vertex 0.81683087348937988 0 0.44415342807769775
    endloop
  endfacet
  facet normal 0 1 0
    outer loop
      vertex 0.85933423042297363 0 0.43874242901802063
      vertex 0.81683087348937988 0 0.44415342807769775
      vertex 0.85933423042297363 0 0.44415342807769775
    endloop
  endfacet
  facet normal 0 1 0
    outer loop
      vertex 0.90183758735656738 0 0.43874242901802063
      vertex 0.85933423042297363 0 0.43874242901802063
      vertex 0.85933423042297363 0 0.44415342807769775
    endloop
  endfacet
  facet normal 0 1 0
    outer loop
      vertex 0.90183758735656738 0 0.43874242901802063
      vertex 0.85933423042297363 0 0.44415342807769775
      vertex 0.90183758735656738 0 0.44415342807769775
    endloop
  endfacet
  facet normal 0 1 0
    outer loop
      vertex 0.97621852159500122 0 0.43333142995834351
      vertex 0.97489029169082642 0 0.43333142995834351
      vertex 0.97489029169082642 0 0.43350052833557129
    endloop
  endfacet
  facet normal 0 1 -0
    outer loop
      vertex 0.97621852159500122 0 0.43333142995834351
      vertex 0.97489029169082642 0 0.43350052833557129
      vertex 0.97621852159500122 0 0.43350052833557129
    endloop
  endfacet
  facet normal 0 1 0
    outer loop
      vertex 0.97489029169082642 0 0.43333142995834351
      vertex 0.97356206178665161 0 0.43333142995834351
      vertex 0.97356206178665161 0 0.43350052833557129
    endloop
  endfacet
  facet normal 0 1 -0
    outer loop
      vertex 0.97489029169082642 0 0.43333142995834351
      vertex 0.97356206178665161 0 0.43350052833557129
      vertex 0.97489029169082642 0 0.43350052833557129
    endloop
  endfacet
  facet normal 0 1 0
    outer loop
      vertex 0.97489029169082642 0 0.43350052833557129
      vertex 0.97356206178665161 0 0.43350052833557129
      vertex 0.97356206178665161 0 0.43366959691047668
    endloop
  endfacet
  facet normal 0 1 0
    outer loop
      vertex 0.97489029169082642 0 0.43350052833557129
      vertex 0.97356206178665161 0 0.43366959691047668
      vertex 0.97489029169082642 0 0.43366959691047668
    endloop
  endfacet
  facet normal 0 1 -0
    outer loop
      vertex 0.97621852159500122 0 0.43358504772186279
      vertex 0.97621852159500122 0 0.43350052833557129
      vertex 0.97489029169082642 0 0.43350052833557129
    endloop
  endfacet
  facet normal -0 1 -0
    outer loop
      vertex 0.97489029169082642 0 0.43366959691047668
      vertex 0.97621852159500122 0 0.43366959691047668
      vertex 0.97621852159500122 0 0.43358504772186279
    endloop
  endfacet
  facet normal 0 1 0
    outer loop
      vertex 0.97489029169082642 0 0.43350052833557129
      vertex 0.97489029169082642 0 0.43366959691047668
      vertex 0.97621852159500122 0 0.43358504772186279
    endloop
  endfacet
  facet normal 0 1 -0
    outer loop
      vertex 0.97356206178665161 0 0.43350052833557129
      vertex 0.97356206178665161 0 0.43333142995834351
      vertex 0.970905601978302 0 0.43333142995834351
    endloop
  endfacet
  facet normal -0 1 -0
    outer loop
      vertex 0.970905601978302 0 0.43366959691047668
      vertex 0.97356206178665161 0 0.43366959691047668
      vertex 0.97356206178665161 0 0.43350052833557129
    endloop
  endfacet
  facet normal 0 1 0
    outer loop
      vertex 0.970905601978302 0 0.43333142995834351
      vertex 0.970905601978302 0 0.43366959691047668
      vertex 0.97356206178665161 0 0.43350052833557129
    endloop
  endfacet
  facet normal 0 1 0
    outer loop
      vertex 0.97356206178665161 0 0.43366959691047668
      vertex 0.970905601978302 0 0.43366959691047668
      vertex 0.970905601978302 0 0.43400779366493225
    endloop
  endfacet
  facet normal 0 1 -0
    outer loop
      vertex 0.97356206178665161 0 0.43366959691047668
      vertex 0.970905601978302 0 0.43400779366493225
      vertex 0.97356206178665161 0 0.43400779366493225
    endloop
  endfacet
  facet normal 0 1 -0
    outer loop
      vertex 0.970905601978302 0 0.43366959691047668
      vertex 0.970905601978302 0 0.43333142995834351
      vertex 0.96559268236160278 0 0.43333142995834351
    endloop
  endfacet
  facet normal -0 1 -0
    outer loop
      vertex 0.96559268236160278 0 0.43400779366493225
      vertex 0.970905601978302 0 0.43400779366493225
      vertex 0.970905601978302 0 0.43366959691047668
    endloop
  endfacet
  facet normal 0 1 0
    outer loop
      vertex 0.96559268236160278 0 0.43333142995834351
      vertex 0.96559268236160278 0 0.43400779366493225
      vertex 0.970905601978302 0 0.43366959691047668
    endloop
  endfacet
  facet normal 0 1 0
    outer loop
      vertex 0.970905601978302 0 0.43400779366493225
      vertex 0.96559268236160278 0 0.43400779366493225
      vertex 0.96559268236160278 0 0.43468418717384338
    endloop
  endfacet
  facet normal 0 1 -0
    outer loop
      vertex 0.970905601978302 0 0.43400779366493225
      vertex 0.96559268236160278 0 0.43468418717384338
      vertex 0.970905601978302 0 0.43468418717384338
    endloop
  endfacet
  facet normal 0 1 0
    outer loop
      vertex 0.970905601978302 0 0.43468418717384338
      vertex 0.96559268236160278 0 0.43468418717384338
      vertex 0.96559268236160278 0 0.43536055088043213
    endloop
  endfacet
  facet normal 0 1 -0
    outer loop
      vertex 0.970905601978302 0 0.43468418717384338
      vertex 0.96559268236160278 0 0.43536055088043213
      vertex 0.970905601978302 0 0.43536055088043213
    endloop
  endfacet
  facet normal 0 1 -0
    outer loop
      vertex 0.96559268236160278 0 0.43400779366493225
      vertex 0.96559268236160278 0 0.43333142995834351
      vertex 0.95496684312820435 0 0.43333142995834351
    endloop
  endfacet
  facet normal -0 1 -0
    outer loop
      vertex 0.95496684312820435 0 0.43468418717384338
      vertex 0.96559268236160278 0 0.43468418717384338
      vertex 0.96559268236160278 0 0.43400779366493225
    endloop
  endfacet
  facet normal 0 1 0
    outer loop
      vertex 0.95496684312820435 0 0.43333142995834351
      vertex 0.95496684312820435 0 0.43468418717384338
      vertex 0.96559268236160278 0 0.43400779366493225
    endloop
  endfacet
  facet normal 0 1 0
    outer loop
      vertex 0.95496684312820435 0 0.43333142995834351
      vertex 0.94434094429016113 0 0.43333142995834351
      vertex 0.94434094429016113 0 0.43468418717384338
    endloop
  endfacet
  facet normal 0 1 0
    outer loop
      vertex 0.95496684312820435 0 0.43333142995834351
      vertex 0.94434094429016113 0 0.43468418717384338
      vertex 0.95496684312820435 0 0.43468418717384338
    endloop
  endfacet
  facet normal 0 1 0
    outer loop
      vertex 0.95496684312820435 0 0.43468418717384338
      vertex 0.94434094429016113 0 0.43468418717384338
      vertex 0.94434094429016113 0 0.43603691458702087
    endloop
  endfacet
  facet normal 0 1 0
    outer loop
      vertex 0.95496684312820435 0 0.43468418717384338
      vertex 0.94434094429016113 0 0.43603691458702087
      vertex 0.95496684312820435 0 0.43603691458702087
    endloop
  endfacet
  facet normal 0 1 -0
    outer loop
      vertex 0.96559268236160278 0 0.43536055088043213
      vertex 0.96559268236160278 0 0.43468418717384338
      vertex 0.95496684312820435 0 0.43468418717384338
    endloop
  endfacet
  facet normal -0 1 -0
    outer loop
      vertex 0.95496684312820435 0 0.43603691458702087
      vertex 0.96559268236160278 0 0.43603691458702087
      vertex 0.96559268236160278 0 0.43536055088043213
    endloop
  endfacet
  facet normal 0 1 0
    outer loop
      vertex 0.95496684312820435 0 0.43468418717384338
      vertex 0.95496684312820435 0 0.43603691458702087
      vertex 0.96559268236160278 0 0.43536055088043213
    endloop
  endfacet
  facet normal 0 1 -0
    outer loop
      vertex 0.94434094429016113 0 0.43468418717384338
      vertex 0.94434094429016113 0 0.43333142995834351
      vertex 0.92308926582336426 0 0.43333142995834351
    endloop
  endfacet
  facet normal -0 1 -0
    outer loop
      vertex 0.92308926582336426 0 0.43603691458702087
      vertex 0.94434094429016113 0 0.43603691458702087
      vertex 0.94434094429016113 0 0.43468418717384338
    endloop
  endfacet
  facet normal 0 1 0
    outer loop
      vertex 0.92308926582336426 0 0.43333142995834351
      vertex 0.92308926582336426 0 0.43603691458702087
      vertex 0.94434094429016113 0 0.43468418717384338
    endloop
  endfacet
  facet normal 0 1 0
    outer loop
      vertex 0.92308926582336426 0 0.43333142995834351
      vertex 0.90183758735656738 0 0.43333142995834351
      vertex 0.90183758735656738 0 0.43603691458702087
    endloop
  endfacet
  facet normal 0 1 0
    outer loop
      vertex 0.92308926582336426 0 0.43333142995834351
      vertex 0.90183758735656738 0 0.43603691458702087
      vertex 0.92308926582336426 0 0.43603691458702087
    endloop
  endfacet
  facet normal 0 1 0
    outer loop
      vertex 0.92308926582336426 0 0.43603691458702087
      vertex 0.90183758735656738 0 0.43603691458702087
      vertex 0.90183758735656738 0 0.43874242901802063
    endloop
  endfacet
  facet normal 0 1 0
    outer loop
      vertex 0.92308926582336426 0 0.43603691458702087
      vertex 0.90183758735656738 0 0.43874242901802063
      vertex 0.92308926582336426 0 0.43874242901802063
    endloop
  endfacet
  facet normal 0 1 0
    outer loop
      vertex 0.94434094429016113 0 0.43603691458702087
      vertex 0.92308926582336426 0 0.43603691458702087
      vertex 0.92308926582336426 0 0.43874242901802063
    endloop
  endfacet
  facet normal 0 1 0
    outer loop
      vertex 0.94434094429016113 0 0.43603691458702087
      vertex 0.92308926582336426 0 0.43874242901802063
      vertex 0.94434094429016113 0 0.43874242901802063
    endloop
  endfacet
  facet normal -0 1 0
    outer loop
      vertex 0.20875662565231323 0 0.46405163407325745
      vertex 0.13677686452865601 0 0.44415342807769775
      vertex 0.13557001948356628 0 0.46273365616798401
    endloop
  endfacet
  facet normal -0 1 0
    outer loop
      vertex 0.34396153688430786 0 0.46560618281364441
      vertex 0.30679035186767578 0 0.44415342807769775
      vertex 0.27813616394996643 0 0.46501675248146057
    endloop
  endfacet
  facet normal 0 1 0
    outer loop
      vertex 0.30679035186767578 0 0.44415342807769775
      vertex 0.20875662565231323 0 0.46405163407325745
      vertex 0.27813616394996643 0 0.46501675248146057
    endloop
  endfacet
  facet normal 0 1 0
    outer loop
      vertex 0.30679035186767578 0 0.44415342807769775
      vertex 0.34396153688430786 0 0.46560618281364441
      vertex 0.40648561716079712 0 0.46579715609550476
    endloop
  endfacet
  facet normal 0 1 -0
    outer loop
      vertex 0.13677686452865601 0 0.44415342807769775
      vertex -0.023235836997628212 0 0.45913013815879822
      vertex 0.058323487639427185 0 0.46108555793762207
    endloop
  endfacet
  facet normal 0 1 -0
    outer loop
      vertex 0.13557001948356628 0 0.46273365616798401
      vertex 0.13677686452865601 0 0.44415342807769775
      vertex 0.058323487639427185 0 0.46108555793762207
    endloop
  endfacet
  facet normal 0 1 0
    outer loop
      vertex 0.30679035186767578 0 0.44415342807769775
      vertex 0.13677686452865601 0 0.44415342807769775
      vertex 0.20875662565231323 0 0.46405163407325745
    endloop
  endfacet
  facet normal 0 1 -0
    outer loop
      vertex 0.30679035186767578 0 0.44415342807769775
      vertex 0.40648561716079712 0 0.46579715609550476
      vertex 0.47680386900901794 0 0.44415342807769775
    endloop
  endfacet
  facet normal 0 1 0
    outer loop
      vertex 0.13677686452865601 0 0.42250940203666687
      vertex -0.023235836997628212 0 0.45913013815879822
      vertex 0.13677686452865601 0 0.44415342807769775
    endloop
  endfacet
  facet normal 0 1 0
    outer loop
      vertex 0.47680386900901794 0 0.44415342807769775
      vertex 0.40648561716079712 0 0.46579715609550476
      vertex 0.52264130115509033 0 0.46489259600639343
    endloop
  endfacet
  facet normal 0 1 0
    outer loop
      vertex 0.64681732654571533 0 0.44415342807769775
      vertex 0.47680386900901794 0 0.44415342807769775
      vertex 0.62793773412704468 0 0.46225893497467041
    endloop
  endfacet
  facet normal 0 1 0
    outer loop
      vertex 0.79958856105804443 0 0.45397469401359558
      vertex 0.73182410001754761 0 0.44415342807769775
      vertex 0.72095602750778198 0 0.45840421319007874
    endloop
  endfacet
  facet normal 0 1 0
    outer loop
      vertex 0.64681732654571533 0 0.44415342807769775
      vertex 0.62793773412704468 0 0.46225893497467041
      vertex 0.72095602750778198 0 0.45840421319007874
    endloop
  endfacet
  facet normal 0 1 0
    outer loop
      vertex 0.86172807216644287 0 0.44961655139923096
      vertex 0.81683087348937988 0 0.44415342807769775
      vertex 0.79958856105804443 0 0.45397469401359558
    endloop
  endfacet
  facet normal 0 1 -0
    outer loop
      vertex 0.72095602750778198 0 0.45840421319007874
      vertex 0.73182410001754761 0 0.44415342807769775
      vertex 0.64681732654571533 0 0.44415342807769775
    endloop
  endfacet
  facet normal -0 1 0
    outer loop
      vertex 0.86172807216644287 0 0.44961655139923096
      vertex 0.85933423042297363 0 0.44415342807769775
      vertex 0.81683087348937988 0 0.44415342807769775
    endloop
  endfacet
  facet normal 0 1 -0
    outer loop
      vertex 0.86172807216644287 0 0.44961655139923096
      vertex 0.90183758735656738 0 0.44415342807769775
      vertex 0.85933423042297363 0 0.44415342807769775
    endloop
  endfacet
  facet normal 0 1 0
    outer loop
      vertex 0.81683087348937988 0 0.44415342807769775
      vertex 0.73182410001754761 0 0.44415342807769775
      vertex 0.79958856105804443 0 0.45397469401359558
    endloop
  endfacet
  facet normal 0 1 0
    outer loop
      vertex 0.90183758735656738 0 0.44415342807769775
      vertex 0.86172807216644287 0 0.44961655139923096
      vertex 0.96501648426055908 0 0.43803426623344421
    endloop
  endfacet
  facet normal 0 1 0
    outer loop
      vertex 0.52264130115509033 0 0.46489259600639343
      vertex 0.62793773412704468 0 0.46225893497467041
      vertex 0.47680386900901794 0 0.44415342807769775
    endloop
  endfacet
  facet normal 0 1 -0
    outer loop
      vertex 0.13677686452865601 0 0.42250940203666687
      vertex 0.058323487639427185 0 0.40557727217674255
      vertex -0.023235836997628212 0 0.40753269195556641
    endloop
  endfacet
  facet normal -0 1 0
    outer loop
      vertex 0.13557001948356628 0 0.403929203748703
      vertex 0.058323487639427185 0 0.40557727217674255
      vertex 0.13677686452865601 0 0.42250940203666687
    endloop
  endfacet
  facet normal -0 1 0
    outer loop
      vertex 0.30679035186767578 0 0.42250940203666687
      vertex 0.20875662565231323 0 0.40261119604110718
      vertex 0.13677686452865601 0 0.42250940203666687
    endloop
  endfacet
  facet normal 0 1 0
    outer loop
      vertex 0.13677686452865601 0 0.42250940203666687
      vertex -0.023235836997628212 0 0.40753269195556641
      vertex -0.023235836997628212 0 0.45913013815879822
    endloop
  endfacet
  facet normal -0 1 0
    outer loop
      vertex 0.47680386900901794 0 0.42250940203666687
      vertex 0.40648561716079712 0 0.40086567401885986
      vertex 0.30679035186767578 0 0.42250940203666687
    endloop
  endfacet
  facet normal 0 1 0
    outer loop
      vertex 0.20875662565231323 0 0.40261119604110718
      vertex 0.13557001948356628 0 0.403929203748703
      vertex 0.13677686452865601 0 0.42250940203666687
    endloop
  endfacet
  facet normal 0 1 -0
    outer loop
      vertex 0.27813616394996643 0 0.40164610743522644
      vertex 0.30679035186767578 0 0.42250940203666687
      vertex 0.34396153688430786 0 0.4010566771030426
    endloop
  endfacet
  facet normal -0 1 0
    outer loop
      vertex 0.30679035186767578 0 0.42250940203666687
      vertex 0.27813616394996643 0 0.40164610743522644
      vertex 0.20875662565231323 0 0.40261119604110718
    endloop
  endfacet
  facet normal 0 1 0
    outer loop
      vertex 0.40648561716079712 0 0.40086567401885986
      vertex 0.34396153688430786 0 0.4010566771030426
      vertex 0.30679035186767578 0 0.42250940203666687
    endloop
  endfacet
  facet normal 0 1 -0
    outer loop
      vertex 0.40648561716079712 0 0.40086567401885986
      vertex 0.47680386900901794 0 0.42250940203666687
      vertex 0.52264130115509033 0 0.40177023410797119
    endloop
  endfacet
  facet normal -0 1 0
    outer loop
      vertex 0.72095602750778198 0 0.40825861692428589
      vertex 0.64681732654571533 0 0.42250940203666687
      vertex 0.73182410001754761 0 0.42250940203666687
    endloop
  endfacet
  facet normal -0 1 0
    outer loop
      vertex 0.79958856105804443 0 0.41268816590309143
      vertex 0.73182410001754761 0 0.42250940203666687
      vertex 0.81683087348937988 0 0.42250940203666687
    endloop
  endfacet
  facet normal 0 1 -0
    outer loop
      vertex 0.62793773412704468 0 0.4044039249420166
      vertex 0.64681732654571533 0 0.42250940203666687
      vertex 0.72095602750778198 0 0.40825861692428589
    endloop
  endfacet
  facet normal 0 1 0
    outer loop
      vertex 0.62793773412704468 0 0.4044039249420166
      vertex 0.52264130115509033 0 0.40177023410797119
      vertex 0.47680386900901794 0 0.42250940203666687
    endloop
  endfacet
  facet normal 0 1 -0
    outer loop
      vertex 0.79958856105804443 0 0.41268816590309143
      vertex 0.81683087348937988 0 0.42250940203666687
      vertex 0.86172807216644287 0 0.41704630851745605
    endloop
  endfacet
  facet normal 0 1 -0
    outer loop
      vertex 0.73182410001754761 0 0.42250940203666687
      vertex 0.79958856105804443 0 0.41268816590309143
      vertex 0.72095602750778198 0 0.40825861692428589
    endloop
  endfacet
  facet normal -0 1 -0
    outer loop
      vertex 0.85933423042297363 0 0.42250940203666687
      vertex 0.90183758735656738 0 0.42250940203666687
      vertex 0.86172807216644287 0 0.41704630851745605
    endloop
  endfacet
  facet normal 0 1 0
    outer loop
      vertex 0.86172807216644287 0 0.41704630851745605
      vertex 0.81683087348937988 0 0.42250940203666687
      vertex 0.85933423042297363 0 0.42250940203666687
    endloop
  endfacet
  facet normal -0 1 0
    outer loop
      vertex 0.64681732654571533 0 0.42250940203666687
      vertex 0.62793773412704468 0 0.4044039249420166
      vertex 0.47680386900901794 0 0.42250940203666687
    endloop
  endfacet
  facet normal -0 1 -0
    outer loop
      vertex 0.90183758735656738 0 0.43874242901802063
      vertex 0.90183758735656738 0 0.44415342807769775
      vertex 0.92308926582336426 0 0.43874242901802063
    endloop
  endfacet
  facet normal -0 1 -0
    outer loop
      vertex 0.90183758735656738 0 0.44415342807769775
      vertex 0.94434094429016113 0 0.43874242901802063
      vertex 0.92308926582336426 0 0.43874242901802063
    endloop
  endfacet
  facet normal 0 1 0
    outer loop
      vertex 0.94434094429016113 0 0.43603691458702087
      vertex 0.94434094429016113 0 0.43874242901802063
      vertex 0.95496684312820435 0 0.43603691458702087
    endloop
  endfacet
  facet normal 0 1 0
    outer loop
      vertex 0.96501648426055908 0 0.43803426623344421
      vertex 0.95496684312820435 0 0.43603691458702087
      vertex 0.94434094429016113 0 0.43874242901802063
    endloop
  endfacet
  facet normal 0 1 0
    outer loop
      vertex 0.96559268236160278 0 0.43603691458702087
      vertex 0.95496684312820435 0 0.43603691458702087
      vertex 0.96501648426055908 0 0.43803426623344421
    endloop
  endfacet
  facet normal -0 1 -0
    outer loop
      vertex 0.96501648426055908 0 0.43803426623344421
      vertex 0.94434094429016113 0 0.43874242901802063
      vertex 0.90183758735656738 0 0.44415342807769775
    endloop
  endfacet
  facet normal 0 1 0
    outer loop
      vertex 0.970905601978302 0 0.43536055088043213
      vertex 0.96559268236160278 0 0.43536055088043213
      vertex 0.96559268236160278 0 0.43603691458702087
    endloop
  endfacet
  facet normal 0 1 0
    outer loop
      vertex 0.97506219148635864 0 0.43496677279472351
      vertex 0.970905601978302 0 0.43468418717384338
      vertex 0.970905601978302 0 0.43536055088043213
    endloop
  endfacet
  facet normal 0 1 0
    outer loop
      vertex 0.97356206178665161 0 0.43400779366493225
      vertex 0.970905601978302 0 0.43400779366493225
      vertex 0.970905601978302 0 0.43468418717384338
    endloop
  endfacet
  facet normal 0 1 0
    outer loop
      vertex 0.970905601978302 0 0.43536055088043213
      vertex 0.96559268236160278 0 0.43603691458702087
      vertex 0.96501648426055908 0 0.43803426623344421
    endloop
  endfacet
  facet normal 0 1 0
    outer loop
      vertex 0.970905601978302 0 0.43536055088043213
      vertex 0.96501648426055908 0 0.43803426623344421
      vertex 0.97506219148635864 0 0.43496677279472351
    endloop
  endfacet
  facet normal 0 1 0
    outer loop
      vertex 0.97489029169082642 0 0.43366959691047668
      vertex 0.97356206178665161 0 0.43366959691047668
      vertex 0.97356206178665161 0 0.43400779366493225
    endloop
  endfacet
  facet normal 0 1 0
    outer loop
      vertex 0.97489029169082642 0 0.43366959691047668
      vertex 0.97356206178665161 0 0.43400779366493225
      vertex 0.97651177644729614 0 0.43397608399391174
    endloop
  endfacet
  facet normal 0 1 -0
    outer loop
      vertex 0.97506219148635864 0 0.43496677279472351
      vertex 0.97651177644729614 0 0.43397608399391174
      vertex 0.97356206178665161 0 0.43400779366493225
    endloop
  endfacet
  facet normal 0 1 -0
    outer loop
      vertex 0.97621852159500122 0 0.43366959691047668
      vertex 0.97489029169082642 0 0.43366959691047668
      vertex 0.97651177644729614 0 0.43397608399391174
    endloop
  endfacet
  facet normal -0 1 0
    outer loop
      vertex 0.97506219148635864 0 0.43496677279472351
      vertex 0.97356206178665161 0 0.43400779366493225
      vertex 0.970905601978302 0 0.43468418717384338
    endloop
  endfacet
  facet normal 0 1 0
    outer loop
      vertex 0.97672897577285767 0 0.43361124396324158
      vertex 0.97621852159500122 0 0.43358504772186279
      vertex 0.97621852159500122 0 0.43366959691047668
    endloop
  endfacet
  facet normal 0 1 0
    outer loop
      vertex 0.97672897577285767 0 0.43361124396324158
      vertex 0.97621852159500122 0 0.43350052833557129
      vertex 0.97621852159500122 0 0.43358504772186279
    endloop
  endfacet
  facet normal 0 1 0
    outer loop
      vertex 0.97621852159500122 0 0.43333142995834351
      vertex 0.97621852159500122 0 0.43350052833557129
      vertex 0.97675460577011108 0 0.43333142995834351
    endloop
  endfacet
  facet normal 0 1 -0
    outer loop
      vertex 0.97672897577285767 0 0.43361124396324158
      vertex 0.97675460577011108 0 0.43333142995834351
      vertex 0.97621852159500122 0 0.43350052833557129
    endloop
  endfacet
  facet normal -0 1 0
    outer loop
      vertex 0.97621852159500122 0 0.43324688076972961
      vertex 0.97621852159500122 0 0.43333142995834351
      vertex 0.97675460577011108 0 0.43333142995834351
    endloop
  endfacet
  facet normal 0 1 0
    outer loop
      vertex 0.97672897577285767 0 0.43361124396324158
      vertex 0.97621852159500122 0 0.43366959691047668
      vertex 0.97651177644729614 0 0.43397608399391174
    endloop
  endfacet
  facet normal -0 1 0
    outer loop
      vertex 0.94434094429016113 0 0.42792043089866638
      vertex 0.94434094429016113 0 0.43062591552734375
      vertex 0.95496684312820435 0 0.43062591552734375
    endloop
  endfacet
  facet normal 0 1 0
    outer loop
      vertex 0.97356206178665161 0 0.43265503644943237
      vertex 0.970905601978302 0 0.43197867274284363
      vertex 0.970905601978302 0 0.43265503644943237
    endloop
  endfacet
  facet normal 0 1 0
    outer loop
      vertex 0.970905601978302 0 0.43130230903625488
      vertex 0.96559268236160278 0 0.43062591552734375
      vertex 0.96559268236160278 0 0.43130230903625488
    endloop
  endfacet
  facet normal 0 1 0
    outer loop
      vertex 0.94434094429016113 0 0.42792043089866638
      vertex 0.90183758735656738 0 0.42250940203666687
      vertex 0.92308926582336426 0 0.42792043089866638
    endloop
  endfacet
  facet normal 0 1 0
    outer loop
      vertex 0.92308926582336426 0 0.42792043089866638
      vertex 0.90183758735656738 0 0.42250940203666687
      vertex 0.90183758735656738 0 0.42792043089866638
    endloop
  endfacet
  facet normal 0 1 -0
    outer loop
      vertex 0.94434094429016113 0 0.42792043089866638
      vertex 0.95496684312820435 0 0.43062591552734375
      vertex 0.96501648426055908 0 0.42862856388092041
    endloop
  endfacet
  facet normal 0 1 -0
    outer loop
      vertex 0.96559268236160278 0 0.43062591552734375
      vertex 0.970905601978302 0 0.43130230903625488
      vertex 0.96501648426055908 0 0.42862856388092041
    endloop
  endfacet
  facet normal 0 1 -0
    outer loop
      vertex 0.90183758735656738 0 0.42250940203666687
      vertex 0.94434094429016113 0 0.42792043089866638
      vertex 0.96501648426055908 0 0.42862856388092041
    endloop
  endfacet
  facet normal -0 1 -0
    outer loop
      vertex 0.95496684312820435 0 0.43062591552734375
      vertex 0.96559268236160278 0 0.43062591552734375
      vertex 0.96501648426055908 0 0.42862856388092041
    endloop
  endfacet
  facet normal 0 1 -0
    outer loop
      vertex 0.86172807216644287 0 0.41704630851745605
      vertex 0.90183758735656738 0 0.42250940203666687
      vertex 0.96501648426055908 0 0.42862856388092041
    endloop
  endfacet
  facet normal 0 1 0
    outer loop
      vertex 0.97621852159500122 0 0.43307778239250183
      vertex 0.97621852159500122 0 0.43316233158111572
      vertex 0.97672897577285767 0 0.43305158615112305
    endloop
  endfacet
  facet normal 0 1 0
    outer loop
      vertex 0.97675460577011108 0 0.43333142995834351
      vertex 0.97621852159500122 0 0.43316233158111572
      vertex 0.97621852159500122 0 0.43324688076972961
    endloop
  endfacet
  facet normal 0 1 -0
    outer loop
      vertex 0.97621852159500122 0 0.43316233158111572
      vertex 0.97675460577011108 0 0.43333142995834351
      vertex 0.97672897577285767 0 0.43305158615112305
    endloop
  endfacet
  facet normal 0 1 0
    outer loop
      vertex 0.97672897577285767 0 0.43305158615112305
      vertex 0.97621852159500122 0 0.43299323320388794
      vertex 0.97621852159500122 0 0.43307778239250183
    endloop
  endfacet
  facet normal 0 1 0
    outer loop
      vertex 0.97506219148635864 0 0.43169605731964111
      vertex 0.970905601978302 0 0.43130230903625488
      vertex 0.970905601978302 0 0.43197867274284363
    endloop
  endfacet
  facet normal 0 1 0
    outer loop
      vertex 0.97506219148635864 0 0.43169605731964111
      vertex 0.970905601978302 0 0.43197867274284363
      vertex 0.97356206178665161 0 0.43265503644943237
    endloop
  endfacet
  facet normal -0 1 -0
    outer loop
      vertex 0.97356206178665161 0 0.43299323320388794
      vertex 0.97489029169082642 0 0.43299323320388794
      vertex 0.97356206178665161 0 0.43265503644943237
    endloop
  endfacet
  facet normal 0 1 -0
    outer loop
      vertex 0.97489029169082642 0 0.43299323320388794
      vertex 0.97651177644729614 0 0.43268677592277527
      vertex 0.97356206178665161 0 0.43265503644943237
    endloop
  endfacet
  facet normal -0 1 0
    outer loop
      vertex 0.97506219148635864 0 0.43169605731964111
      vertex 0.97356206178665161 0 0.43265503644943237
      vertex 0.97651177644729614 0 0.43268677592277527
    endloop
  endfacet
  facet normal 0 1 -0
    outer loop
      vertex 0.97621852159500122 0 0.43299323320388794
      vertex 0.97651177644729614 0 0.43268677592277527
      vertex 0.97489029169082642 0 0.43299323320388794
    endloop
  endfacet
  facet normal -0 1 0
    outer loop
      vertex 0.97672897577285767 0 0.43305158615112305
      vertex 0.97651177644729614 0 0.43268677592277527
      vertex 0.97621852159500122 0 0.43299323320388794
    endloop
  endfacet
  facet normal 0 1 -0
    outer loop
      vertex 0.96501648426055908 0 0.42862856388092041
      vertex 0.970905601978302 0 0.43130230903625488
      vertex 0.97506219148635864 0 0.43169605731964111
    endloop
  endfacet
endsolid OBJECT
