solid OBJECT
  facet normal -0 -1 0
    outer loop
      vertex 0.84376513957977295 0.11935082823038101 -0.44395968317985535
      vertex 0.85976511240005493 0.11935082823038101 -0.44395968317985535
      vertex 0.85976511240005493 0.11935082823038101 0.44395968317985535
    endloop
  endfacet
  facet normal 0 -1 0
    outer loop
      vertex 0.84376513957977295 0.11935082823038101 -0.44395968317985535
      vertex 0.85976511240005493 0.11935082823038101 0.44395968317985535
      vertex 0.84376513957977295 0.11935082823038101 0.44395968317985535
    endloop
  endfacet
  facet normal 1 0 -0
    outer loop
      vertex 0.85976511240005493 0.11935082823038101 -0.44395968317985535
      vertex 0.85976511240005493 0.13535082340240479 -0.44395968317985535
      vertex 0.85976511240005493 0.13535082340240479 0.44395968317985535
    endloop
  endfacet
  facet normal 1 -0 0
    outer loop
      vertex 0.85976511240005493 0.11935082823038101 -0.44395968317985535
      vertex 0.85976511240005493 0.13535082340240479 0.44395968317985535
      vertex 0.85976511240005493 0.11935082823038101 0.44395968317985535
    endloop
  endfacet
  facet normal -0 1 -0
    outer loop
      vertex 0.85976511240005493 0.13535082340240479 -0.44395968317985535
      vertex 0.84376513957977295 0.13535082340240479 -0.44395968317985535
      vertex 0.84376513957977295 0.13535082340240479 0.44395968317985535
    endloop
  endfacet
  facet normal 0 1 0
    outer loop
      vertex 0.85976511240005493 0.13535082340240479 -0.44395968317985535
      vertex 0.84376513957977295 0.13535082340240479 0.44395968317985535
      vertex 0.85976511240005493 0.13535082340240479 0.44395968317985535
    endloop
  endfacet
  facet normal -1 0 0
    outer loop
      vertex 0.84376513957977295 0.13535082340240479 -0.44395968317985535
      vertex 0.84376513957977295 0.11935082823038101 -0.44395968317985535
      vertex 0.84376513957977295 0.11935082823038101 0.44395968317985535
    endloop
  endfacet
  facet normal -1 -0 0
    outer loop
      vertex 0.84376513957977295 0.13535082340240479 -0.44395968317985535
      vertex 0.84376513957977295 0.11935082823038101 0.44395968317985535
      vertex 0.84376513957977295 0.13535082340240479 0.44395968317985535
    endloop
  endfacet
  facet normal 0 0 -1
    outer loop
      vertex 0.85976511240005493 0.11935082823038101 -0.44395968317985535
      vertex 0.84376513957977295 0.11935082823038101 -0.44395968317985535
      vertex 0.84376513957977295 0.13535082340240479 -0.44395968317985535
    endloop
  endfacet
  facet normal -0 -0 -1
    outer loop
      vertex 0.84376513957977295 0.13535082340240479 -0.44395968317985535
      vertex 0.85976511240005493 0.13535082340240479 -0.44395968317985535
      vertex 0.85976511240005493 0.11935082823038101 -0.44395968317985535
    endloop
  endfacet
  facet normal -0 -0 1
    outer loop
      vertex 0.85976511240005493 0.11935082823038101 0.44395968317985535
      vertex 0.84376513957977295 0.13535082340240479 0.44395968317985535
      vertex 0.84376513957977295 0.11935082823038101 0.44395968317985535
    endloop
  endfacet
  facet normal 0 0 1
    outer loop
      vertex 0.84376513957977295 0.13535082340240479 0.44395968317985535
      vertex 0.85976511240005493 0.11935082823038101 0.44395968317985535
      vertex 0.85976511240005493 0.13535082340240479 0.44395968317985535
    endloop
  endfacet
  facet normal -0 -1 0
    outer loop
      vertex 0.093765139579772949 0.12041889876127243 -0.45234575867652893
      vertex 0.10976513475179672 0.12041889876127243 -0.45234575867652893
      vertex 0.10976513475179672 0.12041889876127243 0.45234575867652893
    endloop
  endfacet
  facet normal 0 -1 0
    outer loop
      vertex 0.093765139579772949 0.12041889876127243 -0.45234575867652893
      vertex 0.10976513475179672 0.12041889876127243 0.45234575867652893
      vertex 0.093765139579772949 0.12041889876127243 0.45234575867652893
    endloop
  endfacet
  facet normal 1 0 -0
    outer loop
      vertex 0.10976513475179672 0.12041889876127243 -0.45234575867652893
      vertex 0.10976513475179672 0.1364188939332962 -0.45234575867652893
      vertex 0.10976513475179672 0.1364188939332962 0.45234575867652893
    endloop
  endfacet
  facet normal 1 -0 0
    outer loop
      vertex 0.10976513475179672 0.12041889876127243 -0.45234575867652893
      vertex 0.10976513475179672 0.1364188939332962 0.45234575867652893
      vertex 0.10976513475179672 0.12041889876127243 0.45234575867652893
    endloop
  endfacet
  facet normal -0 1 -0
    outer loop
      vertex 0.10976513475179672 0.1364188939332962 -0.45234575867652893
      vertex 0.093765139579772949 0.1364188939332962 -0.45234575867652893
      vertex 0.093765139579772949 0.1364188939332962 0.45234575867652893
    endloop
  endfacet
  facet normal 0 1 0
    outer loop
      vertex 0.10976513475179672 0.1364188939332962 -0.45234575867652893
      vertex 0.093765139579772949 0.1364188939332962 0.45234575867652893
      vertex 0.10976513475179672 0.1364188939332962 0.45234575867652893
    endloop
  endfacet
  facet normal -1 0 0
    outer loop
      vertex 0.093765139579772949 0.1364188939332962 -0.45234575867652893
      vertex 0.093765139579772949 0.12041889876127243 -0.45234575867652893
      vertex 0.093765139579772949 0.12041889876127243 0.45234575867652893
    endloop
  endfacet
  facet normal -1 -0 0
    outer loop
      vertex 0.093765139579772949 0.1364188939332962 -0.45234575867652893
      vertex 0.093765139579772949 0.12041889876127243 0.45234575867652893
      vertex 0.093765139579772949 0.1364188939332962 0.45234575867652893
    endloop
  endfacet
  facet normal -0 -0 -1
    outer loop
      vertex 0.10976513475179672 0.12041889876127243 -0.45234575867652893
      vertex 0.093765139579772949 0.12041889876127243 -0.45234575867652893
      vertex 0.093765139579772949 0.1364188939332962 -0.45234575867652893
    endloop
  endfacet
  facet normal 0 0 -1
    outer loop
      vertex 0.093765139579772949 0.1364188939332962 -0.45234575867652893
      vertex 0.10976513475179672 0.1364188939332962 -0.45234575867652893
      vertex 0.10976513475179672 0.12041889876127243 -0.45234575867652893
    endloop
  endfacet
  facet normal 0 -0 1
    outer loop
      vertex 0.10976513475179672 0.12041889876127243 0.45234575867652893
      vertex 0.093765139579772949 0.1364188939332962 0.45234575867652893
      vertex 0.093765139579772949 0.12041889876127243 0.45234575867652893
    endloop
  endfacet
  facet normal 0 0 1
    outer loop
      vertex 0.093765139579772949 0.1364188939332962 0.45234575867652893
      vertex 0.10976513475179672 0.12041889876127243 0.45234575867652893
      vertex 0.10976513475179672 0.1364188939332962 0.45234575867652893
    endloop
  endfacet
endsolid OBJECT
