solid OBJECT
  facet normal 0 -1 -0
    outer loop
      vertex 0.85976481437683105 0 -0.36187660694122314
      vertex 0.84376484155654907 0 -0.36187660694122314
      vertex 0.84376484155654907 0 -0.45234575867652893
    endloop
  endfacet
  facet normal -0 -1 0
    outer loop
      vertex 0.85976481437683105 0 -0.36187660694122314
      vertex 0.84376484155654907 0 -0.45234575867652893
      vertex 0.85976481437683105 0 -0.45234575867652893
    endloop
  endfacet
  facet normal 0 -1 -0
    outer loop
      vertex 0.85976481437683105 0 -0.27140745520591736
      vertex 0.84376484155654907 0 -0.27140745520591736
      vertex 0.84376484155654907 0 -0.36187660694122314
    endloop
  endfacet
  facet normal -0 -1 0
    outer loop
      vertex 0.85976481437683105 0 -0.27140745520591736
      vertex 0.84376484155654907 0 -0.36187660694122314
      vertex 0.85976481437683105 0 -0.36187660694122314
    endloop
  endfacet
  facet normal 0 -1 -0
    outer loop
      vertex 0.85976481437683105 0 -0.18093830347061157
      vertex 0.84376484155654907 0 -0.18093830347061157
      vertex 0.84376484155654907 0 -0.27140745520591736
    endloop
  endfacet
  facet normal -0 -1 0
    outer loop
      vertex 0.85976481437683105 0 -0.18093830347061157
      vertex 0.84376484155654907 0 -0.27140745520591736
      vertex 0.85976481437683105 0 -0.27140745520591736
    endloop
  endfacet
  facet normal 0 -1 -0
    outer loop
      vertex 0.85976481437683105 0 -0.090469144284725189
      vertex 0.84376484155654907 0 -0.090469144284725189
      vertex 0.84376484155654907 0 -0.18093830347061157
    endloop
  endfacet
  facet normal -0 -1 0
    outer loop
      vertex 0.85976481437683105 0 -0.090469144284725189
      vertex 0.84376484155654907 0 -0.18093830347061157
      vertex 0.85976481437683105 0 -0.18093830347061157
    endloop
  endfacet
  facet normal 0 -1 -0
    outer loop
      vertex 0.85976481437683105 0 7.1444672400389209e-09
      vertex 0.84376484155654907 0 7.1444672400389209e-09
      vertex 0.84376484155654907 0 -0.090469144284725189
    endloop
  endfacet
  facet normal -0 -1 0
    outer loop
      vertex 0.85976481437683105 0 7.1444672400389209e-09
      vertex 0.84376484155654907 0 -0.090469144284725189
      vertex 0.85976481437683105 0 -0.090469144284725189
    endloop
  endfacet
  facet normal 0 -1 -0
    outer loop
      vertex 0.85976481437683105 0 0.090469159185886383
      vertex 0.84376484155654907 0 0.090469159185886383
      vertex 0.84376484155654907 0 7.1444672400389209e-09
    endloop
  endfacet
  facet normal -0 -1 0
    outer loop
      vertex 0.85976481437683105 0 0.090469159185886383
      vertex 0.84376484155654907 0 7.1444672400389209e-09
      vertex 0.85976481437683105 0 7.1444672400389209e-09
    endloop
  endfacet
  facet normal 0 -1 -0
    outer loop
      vertex 0.85976481437683105 0 0.18093831837177277
      vertex 0.84376484155654907 0 0.18093831837177277
      vertex 0.84376484155654907 0 0.090469159185886383
    endloop
  endfacet
  facet normal -0 -1 0
    outer loop
      vertex 0.85976481437683105 0 0.18093831837177277
      vertex 0.84376484155654907 0 0.090469159185886383
      vertex 0.85976481437683105 0 0.090469159185886383
    endloop
  endfacet
  facet normal 0 -1 -0
    outer loop
      vertex 0.85976481437683105 0 0.27140748500823975
      vertex 0.84376484155654907 0 0.27140748500823975
      vertex 0.84376484155654907 0 0.18093831837177277
    endloop
  endfacet
  facet normal -0 -1 0
    outer loop
      vertex 0.85976481437683105 0 0.27140748500823975
      vertex 0.84376484155654907 0 0.18093831837177277
      vertex 0.85976481437683105 0 0.18093831837177277
    endloop
  endfacet
  facet normal 0 -1 -0
    outer loop
      vertex 0.85976481437683105 0 0.36187663674354553
      vertex 0.84376484155654907 0 0.36187663674354553
      vertex 0.84376484155654907 0 0.27140748500823975
    endloop
  endfacet
  facet normal -0 -1 0
    outer loop
      vertex 0.85976481437683105 0 0.36187663674354553
      vertex 0.84376484155654907 0 0.27140748500823975
      vertex 0.85976481437683105 0 0.27140748500823975
    endloop
  endfacet
  facet normal 0 -1 -0
    outer loop
      vertex 0.85976481437683105 0 0.45234578847885132
      vertex 0.84376484155654907 0 0.45234578847885132
      vertex 0.84376484155654907 0 0.36187663674354553
    endloop
  endfacet
  facet normal -0 -1 0
    outer loop
      vertex 0.85976481437683105 0 0.45234578847885132
      vertex 0.84376484155654907 0 0.36187663674354553
      vertex 0.85976481437683105 0 0.36187663674354553
    endloop
  endfacet
  facet normal 0 -1 -0
    outer loop
      vertex 0.10976513475179672 0 -0.36187660694122314
      vertex 0.093765132129192352 0 -0.36187660694122314
      vertex 0.093765132129192352 0 -0.45234575867652893
    endloop
  endfacet
  facet normal -0 -1 0
    outer loop
      vertex 0.10976513475179672 0 -0.36187660694122314
      vertex 0.093765132129192352 0 -0.45234575867652893
      vertex 0.10976513475179672 0 -0.45234575867652893
    endloop
  endfacet
  facet normal 0 -1 -0
    outer loop
      vertex 0.10976513475179672 0 -0.27140745520591736
      vertex 0.093765132129192352 0 -0.27140745520591736
      vertex 0.093765132129192352 0 -0.36187660694122314
    endloop
  endfacet
  facet normal -0 -1 0
    outer loop
      vertex 0.10976513475179672 0 -0.27140745520591736
      vertex 0.093765132129192352 0 -0.36187660694122314
      vertex 0.10976513475179672 0 -0.36187660694122314
    endloop
  endfacet
  facet normal 0 -1 -0
    outer loop
      vertex 0.10976513475179672 0 -0.18093830347061157
      vertex 0.093765132129192352 0 -0.18093830347061157
      vertex 0.093765132129192352 0 -0.27140745520591736
    endloop
  endfacet
  facet normal -0 -1 0
    outer loop
      vertex 0.10976513475179672 0 -0.18093830347061157
      vertex 0.093765132129192352 0 -0.27140745520591736
      vertex 0.10976513475179672 0 -0.27140745520591736
    endloop
  endfacet
  facet normal 0 -1 -0
    outer loop
      vertex 0.10976513475179672 0 -0.090469144284725189
      vertex 0.093765132129192352 0 -0.090469144284725189
      vertex 0.093765132129192352 0 -0.18093830347061157
    endloop
  endfacet
  facet normal -0 -1 0
    outer loop
      vertex 0.10976513475179672 0 -0.090469144284725189
      vertex 0.093765132129192352 0 -0.18093830347061157
      vertex 0.10976513475179672 0 -0.18093830347061157
    endloop
  endfacet
  facet normal 0 -1 -0
    outer loop
      vertex 0.10976513475179672 0 7.1444672400389209e-09
      vertex 0.093765132129192352 0 7.1444672400389209e-09
      vertex 0.093765132129192352 0 -0.090469144284725189
    endloop
  endfacet
  facet normal -0 -1 0
    outer loop
      vertex 0.10976513475179672 0 7.1444672400389209e-09
      vertex 0.093765132129192352 0 -0.090469144284725189
      vertex 0.10976513475179672 0 -0.090469144284725189
    endloop
  endfacet
  facet normal 0 -1 -0
    outer loop
      vertex 0.10976513475179672 0 0.090469159185886383
      vertex 0.093765132129192352 0 0.090469159185886383
      vertex 0.093765132129192352 0 7.1444672400389209e-09
    endloop
  endfacet
  facet normal -0 -1 0
    outer loop
      vertex 0.10976513475179672 0 0.090469159185886383
      vertex 0.093765132129192352 0 7.1444672400389209e-09
      vertex 0.10976513475179672 0 7.1444672400389209e-09
    endloop
  endfacet
  facet normal 0 -1 -0
    outer loop
      vertex 0.10976513475179672 0 0.18093831837177277
      vertex 0.093765132129192352 0 0.18093831837177277
      vertex 0.093765132129192352 0 0.090469159185886383
    endloop
  endfacet
  facet normal -0 -1 0
    outer loop
      vertex 0.10976513475179672 0 0.18093831837177277
      vertex 0.093765132129192352 0 0.090469159185886383
      vertex 0.10976513475179672 0 0.090469159185886383
    endloop
  endfacet
  facet normal 0 -1 -0
    outer loop
      vertex 0.10976513475179672 0 0.27140748500823975
      vertex 0.093765132129192352 0 0.27140748500823975
      vertex 0.093765132129192352 0 0.18093831837177277
    endloop
  endfacet
  facet normal -0 -1 0
    outer loop
      vertex 0.10976513475179672 0 0.27140748500823975
      vertex 0.093765132129192352 0 0.18093831837177277
      vertex 0.10976513475179672 0 0.18093831837177277
    endloop
  endfacet
  facet normal 0 -1 -0
    outer loop
      vertex 0.10976513475179672 0 0.36187663674354553
      vertex 0.093765132129192352 0 0.36187663674354553
      vertex 0.093765132129192352 0 0.27140748500823975
    endloop
  endfacet
  facet normal -0 -1 0
    outer loop
      vertex 0.10976513475179672 0 0.36187663674354553
      vertex 0.093765132129192352 0 0.27140748500823975
      vertex 0.10976513475179672 0 0.27140748500823975
    endloop
  endfacet
  facet normal 0 -1 -0
    outer loop
      vertex 0.10976513475179672 0 0.45234578847885132
      vertex 0.093765132129192352 0 0.45234578847885132
      vertex 0.093765132129192352 0 0.36187663674354553
    endloop
  endfacet
  facet normal -0 -1 0
    outer loop
      vertex 0.10976513475179672 0 0.45234578847885132
      vertex 0.093765132129192352 0 0.36187663674354553
      vertex 0.10976513475179672 0 0.36187663674354553
    endloop
  endfacet
endsolid OBJECT
