solid OBJECT
  facet normal 0 1 -0
    outer loop
      vertex 0.0087337726727128029 0 -0.0012841044226661325
      vertex 0.0087337726727128029 0 -0.0025682088453322649
      vertex -5.9858750319108367e-05 0 -0.0025682088453322649
    endloop
  endfacet
  facet normal -0 1 -0
    outer loop
      vertex -5.9858750319108367e-05 0 0
      vertex 0.0087337726727128029 0 0
      vertex 0.0087337726727128029 0 -0.0012841044226661325
    endloop
  endfacet
  facet normal 0 1 0
    outer loop
      vertex -5.9858750319108367e-05 0 -0.0025682088453322649
      vertex -5.9858750319108367e-05 0 0
      vertex 0.0087337726727128029 0 -0.0012841044226661325
    endloop
  endfacet
  facet normal 0 1 0
    outer loop
      vertex 0.015328996814787388 0 -0.0019261565757915378
      vertex 0.013130589388310909 0 -0.0019261565757915378
      vertex 0.013130589388310909 0 -0.0012841044226661325
    endloop
  endfacet
  facet normal 0 1 0
    outer loop
      vertex 0.015328996814787388 0 -0.0019261565757915378
      vertex 0.013130589388310909 0 -0.0012841044226661325
      vertex 0.015328996814787388 0 -0.0012841044226661325
    endloop
  endfacet
  facet normal 0 1 -0
    outer loop
      vertex 0.013130589388310909 0 -0.0019261565757915378
      vertex 0.013130589388310909 0 -0.0025682088453322649
      vertex 0.0087337726727128029 0 -0.0025682088453322649
    endloop
  endfacet
  facet normal -0 1 -0
    outer loop
      vertex 0.0087337726727128029 0 -0.0012841044226661325
      vertex 0.013130589388310909 0 -0.0012841044226661325
      vertex 0.013130589388310909 0 -0.0019261565757915378
    endloop
  endfacet
  facet normal 0 1 0
    outer loop
      vertex 0.0087337726727128029 0 -0.0025682088453322649
      vertex 0.0087337726727128029 0 -0.0012841044226661325
      vertex 0.013130589388310909 0 -0.0019261565757915378
    endloop
  endfacet
  facet normal 0 1 -0
    outer loop
      vertex 0.013130589388310909 0 -0.00064205221133306623
      vertex 0.013130589388310909 0 -0.0012841044226661325
      vertex 0.0087337726727128029 0 -0.0012841044226661325
    endloop
  endfacet
  facet normal -0 1 -0
    outer loop
      vertex 0.0087337726727128029 0 0
      vertex 0.013130589388310909 0 0
      vertex 0.013130589388310909 0 -0.00064205221133306623
    endloop
  endfacet
  facet normal 0 1 0
    outer loop
      vertex 0.0087337726727128029 0 -0.0012841044226661325
      vertex 0.0087337726727128029 0 0
      vertex 0.013130589388310909 0 -0.00064205221133306623
    endloop
  endfacet
  facet normal 0 1 0
    outer loop
      vertex 0.015328996814787388 0 -0.0012841044226661325
      vertex 0.013130589388310909 0 -0.0012841044226661325
      vertex 0.013130589388310909 0 -0.00064205221133306623
    endloop
  endfacet
  facet normal 0 1 0
    outer loop
      vertex 0.015328996814787388 0 -0.0012841044226661325
      vertex 0.013130589388310909 0 -0.00064205221133306623
      vertex 0.015328996814787388 0 -0.00064205221133306623
    endloop
  endfacet
  facet normal 0 1 0
    outer loop
      vertex 0.015328996814787388 0 -0.00064205221133306623
      vertex 0.013130589388310909 0 -0.00064205221133306623
      vertex 0.013130589388310909 0 0
    endloop
  endfacet
  facet normal 0 1 0
    outer loop
      vertex 0.015328996814787388 0 -0.00064205221133306623
      vertex 0.013130589388310909 0 0
      vertex 0.015328996814787388 0 0
    endloop
  endfacet
  facet normal 0 1 0
    outer loop
      vertex 0.015328996814787388 0 0
      vertex 0.013130589388310909 0 0
      vertex 0.013130589388310909 0 0.00064205221133306623
    endloop
  endfacet
  facet normal 0 1 0
    outer loop
      vertex 0.015328996814787388 0 0
      vertex 0.013130589388310909 0 0.00064205221133306623
      vertex 0.015328996814787388 0 0.00064205221133306623
    endloop
  endfacet
  facet normal 0 1 0
    outer loop
      vertex 0.015328996814787388 0 0.00064205221133306623
      vertex 0.013130589388310909 0 0.00064205221133306623
      vertex 0.013130589388310909 0 0.0012841044226661325
    endloop
  endfacet
  facet normal 0 1 0
    outer loop
      vertex 0.015328996814787388 0 0.00064205221133306623
      vertex 0.013130589388310909 0 0.0012841044226661325
      vertex 0.015328996814787388 0 0.0012841044226661325
    endloop
  endfacet
  facet normal 0 1 -0
    outer loop
      vertex 0.013130589388310909 0 0.00064205221133306623
      vertex 0.013130589388310909 0 0
      vertex 0.0087337726727128029 0 0
    endloop
  endfacet
  facet normal -0 1 -0
    outer loop
      vertex 0.0087337726727128029 0 0.0012841044226661325
      vertex 0.013130589388310909 0 0.0012841044226661325
      vertex 0.013130589388310909 0 0.00064205221133306623
    endloop
  endfacet
  facet normal 0 1 0
    outer loop
      vertex 0.0087337726727128029 0 0
      vertex 0.0087337726727128029 0 0.0012841044226661325
      vertex 0.013130589388310909 0 0.00064205221133306623
    endloop
  endfacet
  facet normal 0 1 -0
    outer loop
      vertex 0.013130589388310909 0 0.0019261565757915378
      vertex 0.013130589388310909 0 0.0012841044226661325
      vertex 0.0087337726727128029 0 0.0012841044226661325
    endloop
  endfacet
  facet normal -0 1 -0
    outer loop
      vertex 0.0087337726727128029 0 0.0025682088453322649
      vertex 0.013130589388310909 0 0.0025682088453322649
      vertex 0.013130589388310909 0 0.0019261565757915378
    endloop
  endfacet
  facet normal 0 1 0
    outer loop
      vertex 0.0087337726727128029 0 0.0012841044226661325
      vertex 0.0087337726727128029 0 0.0025682088453322649
      vertex 0.013130589388310909 0 0.0019261565757915378
    endloop
  endfacet
  facet normal 0 1 0
    outer loop
      vertex 0.015328996814787388 0 0.0012841044226661325
      vertex 0.013130589388310909 0 0.0012841044226661325
      vertex 0.013130589388310909 0 0.0019261565757915378
    endloop
  endfacet
  facet normal 0 1 0
    outer loop
      vertex 0.015328996814787388 0 0.0012841044226661325
      vertex 0.013130589388310909 0 0.0019261565757915378
      vertex 0.015328996814787388 0 0.0019261565757915378
    endloop
  endfacet
  facet normal 0 1 -0
    outer loop
      vertex 0.0087337726727128029 0 0.0012841044226661325
      vertex 0.0087337726727128029 0 0
      vertex -5.9858750319108367e-05 0 0
    endloop
  endfacet
  facet normal -0 1 -0
    outer loop
      vertex -5.9858750319108367e-05 0 0.0025682088453322649
      vertex 0.0087337726727128029 0 0.0025682088453322649
      vertex 0.0087337726727128029 0 0.0012841044226661325
    endloop
  endfacet
  facet normal 0 1 0
    outer loop
      vertex -5.9858750319108367e-05 0 0
      vertex -5.9858750319108367e-05 0 0.0025682088453322649
      vertex 0.0087337726727128029 0 0.0012841044226661325
    endloop
  endfacet
  facet normal -0 1 0
    outer loop
      vertex -0.011064046062529087 0 0.005067270714789629
      vertex -0.024641988798975945 0 -0.0040708188898861408
      vertex -0.036042012274265289 0 0.0025747972540557384
    endloop
  endfacet
  facet normal 0 1 0
    outer loop
      vertex 0.0081187905743718147 0 0.0044515463523566723
      vertex -5.9858750319108367e-05 0 0.0025682088453322649
      vertex -0.011064046062529087 0 0.005067270714789629
    endloop
  endfacet
  facet normal -0 1 -0
    outer loop
      vertex -0.011064046062529087 0 0.005067270714789629
      vertex -5.9858750319108367e-05 0 0.0025682088453322649
      vertex -5.9858750319108367e-05 0 0
    endloop
  endfacet
  facet normal 0 1 -0
    outer loop
      vertex -5.9858750319108367e-05 0 0.0025682088453322649
      vertex 0.0081187905743718147 0 0.0044515463523566723
      vertex 0.0087337726727128029 0 0.0025682088453322649
    endloop
  endfacet
  facet normal -0 1 0
    outer loop
      vertex 0.014530901797115803 0 0.0030681751668453217
      vertex 0.013130589388310909 0 0.0025682088453322649
      vertex 0.0087337726727128029 0 0.0025682088453322649
    endloop
  endfacet
  facet normal 0 1 0
    outer loop
      vertex 0.015328996814787388 0 0.0019261565757915378
      vertex 0.013130589388310909 0 0.0019261565757915378
      vertex 0.013130589388310909 0 0.0025682088453322649
    endloop
  endfacet
  facet normal 0 1 0
    outer loop
      vertex 0.014530901797115803 0 0.0030681751668453217
      vertex 0.0087337726727128029 0 0.0025682088453322649
      vertex 0.0081187905743718147 0 0.0044515463523566723
    endloop
  endfacet
  facet normal -0 1 -0
    outer loop
      vertex -0.036042012274265289 0 0.0025747972540557384
      vertex -0.024641988798975945 0 -0.0040708188898861408
      vertex -0.036042012274265289 0 -0.0025747972540557384
    endloop
  endfacet
  facet normal -0 1 0
    outer loop
      vertex -0.024641988798975945 0 -0.0040708188898861408
      vertex -5.9858750319108367e-05 0 0
      vertex -0.011064046062529087 0 -0.005067270714789629
    endloop
  endfacet
  facet normal 0 1 0
    outer loop
      vertex -0.036042012274265289 0 -0.0025747972540557384
      vertex -0.052821651101112366 0 0
      vertex -0.036042012274265289 0 0.0025747972540557384
    endloop
  endfacet
  facet normal 0 1 -0
    outer loop
      vertex -0.011064046062529087 0 -0.005067270714789629
      vertex -5.9858750319108367e-05 0 0
      vertex -5.9858750319108367e-05 0 -0.0025682088453322649
    endloop
  endfacet
  facet normal 0 1 -0
    outer loop
      vertex 0.0087337726727128029 0 -0.0025682088453322649
      vertex 0.014530901797115803 0 -0.0030681751668453217
      vertex 0.0081187905743718147 0 -0.0044515463523566723
    endloop
  endfacet
  facet normal -0 1 -0
    outer loop
      vertex -5.9858750319108367e-05 0 -0.0025682088453322649
      vertex 0.0087337726727128029 0 -0.0025682088453322649
      vertex 0.0081187905743718147 0 -0.0044515463523566723
    endloop
  endfacet
  facet normal 0 1 -0
    outer loop
      vertex -0.011064046062529087 0 -0.005067270714789629
      vertex -5.9858750319108367e-05 0 -0.0025682088453322649
      vertex 0.0081187905743718147 0 -0.0044515463523566723
    endloop
  endfacet
  facet normal 0 1 -0
    outer loop
      vertex -0.011064046062529087 0 0.005067270714789629
      vertex -5.9858750319108367e-05 0 0
      vertex -0.024641988798975945 0 -0.0040708188898861408
    endloop
  endfacet
  facet normal 0 1 0
    outer loop
      vertex 0.01652245782315731 0 0.0018126710783690214
      vertex 0.015328996814787388 0 0.0019261565757915378
      vertex 0.014530901797115803 0 0.0030681751668453217
    endloop
  endfacet
  facet normal 0 1 0
    outer loop
      vertex 0.017156552523374557 0 0.0009844793239608407
      vertex 0.015328996814787388 0 0.00064205221133306623
      vertex 0.015328996814787388 0 0.0012841044226661325
    endloop
  endfacet
  facet normal 0 1 0
    outer loop
      vertex 0.015328996814787388 0 0.0012841044226661325
      vertex 0.015328996814787388 0 0.0019261565757915378
      vertex 0.01652245782315731 0 0.0018126710783690214
    endloop
  endfacet
  facet normal 0 1 -0
    outer loop
      vertex 0.017156552523374557 0 0.0009844793239608407
      vertex 0.017527405172586441 0 0
      vertex 0.015328996814787388 0 0.00064205221133306623
    endloop
  endfacet
  facet normal -0 1 0
    outer loop
      vertex 0.015328996814787388 0 -0.00064205221133306623
      vertex 0.015328996814787388 0 0
      vertex 0.017527405172586441 0 0
    endloop
  endfacet
  facet normal 0 1 0
    outer loop
      vertex 0.017527405172586441 0 0
      vertex 0.015328996814787388 0 0
      vertex 0.015328996814787388 0 0.00064205221133306623
    endloop
  endfacet
  facet normal 0 1 -0
    outer loop
      vertex 0.01652245782315731 0 0.0018126710783690214
      vertex 0.017156552523374557 0 0.0009844793239608407
      vertex 0.015328996814787388 0 0.0012841044226661325
    endloop
  endfacet
  facet normal -0 1 -0
    outer loop
      vertex 0.013130589388310909 0 -0.0019261565757915378
      vertex 0.015328996814787388 0 -0.0019261565757915378
      vertex 0.013130589388310909 0 -0.0025682088453322649
    endloop
  endfacet
  facet normal 0 1 0
    outer loop
      vertex 0.0087337726727128029 0 -0.0025682088453322649
      vertex 0.013130589388310909 0 -0.0025682088453322649
      vertex 0.014530901797115803 0 -0.0030681751668453217
    endloop
  endfacet
  facet normal 0 1 -0
    outer loop
      vertex 0.013130589388310909 0 -0.0025682088453322649
      vertex 0.015328996814787388 0 -0.0019261565757915378
      vertex 0.014530901797115803 0 -0.0030681751668453217
    endloop
  endfacet
  facet normal -0 1 0
    outer loop
      vertex 0.01652245782315731 0 -0.0018126710783690214
      vertex 0.015328996814787388 0 -0.0012841044226661325
      vertex 0.017156552523374557 0 -0.0009844793239608407
    endloop
  endfacet
  facet normal -0 1 -0
    outer loop
      vertex 0.015328996814787388 0 -0.00064205221133306623
      vertex 0.017156552523374557 0 -0.0009844793239608407
      vertex 0.015328996814787388 0 -0.0012841044226661325
    endloop
  endfacet
  facet normal 0 1 -0
    outer loop
      vertex 0.014530901797115803 0 -0.0030681751668453217
      vertex 0.015328996814787388 0 -0.0019261565757915378
      vertex 0.01652245782315731 0 -0.0018126710783690214
    endloop
  endfacet
  facet normal -0 1 -0
    outer loop
      vertex 0.015328996814787388 0 -0.0012841044226661325
      vertex 0.01652245782315731 0 -0.0018126710783690214
      vertex 0.015328996814787388 0 -0.0019261565757915378
    endloop
  endfacet
  facet normal -0 1 0
    outer loop
      vertex 0.017156552523374557 0 -0.0009844793239608407
      vertex 0.015328996814787388 0 -0.00064205221133306623
      vertex 0.017527405172586441 0 0
    endloop
  endfacet
  facet normal 0 1 0
    outer loop
      vertex 0.015328996814787388 0 0.0019261565757915378
      vertex 0.013130589388310909 0 0.0025682088453322649
      vertex 0.014530901797115803 0 0.0030681751668453217
    endloop
  endfacet
endsolid OBJECT
