solid OBJECT
  facet normal 0 1 0
    outer loop
      vertex 0.081391945481300354 0 -0.050254281610250473
      vertex -0.0038120448589324951 0 -0.050254281610250473
      vertex -0.0038120448589324951 0 -0.033502854406833649
    endloop
  endfacet
  facet normal 0 1 0
    outer loop
      vertex 0.081391945481300354 0 -0.050254281610250473
      vertex -0.0038120448589324951 0 -0.033502854406833649
      vertex 0.081391945481300354 0 -0.033502854406833649
    endloop
  endfacet
  facet normal 0 1 -0
    outer loop
      vertex -0.0038120448589324951 0 -0.016751427203416824
      vertex -0.0038120448589324951 0 -0.033502854406833649
      vertex -0.17422002553939819 0 -0.033502854406833649
    endloop
  endfacet
  facet normal -0 1 -0
    outer loop
      vertex -0.17422002553939819 0 0
      vertex -0.0038120448589324951 0 0
      vertex -0.0038120448589324951 0 -0.016751427203416824
    endloop
  endfacet
  facet normal 0 1 0
    outer loop
      vertex -0.17422002553939819 0 -0.033502854406833649
      vertex -0.17422002553939819 0 0
      vertex -0.0038120448589324951 0 -0.016751427203416824
    endloop
  endfacet
  facet normal 0 1 0
    outer loop
      vertex 0.12399394065141678 0 -0.033502854406833649
      vertex 0.081391945481300354 0 -0.033502854406833649
      vertex 0.081391945481300354 0 -0.025127140805125237
    endloop
  endfacet
  facet normal 0 1 0
    outer loop
      vertex 0.12399394065141678 0 -0.033502854406833649
      vertex 0.081391945481300354 0 -0.025127140805125237
      vertex 0.12399394065141678 0 -0.025127140805125237
    endloop
  endfacet
  facet normal 0 1 0
    outer loop
      vertex 0.12399394065141678 0 -0.025127140805125237
      vertex 0.081391945481300354 0 -0.025127140805125237
      vertex 0.081391945481300354 0 -0.016751427203416824
    endloop
  endfacet
  facet normal 0 1 0
    outer loop
      vertex 0.12399394065141678 0 -0.025127140805125237
      vertex 0.081391945481300354 0 -0.016751427203416824
      vertex 0.12399394065141678 0 -0.016751427203416824
    endloop
  endfacet
  facet normal 0 1 -0
    outer loop
      vertex 0.081391945481300354 0 -0.025127140805125237
      vertex 0.081391945481300354 0 -0.033502854406833649
      vertex -0.0038120448589324951 0 -0.033502854406833649
    endloop
  endfacet
  facet normal -0 1 -0
    outer loop
      vertex -0.0038120448589324951 0 -0.016751427203416824
      vertex 0.081391945481300354 0 -0.016751427203416824
      vertex 0.081391945481300354 0 -0.025127140805125237
    endloop
  endfacet
  facet normal 0 1 0
    outer loop
      vertex -0.0038120448589324951 0 -0.033502854406833649
      vertex -0.0038120448589324951 0 -0.016751427203416824
      vertex 0.081391945481300354 0 -0.025127140805125237
    endloop
  endfacet
  facet normal 0 1 -0
    outer loop
      vertex 0.081391945481300354 0 -0.0083757136017084122
      vertex 0.081391945481300354 0 -0.016751427203416824
      vertex -0.0038120448589324951 0 -0.016751427203416824
    endloop
  endfacet
  facet normal -0 1 -0
    outer loop
      vertex -0.0038120448589324951 0 0
      vertex 0.081391945481300354 0 0
      vertex 0.081391945481300354 0 -0.0083757136017084122
    endloop
  endfacet
  facet normal 0 1 0
    outer loop
      vertex -0.0038120448589324951 0 -0.016751427203416824
      vertex -0.0038120448589324951 0 0
      vertex 0.081391945481300354 0 -0.0083757136017084122
    endloop
  endfacet
  facet normal 0 1 0
    outer loop
      vertex 0.12399394065141678 0 -0.016751427203416824
      vertex 0.081391945481300354 0 -0.016751427203416824
      vertex 0.081391945481300354 0 -0.0083757136017084122
    endloop
  endfacet
  facet normal 0 1 0
    outer loop
      vertex 0.12399394065141678 0 -0.016751427203416824
      vertex 0.081391945481300354 0 -0.0083757136017084122
      vertex 0.12399394065141678 0 -0.0083757136017084122
    endloop
  endfacet
  facet normal 0 1 0
    outer loop
      vertex 0.12399394065141678 0 -0.0083757136017084122
      vertex 0.081391945481300354 0 -0.0083757136017084122
      vertex 0.081391945481300354 0 0
    endloop
  endfacet
  facet normal 0 1 0
    outer loop
      vertex 0.12399394065141678 0 -0.0083757136017084122
      vertex 0.081391945481300354 0 0
      vertex 0.12399394065141678 0 0
    endloop
  endfacet
  facet normal 0 1 0
    outer loop
      vertex 0.12399394065141678 0 0
      vertex 0.081391945481300354 0 0
      vertex 0.081391945481300354 0 0.0083757136017084122
    endloop
  endfacet
  facet normal 0 1 0
    outer loop
      vertex 0.12399394065141678 0 0
      vertex 0.081391945481300354 0 0.0083757136017084122
      vertex 0.12399394065141678 0 0.0083757136017084122
    endloop
  endfacet
  facet normal 0 1 0
    outer loop
      vertex 0.12399394065141678 0 0.0083757136017084122
      vertex 0.081391945481300354 0 0.0083757136017084122
      vertex 0.081391945481300354 0 0.016751427203416824
    endloop
  endfacet
  facet normal 0 1 0
    outer loop
      vertex 0.12399394065141678 0 0.0083757136017084122
      vertex 0.081391945481300354 0 0.016751427203416824
      vertex 0.12399394065141678 0 0.016751427203416824
    endloop
  endfacet
  facet normal 0 1 -0
    outer loop
      vertex 0.081391945481300354 0 0.0083757136017084122
      vertex 0.081391945481300354 0 0
      vertex -0.0038120448589324951 0 0
    endloop
  endfacet
  facet normal -0 1 -0
    outer loop
      vertex -0.0038120448589324951 0 0.016751427203416824
      vertex 0.081391945481300354 0 0.016751427203416824
      vertex 0.081391945481300354 0 0.0083757136017084122
    endloop
  endfacet
  facet normal 0 1 0
    outer loop
      vertex -0.0038120448589324951 0 0
      vertex -0.0038120448589324951 0 0.016751427203416824
      vertex 0.081391945481300354 0 0.0083757136017084122
    endloop
  endfacet
  facet normal 0 1 -0
    outer loop
      vertex 0.081391945481300354 0 0.025127140805125237
      vertex 0.081391945481300354 0 0.016751427203416824
      vertex -0.0038120448589324951 0 0.016751427203416824
    endloop
  endfacet
  facet normal -0 1 -0
    outer loop
      vertex -0.0038120448589324951 0 0.033502854406833649
      vertex 0.081391945481300354 0 0.033502854406833649
      vertex 0.081391945481300354 0 0.025127140805125237
    endloop
  endfacet
  facet normal 0 1 0
    outer loop
      vertex -0.0038120448589324951 0 0.016751427203416824
      vertex -0.0038120448589324951 0 0.033502854406833649
      vertex 0.081391945481300354 0 0.025127140805125237
    endloop
  endfacet
  facet normal 0 1 0
    outer loop
      vertex 0.12399394065141678 0 0.016751427203416824
      vertex 0.081391945481300354 0 0.016751427203416824
      vertex 0.081391945481300354 0 0.025127140805125237
    endloop
  endfacet
  facet normal 0 1 0
    outer loop
      vertex 0.12399394065141678 0 0.016751427203416824
      vertex 0.081391945481300354 0 0.025127140805125237
      vertex 0.12399394065141678 0 0.025127140805125237
    endloop
  endfacet
  facet normal 0 1 0
    outer loop
      vertex 0.12399394065141678 0 0.025127140805125237
      vertex 0.081391945481300354 0 0.025127140805125237
      vertex 0.081391945481300354 0 0.033502854406833649
    endloop
  endfacet
  facet normal 0 1 0
    outer loop
      vertex 0.12399394065141678 0 0.025127140805125237
      vertex 0.081391945481300354 0 0.033502854406833649
      vertex 0.12399394065141678 0 0.033502854406833649
    endloop
  endfacet
  facet normal 0 1 -0
    outer loop
      vertex -0.0038120448589324951 0 0.016751427203416824
      vertex -0.0038120448589324951 0 0
      vertex -0.17422002553939819 0 0
    endloop
  endfacet
  facet normal -0 1 -0
    outer loop
      vertex -0.17422002553939819 0 0.033502854406833649
      vertex -0.0038120448589324951 0 0.033502854406833649
      vertex -0.0038120448589324951 0 0.016751427203416824
    endloop
  endfacet
  facet normal 0 1 0
    outer loop
      vertex -0.17422002553939819 0 0
      vertex -0.17422002553939819 0 0.033502854406833649
      vertex -0.0038120448589324951 0 0.016751427203416824
    endloop
  endfacet
  facet normal 0 1 0
    outer loop
      vertex 0.081391945481300354 0 0.033502854406833649
      vertex -0.0038120448589324951 0 0.033502854406833649
      vertex -0.0038120448589324951 0 0.050254281610250473
    endloop
  endfacet
  facet normal 0 1 0
    outer loop
      vertex 0.081391945481300354 0 0.033502854406833649
      vertex -0.0038120448589324951 0 0.050254281610250473
      vertex 0.081391945481300354 0 0.050254281610250473
    endloop
  endfacet
  facet normal 0 1 0
    outer loop
      vertex -0.17422002553939819 0 0.033502854406833649
      vertex -0.17520835995674133 0 0.058785397559404373
      vertex -0.0038120448589324951 0 0.050254281610250473
    endloop
  endfacet
  facet normal -0 1 0
    outer loop
      vertex -0.00084808841347694397 0 0.065529309213161469
      vertex -0.0038120448589324951 0 0.050254281610250473
      vertex -0.17520835995674133 0 0.058785397559404373
    endloop
  endfacet
  facet normal 0 1 -0
    outer loop
      vertex -0.50503599643707275 0 0
      vertex -0.17422002553939819 0 0.033502854406833649
      vertex -0.17422002553939819 0 0
    endloop
  endfacet
  facet normal 0 1 -0
    outer loop
      vertex -0.17520835995674133 0 0.058785397559404373
      vertex -0.17422002553939819 0 0.033502854406833649
      vertex -0.50503599643707275 0 0
    endloop
  endfacet
  facet normal 0 1 0
    outer loop
      vertex -0.0038120448589324951 0 0.033502854406833649
      vertex -0.17422002553939819 0 0.033502854406833649
      vertex -0.0038120448589324951 0 0.050254281610250473
    endloop
  endfacet
  facet normal -0 1 -0
    outer loop
      vertex 0.11867232620716095 0 0.046543527394533157
      vertex 0.081391945481300354 0 0.050254281610250473
      vertex -0.00084808841347694397 0 0.065529309213161469
    endloop
  endfacet
  facet normal 0 1 0
    outer loop
      vertex 0.081391945481300354 0 0.033502854406833649
      vertex 0.081391945481300354 0 0.050254281610250473
      vertex 0.11867232620716095 0 0.046543527394533157
    endloop
  endfacet
  facet normal 0 1 -0
    outer loop
      vertex -0.00084808841347694397 0 0.065529309213161469
      vertex 0.081391945481300354 0 0.050254281610250473
      vertex -0.0038120448589324951 0 0.050254281610250473
    endloop
  endfacet
  facet normal -0 1 -0
    outer loop
      vertex -0.50503599643707275 0 0
      vertex -0.17422002553939819 0 -0.033502854406833649
      vertex -0.17520835995674133 0 -0.058785397559404373
    endloop
  endfacet
  facet normal 0 1 -0
    outer loop
      vertex -0.0038120448589324951 0 -0.033502854406833649
      vertex -0.0038120448589324951 0 -0.050254281610250473
      vertex -0.17422002553939819 0 -0.033502854406833649
    endloop
  endfacet
  facet normal 0 1 -0
    outer loop
      vertex -0.17520835995674133 0 -0.058785397559404373
      vertex -0.17422002553939819 0 -0.033502854406833649
      vertex -0.0038120448589324951 0 -0.050254281610250473
    endloop
  endfacet
  facet normal 0 1 -0
    outer loop
      vertex -0.17422002553939819 0 0
      vertex -0.17422002553939819 0 -0.033502854406833649
      vertex -0.50503599643707275 0 0
    endloop
  endfacet
  facet normal 0 1 -0
    outer loop
      vertex 0.11867232620716095 0 -0.046543527394533157
      vertex -0.00084808841347694397 0 -0.065529309213161469
      vertex 0.081391945481300354 0 -0.050254281610250473
    endloop
  endfacet
  facet normal -0 1 -0
    outer loop
      vertex -0.0038120448589324951 0 -0.050254281610250473
      vertex 0.081391945481300354 0 -0.050254281610250473
      vertex -0.00084808841347694397 0 -0.065529309213161469
    endloop
  endfacet
  facet normal 0 1 0
    outer loop
      vertex 0.081391945481300354 0 -0.050254281610250473
      vertex 0.081391945481300354 0 -0.033502854406833649
      vertex 0.11867232620716095 0 -0.046543527394533157
    endloop
  endfacet
  facet normal 0 1 -0
    outer loop
      vertex -0.17520835995674133 0 -0.058785397559404373
      vertex -0.0038120448589324951 0 -0.050254281610250473
      vertex -0.00084808841347694397 0 -0.065529309213161469
    endloop
  endfacet
  facet normal 0 1 0
    outer loop
      vertex 0.15445348620414734 0 0.027270486578345299
      vertex 0.12399394065141678 0 0.033502854406833649
      vertex 0.11867232620716095 0 0.046543527394533157
    endloop
  endfacet
  facet normal 0 1 0
    outer loop
      vertex 0.15445348620414734 0 0.027270486578345299
      vertex 0.12399394065141678 0 0.016751427203416824
      vertex 0.12399394065141678 0 0.025127140805125237
    endloop
  endfacet
  facet normal 0 1 0
    outer loop
      vertex 0.12399394065141678 0 0.025127140805125237
      vertex 0.12399394065141678 0 0.033502854406833649
      vertex 0.15445348620414734 0 0.027270486578345299
    endloop
  endfacet
  facet normal -0 1 -0
    outer loop
      vertex 0.12399394065141678 0 0.016751427203416824
      vertex 0.16382260620594025 0 0.014704174362123013
      vertex 0.12399394065141678 0 0.0083757136017084122
    endloop
  endfacet
  facet normal -0 1 -0
    outer loop
      vertex 0.12399394065141678 0 0.0083757136017084122
      vertex 0.1665482372045517 0 0
      vertex 0.12399394065141678 0 0
    endloop
  endfacet
  facet normal 0 1 0
    outer loop
      vertex 0.1665482372045517 0 0
      vertex 0.12399394065141678 0 0.0083757136017084122
      vertex 0.16382260620594025 0 0.014704174362123013
    endloop
  endfacet
  facet normal 0 1 -0
    outer loop
      vertex 0.15445348620414734 0 0.027270486578345299
      vertex 0.16382260620594025 0 0.014704174362123013
      vertex 0.12399394065141678 0 0.016751427203416824
    endloop
  endfacet
  facet normal 0 1 0
    outer loop
      vertex 0.16382260620594025 0 -0.014704174362123013
      vertex 0.12399394065141678 0 -0.016751427203416824
      vertex 0.12399394065141678 0 -0.0083757136017084122
    endloop
  endfacet
  facet normal -0 1 0
    outer loop
      vertex 0.11867232620716095 0 -0.046543527394533157
      vertex 0.081391945481300354 0 -0.033502854406833649
      vertex 0.12399394065141678 0 -0.033502854406833649
    endloop
  endfacet
  facet normal 0 1 0
    outer loop
      vertex 0.12399394065141678 0 -0.025127140805125237
      vertex 0.12399394065141678 0 -0.016751427203416824
      vertex 0.15445348620414734 0 -0.027270486578345299
    endloop
  endfacet
  facet normal -0 1 0
    outer loop
      vertex 0.16382260620594025 0 -0.014704174362123013
      vertex 0.15445348620414734 0 -0.027270486578345299
      vertex 0.12399394065141678 0 -0.016751427203416824
    endloop
  endfacet
  facet normal 0 1 -0
    outer loop
      vertex 0.11867232620716095 0 -0.046543527394533157
      vertex 0.12399394065141678 0 -0.033502854406833649
      vertex 0.15445348620414734 0 -0.027270486578345299
    endloop
  endfacet
  facet normal 0 1 0
    outer loop
      vertex 0.15445348620414734 0 -0.027270486578345299
      vertex 0.12399394065141678 0 -0.033502854406833649
      vertex 0.12399394065141678 0 -0.025127140805125237
    endloop
  endfacet
  facet normal -0 1 0
    outer loop
      vertex 0.1665482372045517 0 0
      vertex 0.16382260620594025 0 -0.014704174362123013
      vertex 0.12399394065141678 0 -0.0083757136017084122
    endloop
  endfacet
  facet normal 0 1 0
    outer loop
      vertex 0.1665482372045517 0 0
      vertex 0.12399394065141678 0 -0.0083757136017084122
      vertex 0.12399394065141678 0 0
    endloop
  endfacet
  facet normal 0 1 0
    outer loop
      vertex 0.12399394065141678 0 0.033502854406833649
      vertex 0.081391945481300354 0 0.033502854406833649
      vertex 0.11867232620716095 0 0.046543527394533157
    endloop
  endfacet
endsolid OBJECT
